<svg width="258" height="348" viewBox="0 0 258 348" fill="none" xmlns="http://www.w3.org/2000/svg">
<path d="M122.404 109.189C122.404 109.189 122.418 109.163 122.373 109.155L121.885 108.563C121.07 106.7 119.646 100.986 116.665 95.3959L100.812 68.0299C94.9725 61.2211 87.2026 81.1285 86.3068 83.494C81.0631 83.0973 75.7112 83.8029 70.6319 85.6678L23.0501 62.5276C17.6891 59.9192 11.2248 62.0175 8.4152 67.2783C5.42004 72.8837 7.74591 79.8576 13.4966 82.5524L47.7525 98.5711L34.0238 106.773C32.1811 107.871 31.6308 110.283 32.8211 112.077L80.7701 184.269L144.537 135.946L122.417 109.196L122.404 109.189Z" fill="#458EED"/>
<path d="M230.966 300.532C208.135 324.515 165.131 306.476 148.241 285.572L67.0369 163.617L127.379 115.219L223.923 224.391C240.813 245.294 262.264 267.634 230.954 300.525L230.966 300.532Z" fill="#192F48"/>
<path d="M89.8372 108.584L63.887 122.879C59.5536 125.269 54.0245 123.706 51.324 119.337L17.2868 64.2874C14.3979 59.6113 15.854 53.5472 20.4937 51.0009L46.4439 36.7064C50.7773 34.3161 56.3064 35.8791 59.0068 40.2479L93.0441 95.2975C95.933 99.9736 94.4769 106.038 89.8372 108.584Z" fill="#192F48"/>
<path d="M41.8913 106.288C48.625 104.269 52.4474 97.1739 50.4289 90.4402C48.4104 83.7065 41.3153 79.884 34.5816 81.9025C27.8479 83.9211 24.0255 91.0161 26.044 97.7499C28.0625 104.484 35.1576 108.306 41.8913 106.288Z" fill="#458EED"/>
<path d="M47.2502 117.777C53.9839 115.758 57.8063 108.663 55.7878 101.929C53.7693 95.1955 46.6742 91.373 39.9405 93.3916C33.2068 95.4101 29.3844 102.505 31.4029 109.239C33.4214 115.973 40.5165 119.795 47.2502 117.777Z" fill="#458EED"/>
<path d="M86.2052 83.7277C83.3408 83.8803 74.7418 84.3181 74.7418 84.3181C69.0945 84.6094 64.2728 80.2667 63.9785 74.6095C63.6873 68.9622 68.03 64.1405 73.6871 63.8463L91.3986 62.9343C95.2338 62.7369 99.5449 63.7341 100.792 68.0358C103.474 77.2352 97.757 83.1109 86.1954 83.7307L86.2052 83.7277Z" fill="#458EED"/>
</svg>
