<svg width="245" height="244" viewBox="0 0 245 244" fill="none" xmlns="http://www.w3.org/2000/svg">
<path opacity="0.3" d="M0.238341 84.8926L4.19484 98.393C4.68479 100.061 5.88952 101.427 7.48353 102.118L34.1387 113.679C35.5985 114.313 36.7395 115.511 37.2932 117.004L45.1055 137.945C45.6156 139.307 46.6123 140.435 47.9043 141.099L54.9515 144.737C56.6395 145.609 57.8006 147.247 58.0657 149.126L60.1228 163.831C60.2369 164.65 60.1765 165.486 59.9449 166.281L45.7431 214.977C44.9545 217.685 46.2062 220.571 48.7265 221.843L85.3652 240.327C86.08 240.689 86.8652 240.898 87.6673 240.945L131.256 243.455C135.179 243.68 138.206 240.055 137.283 236.236C136.786 234.186 137.434 232.028 138.978 230.585L151.424 218.951C152.965 217.511 155.163 217.011 157.176 217.642L189.664 227.833C191.489 228.407 193.483 228.052 194.996 226.88L220.423 207.232C223.299 205.011 223.477 200.732 220.792 198.279L214.661 192.671C213.396 191.513 212.701 189.859 212.762 188.144L213.389 170.241C213.413 169.58 213.322 168.919 213.128 168.288L203.523 137.552C202.651 134.76 200.063 132.857 197.137 132.857H128.336C126.561 132.857 125.118 131.418 125.118 129.639V22.2799C125.118 19.6288 122.772 17.5952 120.148 17.971L116.98 18.424C115.46 18.6422 114.192 19.6892 113.692 21.1422L107.326 39.6361C106.826 41.0858 105.779 42.2805 104.409 42.9684L92.8923 48.727C91.4493 49.4485 90.3654 50.7338 89.9023 52.2808L89.7848 52.6735C88.9626 55.4185 86.2713 57.1635 83.4289 56.7977C76.7072 55.9319 65.576 54.5191 66.3713 54.7843C66.9586 54.9789 62.7101 53.6634 58.455 52.3446C54.5689 51.1398 50.6695 54.1668 50.8708 58.2273L51.3574 67.9793C51.4916 70.6874 49.7533 73.1338 47.1492 73.8922L35.8099 77.1977C34.2663 77.6474 32.6085 77.4427 31.2192 76.6339L26.3533 73.7949C25.0344 73.0264 23.4639 72.8016 21.984 73.1707L4.43646 77.5568C1.21152 78.3622 -0.697931 81.6911 0.238341 84.8825V84.8926Z" fill="#67717E"/>
<path d="M6.70514 75.2984L10.6616 88.7988C11.1516 90.4666 12.3563 91.8324 13.9503 92.5237L40.6055 104.084C42.0653 104.719 43.2063 105.917 43.76 107.41L51.5723 128.35C52.0824 129.713 53.0791 130.84 54.3711 131.505L61.4183 135.143C63.1063 136.015 64.2674 137.653 64.5325 139.532L66.5896 154.237C66.7037 155.056 66.6433 155.892 66.4117 156.687L52.2099 205.383C51.4213 208.091 52.673 210.977 55.1933 212.249L91.832 230.733C92.5468 231.095 93.332 231.303 94.1341 231.35L137.723 233.86C141.646 234.085 144.673 230.461 143.75 226.642C143.253 224.592 143.901 222.434 145.444 220.991L157.891 209.356C159.431 207.917 161.629 207.417 163.643 208.048L196.131 218.239C197.956 218.813 199.95 218.457 201.463 217.286L226.89 197.638C229.766 195.416 229.944 191.138 227.259 188.684L221.128 183.077C219.863 181.919 219.168 180.265 219.229 178.55L219.856 160.647C219.88 159.986 219.789 159.325 219.594 158.694L209.99 127.958C209.118 125.166 206.53 123.263 203.604 123.263H134.803C133.028 123.263 131.585 121.823 131.585 120.045V12.6923C131.585 10.0413 129.239 8.00763 126.615 8.38348L123.447 8.83652C121.927 9.05465 120.658 10.1017 120.158 11.5547L113.792 30.0486C113.292 31.4983 112.245 32.693 110.876 33.3809L99.3591 39.1395C97.9161 39.861 96.8322 41.1463 96.3691 42.6933L96.2516 43.0859C95.4294 45.831 92.7381 47.576 89.8957 47.2102C83.174 46.3444 72.0428 44.9316 72.8381 45.1967C73.4254 45.3914 69.1769 44.0759 64.9217 42.7571C61.0357 41.5523 57.1363 44.5793 57.3376 48.6398L57.8242 58.3918C57.9584 61.0999 56.2201 63.5463 53.616 64.3047L42.2767 67.6102C40.7331 68.0599 39.0753 67.8552 37.686 67.0464L32.8201 64.2074C31.5012 63.4389 29.9307 63.2141 28.4508 63.5832L10.9033 67.9693C7.67832 68.7747 5.76887 72.1036 6.70514 75.295V75.2984Z" fill="#67717E"/>
<path d="M141.37 4.32961L141.79 109.444C141.8 111.823 143.729 113.746 146.109 113.746H213.05C214.644 113.746 216.111 112.867 216.862 111.457L223.648 98.7252C224.044 97.9836 224.645 97.3762 225.379 96.9701L233.386 92.5707C234.397 92.017 235.142 91.0807 235.46 89.9733L244.726 57.5763C245.162 56.0561 244.729 54.4218 243.605 53.311L238.668 48.4485C237.977 47.7672 237.074 47.3377 236.111 47.2336L210.369 44.398C209.617 44.3141 208.902 44.0356 208.292 43.5926L184.62 26.2833C184.053 25.8706 183.395 25.5987 182.7 25.4981L176.512 24.5853C175.569 24.4477 174.7 24.0014 174.039 23.3168L159.263 8.03778C158.75 7.50756 158.109 7.11493 157.401 6.90351L152.74 5.50414C151.703 5.19205 150.82 4.50075 150.266 3.56783L149.407 2.11813C148.642 0.829495 147.263 0.0274572 145.763 0.000610704C143.343 -0.039659 141.363 1.91678 141.373 4.33632L141.37 4.32961Z" fill="#43EC72"/>
</svg>
