<svg width="18" height="18" viewBox="0 0 18 18" fill="none" xmlns="http://www.w3.org/2000/svg">
<path d="M16.6556 3.77188C15.9834 2.65156 14.7884 1.90466 13.444 1.90466H4.48133C3.13692 1.90466 1.94193 2.65156 1.2697 3.77188C0.448137 5.26567 0 6.90884 0 8.62668C0 12.7345 1.64317 16.0956 3.73444 16.0956C4.85476 16.0956 5.75104 15.0499 6.42322 12.8839C6.49789 12.5852 6.79665 12.3611 7.17012 12.3611H10.8299C11.1286 12.3611 11.4274 12.5852 11.5768 12.8839C12.249 15.0499 13.1452 16.0956 14.2656 16.0956C16.3568 16.0956 18 12.7345 18 8.62668C17.9253 6.90884 17.4772 5.26567 16.6556 3.77188ZM14.1909 14.6018C13.9668 14.6018 13.444 14.0042 12.9212 12.4358C12.6224 11.4648 11.7261 10.8673 10.7552 10.8673H7.17012C6.19917 10.8673 5.3029 11.5395 5.00414 12.4358C4.48133 14.0042 3.95849 14.6018 3.73444 14.6018C2.98754 14.6018 1.49379 12.2864 1.49379 8.62668C1.49379 7.2076 1.86722 5.78851 2.53944 4.51881C2.98758 3.84662 3.73447 3.39849 4.48137 3.39849H13.444C14.1909 3.39849 14.9378 3.84662 15.386 4.51881C16.0581 5.78851 16.4316 7.2076 16.4316 8.62668C16.4315 12.2864 14.9378 14.6018 14.1909 14.6018Z" fill="#192F48"/>
<path d="M6.74995 6.75H5.99996V6.00002C5.99996 5.55002 5.69997 5.25003 5.24997 5.25003C4.79997 5.25003 4.49998 5.55002 4.49998 6.00002V6.75H3.74999C3.29999 6.75 3 7.04999 3 7.49999C3 7.94999 3.29999 8.24998 3.74999 8.24998H4.49994V9C4.49994 9.45 4.79993 9.74998 5.24993 9.74998C5.69993 9.74998 5.99992 9.45 5.99992 9V8.25001H6.74995C7.19995 8.25001 7.49994 7.95002 7.49994 7.50003C7.49994 7.04999 7.19995 6.75 6.74995 6.75Z" fill="#192F48"/>
<path d="M13.875 7.49997C14.4963 7.49997 15 6.99629 15 6.37497C15 5.75365 14.4963 5.24997 13.875 5.24997C13.2537 5.24997 12.75 5.75365 12.75 6.37497C12.75 6.99629 13.2537 7.49997 13.875 7.49997Z" fill="#192F48"/>
<path d="M11.625 9.74998C12.2463 9.74998 12.75 9.2463 12.75 8.62497C12.75 8.00365 12.2463 7.49997 11.625 7.49997C11.0037 7.49997 10.5 8.00365 10.5 8.62497C10.5 9.2463 11.0037 9.74998 11.625 9.74998Z" fill="#192F48"/>
</svg>
