<svg width="351" height="250" viewBox="0 0 351 250" fill="none" xmlns="http://www.w3.org/2000/svg">
<g clip-path="url(#clip0_98_9708)">
<rect width="351" height="250" rx="20" fill="#FDF6B2"/>
<rect x="7" width="338.618" height="250" rx="8.13008" fill="white"/>
<path d="M345.618 0H7V250H345.618V0Z" fill="#FDF6B2"/>
<path d="M350 224H-1V250H350V224Z" fill="#F9D862"/>
<path d="M252.732 104.472C260.477 104.472 266.756 98.1926 266.756 90.4471C266.756 82.7017 260.477 76.4228 252.732 76.4228C244.986 76.4228 238.708 82.7017 238.708 90.4471C238.708 98.1926 244.986 104.472 252.732 104.472Z" fill="#F3B959"/>
<path d="M252.71 102.07L252.762 102.069C252.969 102.068 253.136 101.9 253.135 101.693L253.129 100.614C253.128 100.406 252.96 100.239 252.752 100.24L252.701 100.241C252.494 100.242 252.327 100.411 252.328 100.618L252.333 101.697C252.334 101.904 252.503 102.071 252.71 102.07Z" fill="#FDF6B2"/>
<path d="M246.94 100.539L246.984 100.565C247.164 100.667 247.393 100.605 247.496 100.425L248.031 99.4878C248.133 99.3079 248.071 99.0789 247.891 98.9763L247.846 98.9507C247.666 98.848 247.437 98.9107 247.334 99.0905L246.8 100.028C246.697 100.208 246.76 100.437 246.94 100.539Z" fill="#FDF6B2"/>
<path d="M242.708 96.3287L242.734 96.3732C242.839 96.552 243.068 96.6123 243.247 96.5079L244.179 95.9636C244.358 95.8592 244.418 95.6295 244.313 95.4507L244.287 95.4062C244.183 95.2273 243.953 95.167 243.775 95.2715L242.843 95.8157C242.664 95.9202 242.604 96.1498 242.708 96.3287Z" fill="#FDF6B2"/>
<path d="M241.148 90.5668L241.148 90.6184C241.149 90.8255 241.318 90.9926 241.525 90.9915L242.604 90.986C242.811 90.985 242.978 90.8163 242.977 90.6092L242.977 90.5576C242.976 90.3505 242.807 90.1834 242.6 90.1845L241.521 90.19C241.314 90.191 241.147 90.3597 241.148 90.5668Z" fill="#FDF6B2"/>
<path d="M242.677 84.796L242.652 84.8408C242.549 85.0207 242.612 85.2497 242.792 85.3524L243.729 85.8871C243.909 85.9898 244.138 85.9272 244.24 85.7473L244.266 85.7025C244.368 85.5226 244.306 85.2936 244.126 85.1909L243.189 84.6562C243.009 84.5535 242.78 84.6162 242.677 84.796Z" fill="#FDF6B2"/>
<path d="M246.887 80.5632L246.843 80.5892C246.664 80.6937 246.604 80.9233 246.708 81.1021L247.252 82.0338C247.357 82.2126 247.587 82.2729 247.765 82.1685L247.81 82.1425C247.989 82.038 248.049 81.8084 247.945 81.6295L247.4 80.6978C247.296 80.519 247.066 80.4587 246.887 80.5632Z" fill="#FDF6B2"/>
<path d="M252.649 79.0039L252.597 79.0042C252.39 79.0052 252.223 79.174 252.224 79.3811L252.23 80.46C252.231 80.6671 252.399 80.8342 252.606 80.8331L252.658 80.8329C252.865 80.8318 253.032 80.6631 253.031 80.456L253.026 79.377C253.025 79.1699 252.856 79.0029 252.649 79.0039Z" fill="#FDF6B2"/>
<path d="M258.42 80.5314L258.375 80.5059C258.195 80.4032 257.966 80.4658 257.863 80.6457L257.329 81.5829C257.226 81.7627 257.289 81.9918 257.469 82.0944L257.513 82.12C257.693 82.2226 257.922 82.16 258.025 81.9801L258.56 81.043C258.662 80.8631 258.6 80.6341 258.42 80.5314Z" fill="#FDF6B2"/>
<path d="M262.653 84.7425L262.627 84.698C262.522 84.5192 262.293 84.4589 262.114 84.5633L261.182 85.1075C261.003 85.212 260.943 85.4416 261.047 85.6205L261.073 85.665C261.178 85.8438 261.407 85.9041 261.586 85.7997L262.518 85.2555C262.697 85.151 262.757 84.9214 262.653 84.7425Z" fill="#FDF6B2"/>
<path d="M264.214 90.5065L264.214 90.455C264.213 90.2479 264.044 90.0808 263.837 90.0819L262.758 90.0873C262.551 90.0884 262.384 90.2571 262.385 90.4642L262.385 90.5158C262.386 90.7229 262.555 90.8899 262.762 90.8889L263.841 90.8834C264.048 90.8824 264.215 90.7136 264.214 90.5065Z" fill="#FDF6B2"/>
<path d="M262.683 96.2778L262.709 96.233C262.811 96.0531 262.749 95.824 262.569 95.7214L261.632 95.1867C261.452 95.084 261.223 95.1466 261.12 95.3265L261.095 95.3713C260.992 95.5512 261.055 95.7802 261.234 95.8828L262.172 96.4176C262.351 96.5202 262.58 96.4576 262.683 96.2778Z" fill="#FDF6B2"/>
<path d="M258.472 100.51L258.516 100.484C258.695 100.379 258.755 100.15 258.651 99.971L258.106 99.0393C258.002 98.8605 257.772 98.8002 257.594 98.9046L257.549 98.9306C257.37 99.0351 257.31 99.2647 257.414 99.4436L257.959 100.375C258.063 100.554 258.293 100.614 258.472 100.51Z" fill="#FDF6B2"/>
<path d="M252.935 90.6504L257 84.1463" stroke="#FDF6B2" stroke-width="0.813008" stroke-linecap="round" stroke-linejoin="round"/>
<path d="M252.935 90.6504L255.781 92.6829" stroke="#FDF6B2" stroke-width="0.813008" stroke-linecap="round" stroke-linejoin="round"/>
<path d="M232.268 175.61H273.635C284.699 175.61 293.681 184.592 293.681 195.656V226.685H212.224V195.656C212.224 184.592 221.206 175.61 232.269 175.61H232.268Z" fill="#F9D862"/>
<path d="M285.555 206.973H220.347C219.367 206.973 218.572 207.768 218.572 208.748V224.942C218.572 225.923 219.367 226.718 220.347 226.718H285.555C286.535 226.718 287.33 225.923 287.33 224.942V208.748C287.33 207.768 286.535 206.973 285.555 206.973Z" fill="#F3B959"/>
<path d="M212.828 197.221H217.33C221.669 197.221 225.191 200.743 225.191 205.081V225.497C225.191 226.172 224.643 226.72 223.968 226.72H206.19C205.515 226.72 204.967 226.172 204.967 225.497V205.081C204.967 200.743 208.489 197.221 212.828 197.221Z" fill="#FFE994"/>
<path d="M288.125 197.221H292.628C296.967 197.221 300.489 200.743 300.489 205.081V225.497C300.489 226.172 299.941 226.72 299.266 226.72H281.487C280.813 226.72 280.265 226.172 280.265 225.497V205.081C280.265 200.743 283.787 197.221 288.125 197.221Z" fill="#FFE994"/>
<circle cx="33.1135" cy="26.7465" r="12.2923" fill="#F3B959"/>
<path d="M34.0776 35.9055C39.6684 35.9055 44.2007 31.3732 44.2007 25.7824C44.2007 20.1916 39.6684 15.6594 34.0776 15.6594C28.4868 15.6594 23.9546 20.1916 23.9546 25.7824C23.9546 31.3732 28.4868 35.9055 34.0776 35.9055Z" fill="#80B1F0"/>
<path d="M45.3152 13.6907C41.3149 11.4481 36.8693 15.4495 36.8693 15.4495C34.036 10.1903 27.5185 18.127 27.5185 18.127C23.3341 21.84 23.9923 26.6346 23.9923 26.6346C25.2798 36.3703 34.7549 35.9018 34.7549 35.9018C35.5818 35.398 36.8905 33.1803 38.0527 30.9511C38.0046 30.953 37.9554 30.955 37.9072 30.955C36.2496 30.955 34.9062 29.6196 34.9062 27.9719C34.9062 26.3242 36.2496 24.9888 37.9072 24.9888C38.9114 24.9888 39.6747 25.0664 40.4813 25.8309C40.5073 25.8175 40.5381 25.804 40.5381 25.804C43.729 24.7244 45.6371 23.3306 46.7675 21.9665C48.9455 19.3369 48.3008 15.3633 45.3152 13.6897V13.6907Z" fill="#1E2F46"/>
<path d="M42.0312 27.7106C42.0312 27.7106 42.1931 28.7952 43.7184 29.1567" stroke="#1E2F46" stroke-width="0.813008" stroke-miterlimit="10" stroke-linecap="round"/>
<path d="M211.682 27.2358H55.5701C53.6658 27.2358 52.1221 28.8738 52.1221 30.8943C52.1221 32.9149 53.6658 34.5529 55.5701 34.5529H211.682C213.586 34.5529 215.13 32.9149 215.13 30.8943C215.13 28.8738 213.586 27.2358 211.682 27.2358Z" fill="#F3B959"/>
<path d="M84.9656 28.8618H55.8639C54.6953 28.8618 53.748 29.7718 53.748 30.8944C53.748 32.0169 54.6953 32.9269 55.8639 32.9269H84.9656C86.1341 32.9269 87.0814 32.0169 87.0814 30.8944C87.0814 29.7718 86.1341 28.8618 84.9656 28.8618Z" fill="white"/>
<path d="M179.28 24.4227L180.569 22.2921C180.767 21.9644 180.531 21.5447 180.148 21.5447L177.569 21.5447C177.185 21.5447 176.949 21.9644 177.147 22.2921L178.437 24.4227C178.628 24.7396 179.087 24.7396 179.278 24.4227L179.28 24.4227Z" fill="#1E2F46"/>
<rect x="178.138" y="26.8293" width="1.21951" height="8.94309" rx="0.609756" fill="#1E2F46"/>
<circle cx="236.43" cy="26.0413" r="12.8392" fill="#1E2F46"/>
<path d="M226.102 24.3338C226.177 26.3074 225.511 28.0391 225.134 28.8499C224.986 29.1693 224.649 29.3578 224.304 29.3054C222.426 29.0192 220.919 27.0192 220.826 24.5377C220.732 22.0563 222.084 19.9461 223.935 19.5157C224.274 19.4368 224.625 19.5984 224.797 19.9057C225.233 20.6852 226.028 22.3607 226.102 24.3343V24.3338Z" fill="#4A9DFF"/>
<path d="M226.36 20.0899C226.758 19.9829 227.18 19.9403 227.616 19.9721L236.104 20.5974C236.394 20.619 236.674 20.6725 236.94 20.7546C237.593 18.2079 238.691 16.0098 240.06 14.3956C240.19 14.2422 240.323 14.094 240.458 13.9514C238.657 12.8382 236.529 12.1951 234.249 12.1951C231.969 12.1951 229.785 12.8667 227.996 13.9574C226.975 15.5936 226.341 17.698 226.234 20.0899H226.36Z" fill="#A8D0FF"/>
<path d="M222.332 24.0331C222.332 30.4826 227.497 35.7258 233.918 35.8566C233.999 35.8586 234.081 35.8595 234.164 35.8595C240.698 35.8595 245.996 30.5647 245.996 24.0331C245.996 19.7984 243.769 16.0838 240.423 13.9941C240.287 14.1398 240.153 14.2902 240.021 14.4464C238.641 16.09 237.534 18.3277 236.876 20.9197C238.511 21.4278 239.641 23.0103 239.508 24.79L239.448 25.6018C239.293 27.6733 237.488 29.2277 235.415 29.0734L226.858 28.4369C224.786 28.2826 223.231 26.4785 223.385 24.407L223.445 23.5952C223.567 21.9616 224.715 20.6494 226.212 20.243C226.32 17.8081 226.936 15.623 227.965 13.9574C224.585 16.0389 222.332 19.7727 222.332 24.0327L222.332 24.0331Z" fill="#89BFFF"/>
<path d="M231.521 18.9923C231.034 18.9923 230.64 18.5415 230.64 17.9853C230.64 17.4292 231.034 16.9783 231.521 16.9783C232.007 16.9783 232.402 17.4292 232.402 17.9853C232.402 18.5415 232.007 18.9923 231.521 18.9923Z" fill="#62AAFF"/>
<path d="M242.729 24.3338C242.655 26.3074 243.321 28.0391 243.697 28.8499C243.845 29.1693 244.183 29.3578 244.528 29.3054C246.405 29.0192 247.912 27.0192 248.006 24.5377C248.099 22.0563 246.747 19.9461 244.897 19.5157C244.557 19.4368 244.206 19.5984 244.035 19.9057C243.598 20.6852 242.804 22.3607 242.729 24.3343V24.3338Z" fill="#4A9DFF"/>
<path d="M226.886 28.7439L235.854 29.0598C238.026 29.1364 239.848 27.4323 239.922 25.2543L239.952 24.4006C240.016 22.5291 238.77 20.9161 237.04 20.4507C236.757 20.3741 236.46 20.3285 236.154 20.3177L227.187 20.0018C226.727 19.9858 226.284 20.0488 225.87 20.1795C224.323 20.667 223.177 22.09 223.119 23.8078L223.089 24.6615C223.015 26.8395 224.715 28.6677 226.887 28.7444L226.886 28.7439Z" fill="#192F48" stroke="#C1DEFF" stroke-width="2.43902" stroke-miterlimit="10"/>
<path d="M235.337 23.4232L235.505 23.4287C236 23.4447 236.388 23.8588 236.372 24.3535L236.301 26.5251C236.285 27.0198 235.871 27.4078 235.376 27.3917L235.209 27.3863C234.714 27.3702 234.326 26.9561 234.342 26.4614L234.412 24.2899C234.428 23.7952 234.843 23.4072 235.337 23.4232Z" fill="#43EC72"/>
<path d="M226.967 23.186L227.135 23.1914C227.63 23.2075 228.018 23.6216 228.002 24.1163L227.931 26.2878C227.915 26.7825 227.501 27.1706 227.006 27.1545L226.838 27.149C226.344 27.133 225.956 26.7189 225.972 26.2242L226.042 24.0527C226.058 23.5579 226.472 23.1699 226.967 23.186Z" fill="#43EC72"/>
<path d="M223.564 92.9369L112.812 92.9368C110.934 92.9368 109.398 94.4534 109.398 96.3072V108.56C109.398 110.401 110.923 111.906 112.787 111.906H123.304V114.059C123.304 115.368 124.783 116.147 125.884 115.421L131.211 111.906L223.608 111.906C225.407 111.906 226.878 110.452 226.878 108.677V96.2077C226.878 94.4084 225.388 92.9353 223.564 92.9353V92.9369Z" fill="#F9D249"/>
<path d="M214.219 102.636C214.2 102.04 214.599 101.824 215.018 101.481C215.152 101.373 215.26 101.24 215.26 101.05C215.26 100.745 215.006 100.548 214.599 100.548C214.231 100.548 213.914 100.789 213.749 100.955L213.425 100.485C213.622 100.244 213.99 99.8819 214.733 99.8819C215.513 99.8819 216.015 100.339 216.015 100.955C216.015 101.481 215.78 101.729 215.52 101.97C215.266 102.211 214.949 102.313 214.929 102.687L214.917 103.068H214.231L214.219 102.636ZM214.066 103.925C214.066 103.627 214.276 103.449 214.574 103.449C214.879 103.449 215.082 103.627 215.082 103.925C215.082 104.217 214.879 104.394 214.574 104.394C214.276 104.394 214.066 104.217 214.066 103.925Z" fill="black"/>
<path d="M210.562 100.313C210.562 100.053 210.765 99.8629 211.051 99.8629C211.336 99.8629 211.539 100.053 211.539 100.313C211.539 100.58 211.336 100.764 211.051 100.764C210.765 100.764 210.562 100.58 210.562 100.313ZM210.645 101.253H211.457V104.325H210.645V101.253Z" fill="black"/>
<path d="M209.079 103.893C208.902 104.198 208.572 104.382 208.127 104.382C207.753 104.382 207.499 104.28 207.328 104.109C207.099 103.874 207.029 103.5 207.029 103.074V101.253H207.842V102.897C207.842 103.354 207.918 103.715 208.388 103.715C208.876 103.715 209.06 103.328 209.06 102.814V101.253H209.873V104.325H209.086L209.079 103.893Z" fill="black"/>
<path d="M203.511 99.9454H204.317V101.716H204.329C204.495 101.392 204.806 101.196 205.25 101.196C206.132 101.196 206.354 101.767 206.354 102.503V104.325H205.542V102.681C205.542 102.224 205.459 101.862 204.99 101.862C204.488 101.862 204.317 102.281 204.317 102.795V104.325H203.511V99.9454Z" fill="black"/>
<path d="M201.848 99.9454H202.647L202.044 101.418H201.384L201.848 99.9454Z" fill="black"/>
<path d="M199.802 104.325L199.809 103.842C199.561 104.236 199.161 104.395 198.736 104.395C197.835 104.395 197.283 103.696 197.283 102.782C197.283 101.913 197.86 101.196 198.793 101.196C199.206 101.196 199.568 101.348 199.783 101.678C199.777 101.538 199.777 101.373 199.777 101.158V99.9454H200.583V104.325H199.802ZM198.965 103.734C199.453 103.734 199.796 103.36 199.796 102.782C199.796 102.268 199.46 101.818 198.939 101.818C198.412 101.818 198.108 102.268 198.108 102.782C198.108 103.316 198.438 103.734 198.965 103.734Z" fill="black"/>
<path d="M195.18 101.253H195.986L195.973 101.748H195.992C196.113 101.418 196.417 101.196 196.747 101.196C196.957 101.196 197.071 101.253 197.071 101.253L197.014 101.957H196.976C196.887 101.932 196.747 101.919 196.639 101.919C196.398 101.919 196.208 102.021 196.1 102.218C196.017 102.37 195.986 102.579 195.986 102.814V104.325H195.18V101.253Z" fill="black"/>
<path d="M193.64 103.893C193.462 104.198 193.132 104.382 192.688 104.382C192.313 104.382 192.06 104.28 191.888 104.109C191.66 103.874 191.59 103.5 191.59 103.074V101.253H192.402V102.897C192.402 103.354 192.478 103.715 192.948 103.715C193.437 103.715 193.621 103.328 193.621 102.814V101.253H194.433V104.325H193.646L193.64 103.893Z" fill="black"/>
<path d="M187.756 102.801C187.756 101.83 188.479 101.196 189.425 101.196C190.364 101.196 191.088 101.83 191.088 102.801C191.088 103.773 190.364 104.395 189.425 104.395C188.479 104.395 187.756 103.773 187.756 102.801ZM189.425 103.722C189.946 103.722 190.25 103.309 190.25 102.782C190.25 102.256 189.946 101.849 189.425 101.849C188.892 101.849 188.6 102.256 188.6 102.782C188.6 103.309 188.892 103.722 189.425 103.722Z" fill="black"/>
<path d="M186.278 100.313C186.278 100.053 186.481 99.8629 186.766 99.8629C187.052 99.8629 187.255 100.053 187.255 100.313C187.255 100.58 187.052 100.764 186.766 100.764C186.481 100.764 186.278 100.58 186.278 100.313ZM185.719 104.864C185.789 104.896 185.872 104.909 185.973 104.909C186.309 104.909 186.36 104.636 186.36 104.255V101.253H187.173V104.293C187.173 104.667 187.116 104.991 186.919 105.232C186.779 105.397 186.538 105.556 186.132 105.556C185.84 105.556 185.707 105.499 185.707 105.499L185.719 104.864Z" fill="black"/>
<path d="M184.801 103.893C184.623 104.198 184.293 104.382 183.849 104.382C183.475 104.382 183.221 104.28 183.049 104.109C182.821 103.874 182.751 103.5 182.751 103.074V101.253H183.563V102.897C183.563 103.354 183.64 103.715 184.109 103.715C184.598 103.715 184.782 103.328 184.782 102.814V101.253H185.594V104.325H184.807L184.801 103.893Z" fill="black"/>
<path d="M181.319 103.969C181.192 104.191 180.837 104.395 180.38 104.395C179.783 104.395 179.301 104.071 179.301 103.43C179.301 102.789 179.929 102.541 180.564 102.497L181.3 102.446V102.364C181.3 101.97 181.04 101.786 180.615 101.786C180.208 101.786 179.872 101.938 179.739 102.04L179.491 101.519C179.726 101.38 180.158 101.196 180.691 101.196C181.237 101.196 181.548 101.335 181.776 101.551C181.998 101.767 182.112 102.046 182.112 102.567V104.325H181.332L181.319 103.969ZM180.754 102.973C180.323 102.998 180.113 103.144 180.113 103.404C180.113 103.665 180.31 103.842 180.646 103.842C180.964 103.842 181.198 103.658 181.306 103.506V102.941L180.754 102.973Z" fill="black"/>
<path d="M175.64 103.366C176.001 103.646 176.312 103.785 176.573 103.785C176.877 103.785 177.017 103.671 177.017 103.493C177.017 103.335 176.896 103.246 176.503 103.112L176.147 102.992C175.69 102.84 175.456 102.567 175.456 102.116C175.456 101.557 175.963 101.196 176.554 101.196C177.099 101.196 177.404 101.342 177.658 101.526L177.309 102.065C177.131 101.932 176.871 101.805 176.592 101.805C176.325 101.805 176.192 101.907 176.192 102.053C176.192 102.186 176.293 102.294 176.636 102.402L176.852 102.471C177.531 102.694 177.772 102.935 177.772 103.379C177.772 103.963 177.309 104.395 176.554 104.395C176.084 104.395 175.557 104.204 175.31 103.918L175.64 103.366Z" fill="black"/>
<path d="M173.596 99.9454H174.332L173.653 100.866H173.063L173.596 99.9454ZM174.884 103.899C174.713 104.077 174.25 104.395 173.501 104.395C172.574 104.395 171.889 103.83 171.889 102.84C171.889 101.856 172.606 101.196 173.482 101.196C174.427 101.196 174.999 101.818 174.999 102.636C174.999 102.795 174.986 103.049 174.986 103.049H172.726C172.803 103.538 173.177 103.773 173.64 103.773C174.053 103.773 174.421 103.588 174.567 103.462L174.884 103.899ZM174.186 102.522C174.174 102.186 174.047 101.799 173.475 101.799C172.993 101.799 172.739 102.135 172.714 102.522H174.186Z" fill="black"/>
<path d="M170.506 99.9454H171.312V104.325H170.506V99.9454Z" fill="black"/>
<path d="M168.888 99.9454H169.694V104.325H168.888V99.9454Z" fill="black"/>
<path d="M167.367 103.969C167.24 104.191 166.885 104.395 166.428 104.395C165.831 104.395 165.349 104.071 165.349 103.43C165.349 102.789 165.977 102.541 166.612 102.497L167.348 102.446V102.364C167.348 101.97 167.088 101.786 166.663 101.786C166.257 101.786 165.92 101.938 165.787 102.04L165.54 101.519C165.774 101.38 166.206 101.196 166.739 101.196C167.285 101.196 167.596 101.335 167.824 101.551C168.047 101.767 168.161 102.046 168.161 102.567V104.325H167.38L167.367 103.969ZM166.803 102.973C166.371 102.998 166.162 103.144 166.162 103.404C166.162 103.665 166.358 103.842 166.695 103.842C167.012 103.842 167.247 103.658 167.355 103.506V102.941L166.803 102.973Z" fill="black"/>
<path d="M162.785 103.893C162.608 104.198 162.278 104.382 161.833 104.382C161.459 104.382 161.205 104.28 161.034 104.109C160.805 103.874 160.735 103.5 160.735 103.074V101.253H161.548V102.897C161.548 103.354 161.624 103.715 162.094 103.715C162.582 103.715 162.766 103.328 162.766 102.814V101.253H163.579V104.325H162.792L162.785 103.893Z" fill="black"/>
<path d="M160.323 104.293C160.285 104.306 160.044 104.395 159.701 104.395C159.396 104.395 159.174 104.331 159.035 104.172C158.876 104.001 158.812 103.728 158.812 103.309V101.888H158.355V101.259H158.812V100.383H159.618V101.259H160.329V101.888H159.618V103.131C159.618 103.379 159.638 103.525 159.701 103.614C159.752 103.69 159.847 103.715 159.987 103.715C160.152 103.715 160.279 103.665 160.279 103.665L160.323 104.293Z" fill="black"/>
<path d="M154.867 102.713L153.801 101.253H154.727L155.368 102.256L156.009 101.253H156.936L155.87 102.719L157.069 104.325H156.136L155.368 103.201L154.6 104.325H153.667L154.867 102.713Z" fill="black"/>
<path d="M152.534 103.893C152.356 104.198 152.026 104.382 151.582 104.382C151.207 104.382 150.954 104.28 150.782 104.109C150.554 103.874 150.484 103.5 150.484 103.074V101.253H151.296V102.897C151.296 103.354 151.372 103.715 151.842 103.715C152.331 103.715 152.515 103.328 152.515 102.814V101.253H153.327V104.325H152.54L152.534 103.893Z" fill="black"/>
<path d="M149.887 103.899C149.716 104.077 149.253 104.395 148.504 104.395C147.577 104.395 146.892 103.83 146.892 102.84C146.892 101.856 147.609 101.196 148.485 101.196C149.43 101.196 150.002 101.818 150.002 102.636C150.002 102.795 149.989 103.049 149.989 103.049H147.729C147.806 103.538 148.18 103.773 148.643 103.773C149.056 103.773 149.424 103.588 149.57 103.462L149.887 103.899ZM149.189 102.522C149.176 102.186 149.05 101.799 148.478 101.799C147.996 101.799 147.742 102.135 147.717 102.522H149.189Z" fill="black"/>
<path d="M143.398 101.253H144.242L145.074 103.468L145.905 101.253H146.717L145.454 104.325H144.661L143.398 101.253Z" fill="black"/>
<path d="M140.974 103.893C140.797 104.198 140.467 104.382 140.022 104.382C139.648 104.382 139.394 104.28 139.223 104.109C138.994 103.874 138.924 103.5 138.924 103.074V101.253H139.737V102.897C139.737 103.354 139.813 103.715 140.283 103.715C140.771 103.715 140.955 103.328 140.955 102.814V101.253H141.768V104.325H140.981L140.974 103.893Z" fill="black"/>
<path d="M136.106 104.401C134.843 104.401 133.814 103.55 133.814 102.141C133.814 100.732 134.843 99.8819 136.106 99.8819C137.375 99.8819 138.397 100.732 138.397 102.141C138.397 103.55 137.375 104.401 136.106 104.401ZM136.106 103.677C136.918 103.677 137.546 103.087 137.546 102.135C137.546 101.183 136.918 100.599 136.106 100.599C135.293 100.599 134.665 101.183 134.665 102.135C134.665 103.087 135.3 103.677 136.106 103.677Z" fill="black"/>
<circle cx="114.479" cy="96.3906" r="9.14634" fill="#F3B959"/>
<path d="M105.34 97.4743C106.893 97.4743 108.152 96.2153 108.152 94.6624C108.152 93.1094 106.893 91.8505 105.34 91.8505C103.787 91.8505 102.528 93.1094 102.528 94.6624C102.528 96.2153 103.787 97.4743 105.34 97.4743Z" fill="white"/>
<path d="M119.976 95.7491C119.976 100.147 116.412 103.711 112.015 103.711C107.619 103.711 104.052 100.147 104.052 95.7491C104.052 91.8923 106.794 88.6767 110.436 87.9438C110.947 87.8413 111.474 87.7869 112.015 87.7869C112.713 87.7869 113.391 87.8767 114.036 88.0473C116.732 88.7511 118.871 90.8355 119.653 93.4996C119.74 93.7916 119.81 94.091 119.861 94.3948C119.938 94.8347 119.976 95.2874 119.976 95.7481V95.7491Z" fill="#88BEFF"/>
<path d="M110.26 93.8352C109.368 93.8352 108.746 93.3336 108.518 93.1159C108.37 92.9744 108.365 92.7404 108.507 92.5925C108.648 92.4447 108.882 92.4392 109.03 92.5807C109.195 92.7385 109.648 93.1041 110.283 93.095C110.945 93.0859 111.561 92.6796 111.888 92.0347C111.981 91.8524 112.204 91.7798 112.386 91.8723C112.568 91.9648 112.641 92.188 112.548 92.3703C112.096 93.261 111.231 93.8225 110.293 93.8352C110.283 93.8352 110.272 93.8352 110.261 93.8352H110.26Z" fill="#192F48"/>
<path d="M122.555 96.1563C122.555 98.3904 120.778 100.212 118.56 100.282C119.452 98.9954 119.975 97.4326 119.975 95.7491C119.975 95.2883 119.936 94.8357 119.86 94.3957C119.735 93.6692 119.512 92.9753 119.205 92.3304C119.165 92.246 119.123 92.1626 119.079 92.08C119.183 92.0955 119.287 92.1163 119.388 92.1417C121.204 92.5744 122.554 94.208 122.554 96.1572L122.555 96.1563Z" fill="#192F48"/>
<path d="M120.155 90.1253C120.155 90.8981 119.867 91.6047 119.39 92.1408C119.333 92.2061 119.271 92.2696 119.206 92.3304C119.167 92.246 119.124 92.1626 119.08 92.08C118.298 90.5761 117.051 89.3534 115.528 88.6042C115.266 88.4745 114.997 88.3593 114.719 88.2586C114.89 88.0391 115.091 87.8423 115.317 87.6772C115.82 87.3062 116.442 87.0867 117.116 87.0867C118.794 87.0867 120.155 88.4473 120.155 90.1262V90.1253Z" fill="#192F48"/>
<path d="M115.528 88.6033C115.266 88.4736 114.997 88.3584 114.719 88.2577C113.875 87.9529 112.965 87.7869 112.015 87.7869C111.474 87.7869 110.947 87.8405 110.436 87.9439C110.338 87.9638 110.239 87.9847 110.143 88.0092C109.932 88.0591 109.725 88.118 109.522 88.1851C109.555 88.0273 109.6 87.874 109.658 87.7271C110.095 86.5842 111.201 85.7724 112.497 85.7724C113.793 85.7724 114.867 86.5588 115.316 87.6763C115.433 87.9656 115.506 88.2777 115.527 88.6033H115.528Z" fill="#192F48"/>
<path d="M110.144 88.0092C109.933 88.0591 109.726 88.118 109.523 88.1851C107.503 88.85 105.84 90.3022 104.898 92.178C103.839 90.714 104.135 88.6532 105.547 87.5538C106.938 86.4708 108.974 86.6658 110.145 88.0092H110.144Z" fill="#192F48"/>
<path d="M119.653 93.4996C119.185 93.6719 118.679 93.7663 118.152 93.7663C115.755 93.7663 113.812 91.8233 113.812 89.4269C113.812 88.9443 113.89 88.4808 114.036 88.0473C116.732 88.7511 118.871 90.8356 119.653 93.4996Z" fill="#192F48"/>
<path d="M118.032 98.0657C119.695 98.0657 121.043 96.542 121.043 94.6624C121.043 92.7829 119.695 91.2592 118.032 91.2592C116.37 91.2592 115.022 92.7829 115.022 94.6624C115.022 96.542 116.37 98.0657 118.032 98.0657Z" fill="white"/>
<path d="M119.176 91.7045L118.137 91.5131C118.169 91.3426 118.411 89.816 117.279 88.6296C116.644 87.9647 115.884 87.7243 115.303 87.6472C115.131 87.2327 114.87 86.8645 114.544 86.5651C115.208 86.5307 116.806 86.6014 118.043 87.8994C119.537 89.4659 119.217 91.4805 119.176 91.7045Z" fill="white"/>
<path d="M173.07 148.357H174.626C175.016 148.357 175.332 148.624 175.332 148.953V224.2C175.332 224.529 175.016 224.796 174.626 224.796H173.07C172.681 224.796 172.365 224.529 172.365 224.2V148.953C172.365 148.624 172.681 148.357 173.07 148.357Z" fill="#F9D862"/>
<path fill-rule="evenodd" clip-rule="evenodd" d="M168.608 136.585H175.826L179.188 136.585L187.544 160.128L171.97 160.128L160.252 160.128L168.608 136.585Z" fill="#F3B959"/>
<path fill-rule="evenodd" clip-rule="evenodd" d="M166.722 224.796H180.968C179.45 223.002 176.827 221.816 173.845 221.816C170.864 221.816 168.241 223.002 166.722 224.796Z" fill="#F3B959"/>
<path d="M52.7443 199.716L50.5529 206.419H34.1319L29.4734 190.013C25.8049 177.333 30.4731 176.103 34.1319 177.004L33.2293 172.437C31.0631 156.301 34.9859 160.89 37.2181 165.202C37.0783 161.051 37.1696 154.496 38.0042 151.536C40.5896 139.2 45.3898 153.789 47.0882 160.744C56.4342 158.333 52.096 172.084 49.3883 181.828C55.2779 174.813 55.5902 191.01 52.7443 199.716Z" fill="#FFE994"/>
<path d="M34.3297 226.691H50.72L53.8052 206.583H31.2446L34.3297 226.691Z" fill="#F3B959"/>
<path d="M29.6326 202.986H55.4166C56.242 202.986 56.9111 203.669 56.9111 204.51V207.511C56.9111 208.352 56.242 209.035 55.4166 209.035H29.6326C28.8073 209.035 28.1382 208.352 28.1382 207.511V204.51C28.1382 203.669 28.8073 202.986 29.6326 202.986Z" fill="#F9D862"/>
<path d="M78.6126 233.621C78.6126 233.621 79.2732 244.636 78.3911 249.521L27.9527 249.856C27.9527 249.856 24.0439 198.203 49.1192 187.506C54.124 185.371 59.8558 185.793 64.5578 188.532C68.2716 190.696 73.2405 194.379 78.7034 200.565C81.4046 203.624 84.2572 206.547 87.284 209.286L88.0146 209.946L99.3323 197.474L98.9519 189.335C98.8383 186.912 100.517 184.773 102.897 184.307L108.488 183.213V177.841C108.488 176.771 109.355 175.903 110.427 175.903C111.496 175.903 112.365 176.769 112.365 177.841V179.249L117.12 187.705L117.754 191.428C118.195 194.014 117.623 196.668 116.16 198.845L111.922 205.144L97.8824 227.717C95.4026 231.703 91.2326 234.335 86.5666 234.857C82.2451 235.34 77.9217 233.966 74.6715 231.075L64.6278 222.141" fill="#80B1F0"/>
<path d="M74.6734 231.079C74.6734 231.079 77.7078 233.252 78.6126 233.623C78.6126 233.623 80.6645 238.283 80.4165 249.86H27.9527C27.9527 249.86 24.0439 198.207 49.1192 187.51C54.124 185.375 59.8558 185.797 64.5578 188.536C68.2716 190.699 73.2405 194.383 78.7034 200.569C80.036 202.08 81.4065 203.556 82.8167 204.993C84.2629 206.467 85.7507 207.902 87.284 209.29L74.6715 231.081L73.7005 230.218L64.6278 222.148" fill="#1065B9"/>
<path d="M120.18 182.213L115.054 177.697C113.7 176.503 111.634 176.634 110.441 177.989L100.541 189.225C99.348 190.58 99.4787 192.645 100.833 193.839L105.959 198.355C107.314 199.548 109.38 199.418 110.573 198.063L120.472 186.827C121.666 185.472 121.535 183.406 120.18 182.213Z" fill="#1E2F46" stroke="#1E2F46" stroke-width="0.406504" stroke-miterlimit="10"/>
<path d="M118.876 183.016L114.421 179.091C113.568 178.34 112.268 178.422 111.517 179.275L102.016 190.059C101.264 190.912 101.347 192.212 102.199 192.963L106.655 196.889C107.508 197.64 108.808 197.557 109.559 196.705L119.06 185.92C119.811 185.068 119.729 183.767 118.876 183.016Z" fill="white"/>
<path d="M106.285 198.436C106.285 198.436 109.552 194.08 112.297 194.506C112.297 194.506 111.702 188.032 115.382 187.546C116.315 187.423 117.179 188.066 117.33 188.996L117.864 192.278C117.947 193.039 117.902 193.815 117.792 194.635C117.387 196.991 116.878 197.557 116.495 198.316L112.463 204.343L109.465 202.307L105.496 199.539L106.285 198.434V198.436Z" fill="#80B1F0"/>
<path d="M61.1143 178.165C72.1331 178.165 81.0656 169.232 81.0656 158.213C81.0656 147.195 72.1331 138.262 61.1143 138.262C50.0956 138.262 41.1631 147.195 41.1631 158.213C41.1631 169.232 50.0956 178.165 61.1143 178.165Z" fill="#80B1F0"/>
<path d="M83.1137 134.276C75.2563 129.844 66.5243 137.751 66.5243 137.751C60.9591 127.359 48.1574 143.042 48.1574 143.042C39.9384 150.379 41.2313 159.853 41.2313 159.853C43.7602 179.09 62.3713 178.165 62.3713 178.165C63.9954 177.169 66.5659 172.787 68.8488 168.382C68.7541 168.386 68.6576 168.39 68.5629 168.39C65.3071 168.39 62.6684 165.751 62.6684 162.495C62.6684 159.239 65.3071 156.601 68.5629 156.601C70.5353 156.601 72.0345 156.754 73.6189 158.264C73.67 158.238 73.7306 158.211 73.7306 158.211C79.998 156.078 83.7459 153.324 85.9663 150.628C90.2443 145.432 88.9779 137.581 83.1137 134.274V134.276Z" fill="#1E2F46"/>
<path d="M76.7593 162.058C76.7593 162.058 77.0621 164.193 79.9166 164.905" stroke="#1E2F46" stroke-width="1.62602" stroke-miterlimit="10" stroke-linecap="round"/>
<path d="M320.867 210.974L132.247 210.828C129.987 210.828 128.138 208.99 128.138 206.743L128.168 193.206C128.168 190.975 130.003 189.15 132.247 189.15H144.906V186.541C144.906 184.954 146.686 184.01 148.012 184.89L154.424 189.15L320.95 189.296C323.116 189.296 324.886 191.058 324.886 193.209L324.857 207.009C324.857 209.19 323.063 210.976 320.867 210.976V210.974Z" fill="#A4CEFF"/>
<path d="M214.724 200.197C214.704 199.557 215.133 199.325 215.582 198.957C215.725 198.841 215.841 198.698 215.841 198.494C215.841 198.167 215.569 197.956 215.133 197.956C214.738 197.956 214.397 198.215 214.22 198.392L213.873 197.888C214.084 197.629 214.479 197.241 215.276 197.241C216.113 197.241 216.651 197.731 216.651 198.392C216.651 198.957 216.399 199.223 216.12 199.482C215.848 199.74 215.507 199.849 215.487 200.251L215.473 200.66H214.738L214.724 200.197ZM214.56 201.579C214.56 201.259 214.785 201.069 215.105 201.069C215.432 201.069 215.65 201.259 215.65 201.579C215.65 201.893 215.432 202.083 215.105 202.083C214.785 202.083 214.56 201.893 214.56 201.579Z" fill="black"/>
<path d="M211.889 201.552C211.705 201.743 211.208 202.083 210.404 202.083C209.41 202.083 208.674 201.477 208.674 200.415C208.674 199.359 209.444 198.651 210.384 198.651C211.399 198.651 212.012 199.318 212.012 200.197C212.012 200.367 211.998 200.639 211.998 200.639H209.573C209.655 201.164 210.057 201.416 210.554 201.416C210.997 201.416 211.392 201.218 211.549 201.082L211.889 201.552ZM211.14 200.074C211.126 199.713 210.99 199.298 210.377 199.298C209.859 199.298 209.587 199.659 209.56 200.074H211.14Z" fill="black"/>
<path d="M206.431 198.712H207.296L207.283 199.243H207.303C207.432 198.889 207.759 198.651 208.113 198.651C208.338 198.651 208.461 198.712 208.461 198.712L208.4 199.468H208.359C208.263 199.441 208.113 199.427 207.998 199.427C207.739 199.427 207.535 199.536 207.419 199.747C207.33 199.911 207.296 200.135 207.296 200.387V202.009H206.431V198.712Z" fill="black"/>
<path d="M204.754 202.009L204.761 201.491C204.495 201.913 204.066 202.083 203.61 202.083C202.642 202.083 202.05 201.334 202.05 200.353C202.05 199.42 202.67 198.651 203.671 198.651C204.114 198.651 204.502 198.814 204.733 199.168C204.727 199.018 204.727 198.841 204.727 198.61V197.309H205.592V202.009H204.754ZM203.855 201.375C204.379 201.375 204.747 200.973 204.747 200.353C204.747 199.802 204.386 199.318 203.828 199.318C203.262 199.318 202.935 199.802 202.935 200.353C202.935 200.926 203.289 201.375 203.855 201.375Z" fill="black"/>
<path d="M198.41 198.712H199.281L199.275 199.25C199.472 198.828 199.854 198.651 200.283 198.651C201.229 198.651 201.468 199.264 201.468 200.054V202.009H200.596V200.244C200.596 199.754 200.507 199.366 200.003 199.366C199.465 199.366 199.281 199.815 199.281 200.367V202.009H198.41V198.712Z" fill="black"/>
<path d="M194.234 200.374C194.234 199.332 195.011 198.651 196.026 198.651C197.034 198.651 197.81 199.332 197.81 200.374C197.81 201.416 197.034 202.083 196.026 202.083C195.011 202.083 194.234 201.416 194.234 200.374ZM196.026 201.361C196.584 201.361 196.911 200.919 196.911 200.353C196.911 199.788 196.584 199.352 196.026 199.352C195.454 199.352 195.14 199.788 195.14 200.353C195.14 200.919 195.454 201.361 196.026 201.361Z" fill="black"/>
<path d="M190.289 198.712H191.174L191.16 199.196C191.426 198.8 191.835 198.637 192.271 198.637C193.238 198.637 193.83 199.386 193.83 200.367C193.83 201.3 193.211 202.07 192.209 202.07C191.705 202.07 191.419 201.893 191.147 201.566C191.154 201.77 191.147 201.981 191.147 202.186V203.255H190.289V198.712ZM192.053 201.402C192.618 201.402 192.945 200.919 192.945 200.367C192.945 199.795 192.591 199.345 192.025 199.345C191.501 199.345 191.133 199.747 191.133 200.367C191.133 200.919 191.494 201.402 192.053 201.402Z" fill="black"/>
<path d="M188.184 197.309H188.974L188.246 198.296H187.612L188.184 197.309ZM189.567 201.552C189.383 201.743 188.886 202.083 188.082 202.083C187.088 202.083 186.352 201.477 186.352 200.415C186.352 199.359 187.122 198.651 188.062 198.651C189.076 198.651 189.689 199.318 189.689 200.197C189.689 200.367 189.676 200.639 189.676 200.639H187.251C187.333 201.164 187.735 201.416 188.232 201.416C188.675 201.416 189.07 201.218 189.226 201.082L189.567 201.552ZM188.818 200.074C188.804 199.713 188.668 199.298 188.055 199.298C187.537 199.298 187.265 199.659 187.237 200.074H188.818Z" fill="black"/>
<path d="M184.109 198.712H184.974L184.96 199.243H184.981C185.11 198.889 185.437 198.651 185.791 198.651C186.016 198.651 186.139 198.712 186.139 198.712L186.077 199.468H186.036C185.941 199.441 185.791 199.427 185.675 199.427C185.417 199.427 185.212 199.536 185.096 199.747C185.008 199.911 184.974 200.135 184.974 200.387V202.009H184.109V198.712Z" fill="black"/>
<path d="M180.968 197.704C180.968 197.425 181.186 197.22 181.492 197.22C181.799 197.22 182.017 197.425 182.017 197.704C182.017 197.99 181.799 198.187 181.492 198.187C181.186 198.187 180.968 197.99 180.968 197.704ZM181.056 198.712H181.928V202.009H181.056V198.712Z" fill="black"/>
<path d="M179.377 201.545C179.186 201.872 178.832 202.07 178.355 202.07C177.953 202.07 177.681 201.961 177.497 201.777C177.252 201.525 177.177 201.123 177.177 200.667V198.712H178.049V200.476C178.049 200.966 178.13 201.355 178.634 201.355C179.159 201.355 179.356 200.939 179.356 200.387V198.712H180.228V202.009H179.384L179.377 201.545Z" fill="black"/>
<path d="M175.536 197.309H176.401V202.009H175.536V197.309Z" fill="black"/>
<path d="M172.499 201.545C172.308 201.872 171.954 202.07 171.477 202.07C171.075 202.07 170.803 201.961 170.619 201.777C170.374 201.525 170.299 201.123 170.299 200.667V198.712H171.171V200.476C171.171 200.966 171.252 201.355 171.756 201.355C172.281 201.355 172.478 200.939 172.478 200.387V198.712H173.35V202.009H172.506L172.499 201.545Z" fill="black"/>
<path d="M169.857 201.974C169.816 201.988 169.557 202.083 169.189 202.083C168.862 202.083 168.624 202.015 168.474 201.845C168.304 201.661 168.236 201.368 168.236 200.919V199.393H167.745V198.719H168.236V197.779H169.101V198.719H169.863V199.393H169.101V200.728C169.101 200.994 169.121 201.15 169.189 201.246C169.244 201.327 169.346 201.355 169.496 201.355C169.673 201.355 169.809 201.3 169.809 201.3L169.857 201.974Z" fill="black"/>
<path d="M164.002 200.278L162.857 198.712H163.852L164.54 199.788L165.228 198.712H166.222L165.078 200.285L166.365 202.009H165.364L164.54 200.803L163.716 202.009H162.714L164.002 200.278Z" fill="black"/>
<path d="M161.497 201.545C161.307 201.872 160.952 202.07 160.476 202.07C160.074 202.07 159.801 201.961 159.617 201.777C159.372 201.525 159.297 201.123 159.297 200.667V198.712H160.169V200.476C160.169 200.966 160.251 201.355 160.755 201.355C161.279 201.355 161.477 200.939 161.477 200.387V198.712H162.349V202.009H161.504L161.497 201.545Z" fill="black"/>
<path d="M158.657 201.552C158.473 201.743 157.976 202.083 157.172 202.083C156.178 202.083 155.442 201.477 155.442 200.415C155.442 199.359 156.212 198.651 157.152 198.651C158.167 198.651 158.78 199.318 158.78 200.197C158.78 200.367 158.766 200.639 158.766 200.639H156.341C156.423 201.164 156.825 201.416 157.322 201.416C157.765 201.416 158.16 201.218 158.317 201.082L158.657 201.552ZM157.908 200.074C157.894 199.713 157.758 199.298 157.145 199.298C156.628 199.298 156.355 199.659 156.328 200.074H157.908Z" fill="black"/>
<path d="M151.693 198.712H152.599L153.491 201.089L154.384 198.712H155.256L153.9 202.009H153.049L151.693 198.712Z" fill="black"/>
<path d="M150.044 201.552C149.86 201.743 149.363 202.083 148.559 202.083C147.565 202.083 146.829 201.477 146.829 200.415C146.829 199.359 147.599 198.651 148.539 198.651C149.554 198.651 150.167 199.318 150.167 200.197C150.167 200.367 150.153 200.639 150.153 200.639H147.728C147.81 201.164 148.212 201.416 148.709 201.416C149.152 201.416 149.547 201.218 149.703 201.082L150.044 201.552ZM149.295 200.074C149.281 199.713 149.145 199.298 148.532 199.298C148.014 199.298 147.742 199.659 147.715 200.074H149.295Z" fill="black"/>
<path d="M145.394 201.545C145.204 201.872 144.849 202.07 144.373 202.07C143.971 202.07 143.698 201.961 143.514 201.777C143.269 201.525 143.194 201.123 143.194 200.667V198.712H144.066V200.476C144.066 200.966 144.148 201.355 144.652 201.355C145.176 201.355 145.374 200.939 145.374 200.387V198.712H146.246V202.009H145.401L145.394 201.545Z" fill="black"/>
<path d="M140.169 202.09C138.814 202.09 137.71 201.178 137.71 199.665C137.71 198.153 138.814 197.241 140.169 197.241C141.531 197.241 142.628 198.153 142.628 199.665C142.628 200.333 142.369 200.926 141.947 201.355L142.499 201.968L141.94 202.451L141.361 201.797C141.007 201.988 140.598 202.09 140.169 202.09ZM140.169 201.314C140.408 201.314 140.626 201.266 140.823 201.184L140.292 200.578L140.844 200.101L141.388 200.721C141.6 200.435 141.715 200.067 141.715 199.659C141.715 198.637 141.041 198.01 140.169 198.01C139.297 198.01 138.623 198.637 138.623 199.659C138.623 200.68 139.304 201.314 140.169 201.314Z" fill="black"/>
<rect x="128.138" y="215.854" width="50.813" height="22.7642" rx="4.87805" fill="#A4CEFF"/>
<path d="M167.251 228.739C167.188 228.795 166.874 229.147 166.063 229.147C165.233 229.147 164.466 228.575 164.466 227.582C164.466 226.582 165.258 225.979 166.075 225.979C166.842 225.979 167.144 226.287 167.226 226.369L167.006 226.972C166.912 226.884 166.641 226.651 166.17 226.651C165.692 226.651 165.308 226.985 165.308 227.544C165.308 228.104 165.692 228.468 166.214 228.468C166.735 228.468 167.025 228.148 167.025 228.148L167.251 228.739Z" fill="#1E2E46"/>
<path d="M162.408 226.035H163.206L163.194 226.526H163.212C163.332 226.199 163.634 225.979 163.961 225.979C164.168 225.979 164.281 226.035 164.281 226.035L164.225 226.733H164.187C164.099 226.708 163.961 226.695 163.854 226.695C163.615 226.695 163.426 226.796 163.319 226.991C163.238 227.142 163.206 227.349 163.206 227.582V229.078H162.408V226.035Z" fill="#1E2E46"/>
<path d="M160.932 228.726C160.807 228.946 160.455 229.147 160.002 229.147C159.411 229.147 158.933 228.827 158.933 228.192C158.933 227.557 159.556 227.312 160.184 227.268L160.914 227.217V227.136C160.914 226.746 160.656 226.563 160.235 226.563C159.832 226.563 159.499 226.714 159.367 226.815L159.122 226.299C159.354 226.161 159.782 225.979 160.31 225.979C160.851 225.979 161.159 226.117 161.385 226.331C161.605 226.545 161.718 226.821 161.718 227.337V229.078H160.945L160.932 228.726ZM160.373 227.739C159.945 227.764 159.738 227.909 159.738 228.167C159.738 228.424 159.933 228.6 160.266 228.6C160.58 228.6 160.813 228.418 160.92 228.267V227.708L160.373 227.739Z" fill="#1E2E46"/>
<path d="M155.335 226.035H156.152L156.14 226.482C156.385 226.117 156.762 225.966 157.165 225.966C158.057 225.966 158.604 226.658 158.604 227.563C158.604 228.424 158.032 229.135 157.108 229.135C156.643 229.135 156.379 228.971 156.127 228.67C156.133 228.858 156.127 229.053 156.127 229.242V230.229H155.335V226.035ZM156.963 228.519C157.485 228.519 157.787 228.072 157.787 227.563C157.787 227.035 157.46 226.62 156.938 226.62C156.454 226.62 156.115 226.991 156.115 227.563C156.115 228.072 156.448 228.519 156.963 228.519Z" fill="#1E2E46"/>
<path d="M152.544 228.651C152.368 228.953 152.041 229.135 151.601 229.135C151.23 229.135 150.979 229.034 150.809 228.865C150.583 228.632 150.514 228.261 150.514 227.84V226.035H151.318V227.664C151.318 228.116 151.394 228.475 151.859 228.475C152.343 228.475 152.526 228.091 152.526 227.582V226.035H153.33V229.078H152.551L152.544 228.651Z" fill="#1E2E46"/>
<path d="M149.095 228.726C148.969 228.946 148.617 229.147 148.165 229.147C147.574 229.147 147.096 228.827 147.096 228.192C147.096 227.557 147.718 227.312 148.347 227.268L149.076 227.217V227.136C149.076 226.746 148.818 226.563 148.397 226.563C147.995 226.563 147.662 226.714 147.53 226.815L147.284 226.299C147.517 226.161 147.944 225.979 148.473 225.979C149.013 225.979 149.321 226.117 149.548 226.331C149.768 226.545 149.881 226.821 149.881 227.337V229.078H149.108L149.095 228.726ZM148.535 227.739C148.108 227.764 147.9 227.909 147.9 228.167C147.9 228.424 148.095 228.6 148.429 228.6C148.743 228.6 148.976 228.418 149.082 228.267V227.708L148.535 227.739Z" fill="#1E2E46"/>
<path d="M144.218 228.682C144.218 228.387 144.425 228.211 144.727 228.211C145.016 228.211 145.23 228.387 145.23 228.682C145.23 228.971 145.016 229.147 144.727 229.147C144.425 229.147 144.218 228.971 144.218 228.682Z" fill="#1E2E46"/>
<path d="M141.25 224.734H142.042L143.746 229.078H142.853L142.476 228.079H140.772L140.395 229.078H139.546L141.25 224.734ZM142.275 227.425L141.627 225.671L140.974 227.425H142.275Z" fill="#1E2E46"/>
<rect x="193.992" y="215.854" width="50.813" height="22.7642" rx="4.87805" fill="#A4CEFF"/>
<path d="M234.126 228.478C234.484 228.755 234.792 228.893 235.05 228.893C235.352 228.893 235.49 228.78 235.49 228.604C235.49 228.447 235.371 228.359 234.981 228.227L234.629 228.107C234.176 227.956 233.943 227.686 233.943 227.24C233.943 226.686 234.446 226.328 235.031 226.328C235.572 226.328 235.874 226.473 236.125 226.655L235.779 227.189C235.603 227.057 235.345 226.932 235.069 226.932C234.805 226.932 234.673 227.032 234.673 227.177C234.673 227.309 234.773 227.416 235.113 227.523L235.327 227.592C235.999 227.812 236.238 228.051 236.238 228.491C236.238 229.069 235.779 229.497 235.031 229.497C234.566 229.497 234.044 229.308 233.799 229.025L234.126 228.478Z" fill="#1E2E46"/>
<path d="M230.476 226.385H231.281L231.275 226.881C231.457 226.492 231.809 226.328 232.205 226.328C233.079 226.328 233.299 226.894 233.299 227.623V229.428H232.494V227.799C232.494 227.347 232.413 226.988 231.947 226.988C231.451 226.988 231.281 227.403 231.281 227.912V229.428H230.476V226.385Z" fill="#1E2E46"/>
<path d="M228.823 225.454C228.823 225.196 229.024 225.008 229.307 225.008C229.59 225.008 229.791 225.196 229.791 225.454C229.791 225.718 229.59 225.901 229.307 225.901C229.024 225.901 228.823 225.718 228.823 225.454ZM228.905 226.385H229.71V229.428H228.905V226.385Z" fill="#1E2E46"/>
<path d="M226.266 228.478C226.625 228.755 226.933 228.893 227.191 228.893C227.492 228.893 227.631 228.78 227.631 228.604C227.631 228.447 227.511 228.359 227.121 228.227L226.769 228.107C226.317 227.956 226.084 227.686 226.084 227.24C226.084 226.686 226.587 226.328 227.172 226.328C227.712 226.328 228.014 226.473 228.266 226.655L227.92 227.189C227.744 227.057 227.486 226.932 227.209 226.932C226.945 226.932 226.813 227.032 226.813 227.177C226.813 227.309 226.914 227.416 227.253 227.523L227.467 227.592C228.14 227.812 228.379 228.051 228.379 228.491C228.379 229.069 227.92 229.497 227.172 229.497C226.706 229.497 226.185 229.308 225.939 229.025L226.266 228.478Z" fill="#1E2E46"/>
<path d="M224.691 229.076C224.565 229.296 224.213 229.497 223.76 229.497C223.169 229.497 222.691 229.176 222.691 228.541C222.691 227.906 223.314 227.661 223.943 227.617L224.672 227.567V227.485C224.672 227.095 224.414 226.913 223.993 226.913C223.59 226.913 223.257 227.064 223.125 227.164L222.88 226.649C223.113 226.51 223.54 226.328 224.068 226.328C224.609 226.328 224.917 226.466 225.143 226.68C225.363 226.894 225.477 227.171 225.477 227.686V229.428H224.703L224.691 229.076ZM224.131 228.088C223.704 228.114 223.496 228.258 223.496 228.516C223.496 228.774 223.691 228.95 224.024 228.95C224.339 228.95 224.571 228.767 224.678 228.617V228.057L224.131 228.088Z" fill="#1E2E46"/>
<path d="M222.167 228.799C222.167 229.465 222.029 229.843 221.771 230.113C221.507 230.39 221.117 230.647 220.388 230.647C219.665 230.647 219.124 230.302 218.973 230.195L219.307 229.635C219.502 229.773 219.998 229.993 220.388 229.993C220.822 229.993 221.048 229.855 221.161 229.723C221.275 229.591 221.369 229.34 221.369 229V228.843C221.149 229.164 220.784 229.327 220.338 229.327C219.564 229.327 218.898 228.83 218.898 227.894C218.898 227.032 219.47 226.328 220.394 226.328C220.803 226.328 221.155 226.479 221.375 226.818C221.369 226.68 221.369 226.498 221.369 226.416V226.385H222.167V228.799ZM220.564 228.698C221.124 228.698 221.413 228.315 221.413 227.837C221.413 227.409 221.086 226.963 220.539 226.963C220.03 226.963 219.715 227.359 219.715 227.837C219.715 228.315 220.017 228.698 220.564 228.698Z" fill="#1E2E46"/>
<path d="M217.612 229.076C217.486 229.296 217.134 229.497 216.681 229.497C216.09 229.497 215.612 229.176 215.612 228.541C215.612 227.906 216.235 227.661 216.863 227.617L217.593 227.567V227.485C217.593 227.095 217.335 226.913 216.914 226.913C216.511 226.913 216.178 227.064 216.046 227.164L215.801 226.649C216.034 226.51 216.461 226.328 216.989 226.328C217.53 226.328 217.838 226.466 218.064 226.68C218.284 226.894 218.398 227.171 218.398 227.686V229.428H217.624L217.612 229.076ZM217.052 228.088C216.625 228.114 216.417 228.258 216.417 228.516C216.417 228.774 216.612 228.95 216.945 228.95C217.26 228.95 217.492 228.767 217.599 228.617V228.057L217.052 228.088Z" fill="#1E2E46"/>
<path d="M210.607 225.089H211.683L212.732 228.202H212.745L213.808 225.089H214.845L215.216 229.428H214.411L214.16 226.152H214.147L212.99 229.446H212.418L211.286 226.152H211.268L211.035 229.428H210.249L210.607 225.089Z" fill="#1E2E46"/>
<path d="M207.239 229.032C207.239 228.736 207.447 228.56 207.749 228.56C208.038 228.56 208.251 228.736 208.251 229.032C208.251 229.321 208.038 229.497 207.749 229.497C207.447 229.497 207.239 229.321 207.239 229.032Z" fill="#1E2E46"/>
<path d="M204.778 225.089C205.13 225.089 205.457 225.121 205.74 225.259C206.08 225.423 206.3 225.687 206.3 226.127C206.3 226.712 205.91 227.02 205.627 227.133V227.145C206.186 227.271 206.557 227.636 206.557 228.22C206.557 228.661 206.337 229 206.042 229.189C205.772 229.358 205.388 229.428 204.973 229.428H203.389V225.089H204.778ZM204.715 226.9C204.942 226.9 205.099 226.875 205.231 226.793C205.382 226.699 205.47 226.548 205.47 226.315C205.47 226.114 205.401 225.976 205.281 225.882C205.149 225.781 204.967 225.731 204.753 225.731H204.206V226.9H204.715ZM204.91 228.786C205.118 228.786 205.319 228.78 205.47 228.679C205.633 228.573 205.728 228.378 205.728 228.151C205.728 227.912 205.621 227.749 205.457 227.636C205.294 227.523 205.124 227.497 204.872 227.497H204.206V228.786H204.91Z" fill="#1E2E46"/>
<rect x="259.846" y="216.26" width="65.0406" height="22.7642" rx="4.87805" fill="#A4CEFF"/>
<path d="M315.721 233.372C315.551 233.549 315.092 233.863 314.35 233.863C313.432 233.863 312.753 233.303 312.753 232.323C312.753 231.348 313.464 230.694 314.332 230.694C315.268 230.694 315.834 231.31 315.834 232.121C315.834 232.279 315.822 232.53 315.822 232.53H313.583C313.659 233.014 314.03 233.247 314.489 233.247C314.897 233.247 315.262 233.064 315.407 232.939L315.721 233.372ZM315.029 232.008C315.017 231.675 314.891 231.291 314.325 231.291C313.847 231.291 313.596 231.625 313.571 232.008H315.029Z" fill="#1E2E46"/>
<path d="M311.429 233.366C311.253 233.668 310.926 233.85 310.486 233.85C310.115 233.85 309.864 233.75 309.694 233.58C309.468 233.347 309.398 232.976 309.398 232.555V230.751H310.203V232.379C310.203 232.832 310.279 233.19 310.744 233.19C311.228 233.19 311.41 232.807 311.41 232.297V230.751H312.215V233.794H311.435L311.429 233.366Z" fill="#1E2E46"/>
<path d="M307.912 234.951C307.912 234.793 307.912 233.523 307.918 233.36C307.686 233.687 307.296 233.863 306.875 233.863C305.982 233.863 305.435 233.171 305.435 232.266C305.435 231.405 306.007 230.694 306.931 230.694C307.34 230.694 307.698 230.845 307.912 231.172C307.906 231.034 307.906 230.864 307.906 230.782V230.751H308.704V234.951H307.912ZM307.101 233.209C307.585 233.209 307.925 232.838 307.925 232.266C307.925 231.757 307.592 231.31 307.076 231.31C306.554 231.31 306.252 231.757 306.252 232.266C306.252 232.794 306.579 233.209 307.101 233.209Z" fill="#1E2E46"/>
<path d="M303.971 229.82C303.971 229.562 304.172 229.374 304.455 229.374C304.738 229.374 304.939 229.562 304.939 229.82C304.939 230.084 304.738 230.267 304.455 230.267C304.172 230.267 303.971 230.084 303.971 229.82ZM304.052 230.751H304.857V233.794H304.052V230.751Z" fill="#1E2E46"/>
<path d="M303.562 233.762C303.525 233.775 303.286 233.863 302.946 233.863C302.644 233.863 302.424 233.8 302.286 233.643C302.129 233.473 302.066 233.203 302.066 232.788V231.379H301.613V230.757H302.066V229.889H302.864V230.757H303.569V231.379H302.864V232.612C302.864 232.857 302.883 233.002 302.946 233.09C302.996 233.165 303.091 233.19 303.229 233.19C303.393 233.19 303.518 233.14 303.518 233.14L303.562 233.762Z" fill="#1E2E46"/>
<path d="M300.452 233.442C300.327 233.662 299.975 233.863 299.522 233.863C298.931 233.863 298.453 233.542 298.453 232.907C298.453 232.272 299.076 232.027 299.704 231.983L300.434 231.933V231.851C300.434 231.461 300.176 231.279 299.755 231.279C299.352 231.279 299.019 231.43 298.887 231.53L298.642 231.015C298.874 230.876 299.302 230.694 299.83 230.694C300.371 230.694 300.679 230.832 300.905 231.046C301.125 231.26 301.238 231.537 301.238 232.052V233.794H300.465L300.452 233.442ZM299.893 232.455C299.465 232.48 299.258 232.624 299.258 232.882C299.258 233.14 299.453 233.316 299.786 233.316C300.1 233.316 300.333 233.134 300.44 232.983V232.423L299.893 232.455Z" fill="#1E2E46"/>
<path d="M293.375 230.751H294.18L294.173 231.21H294.192C294.331 230.927 294.702 230.694 295.098 230.694C295.538 230.694 295.802 230.87 295.946 231.273C296.16 230.902 296.506 230.694 296.946 230.694C297.745 230.694 297.965 231.26 297.965 231.958V233.794H297.16V232.09C297.16 231.719 297.078 231.354 296.682 231.354C296.28 231.354 296.072 231.7 296.072 232.222V233.794H295.267V232.084C295.267 231.669 295.161 231.354 294.777 231.354C294.362 231.354 294.18 231.744 294.18 232.222V233.794H293.375V230.751Z" fill="#1E2E46"/>
<path d="M289.521 232.285C289.521 231.323 290.237 230.694 291.174 230.694C292.105 230.694 292.821 231.323 292.821 232.285C292.821 233.247 292.105 233.863 291.174 233.863C290.237 233.863 289.521 233.247 289.521 232.285ZM291.174 233.196C291.69 233.196 291.991 232.788 291.991 232.266C291.991 231.744 291.69 231.342 291.174 231.342C290.646 231.342 290.357 231.744 290.357 232.266C290.357 232.788 290.646 233.196 291.174 233.196Z" fill="#1E2E46"/>
<path d="M289.244 233.762C289.207 233.775 288.968 233.863 288.628 233.863C288.327 233.863 288.106 233.8 287.968 233.643C287.811 233.473 287.748 233.203 287.748 232.788V231.379H287.295V230.757H287.748V229.889H288.547V230.757H289.251V231.379H288.547V232.612C288.547 232.857 288.565 233.002 288.628 233.09C288.679 233.165 288.773 233.19 288.911 233.19C289.075 233.19 289.2 233.14 289.2 233.14L289.244 233.762Z" fill="#1E2E46"/>
<path d="M286.084 233.366C285.908 233.668 285.581 233.85 285.141 233.85C284.77 233.85 284.518 233.75 284.349 233.58C284.122 233.347 284.053 232.976 284.053 232.555V230.751H284.858V232.379C284.858 232.832 284.933 233.19 285.399 233.19C285.883 233.19 286.065 232.807 286.065 232.297V230.751H286.87V233.794H286.09L286.084 233.366Z" fill="#1E2E46"/>
<path d="M282.635 233.442C282.509 233.662 282.157 233.863 281.704 233.863C281.113 233.863 280.635 233.542 280.635 232.907C280.635 232.272 281.258 232.027 281.886 231.983L282.616 231.933V231.851C282.616 231.461 282.358 231.279 281.937 231.279C281.534 231.279 281.201 231.43 281.069 231.53L280.824 231.015C281.056 230.876 281.484 230.694 282.012 230.694C282.553 230.694 282.861 230.832 283.087 231.046C283.307 231.26 283.42 231.537 283.42 232.052V233.794H282.647L282.635 233.442ZM282.075 232.455C281.647 232.48 281.44 232.624 281.44 232.882C281.44 233.14 281.635 233.316 281.968 233.316C282.282 233.316 282.515 233.134 282.622 232.983V232.423L282.075 232.455Z" fill="#1E2E46"/>
<path d="M304.411 225.164C304.242 225.34 303.783 225.655 303.041 225.655C302.123 225.655 301.444 225.095 301.444 224.114C301.444 223.14 302.154 222.486 303.022 222.486C303.959 222.486 304.525 223.102 304.525 223.913C304.525 224.07 304.512 224.322 304.512 224.322H302.274C302.349 224.806 302.72 225.038 303.179 225.038C303.588 225.038 303.952 224.856 304.097 224.73L304.411 225.164ZM303.72 223.8C303.707 223.467 303.581 223.083 303.016 223.083C302.538 223.083 302.286 223.416 302.261 223.8H303.72Z" fill="#1E2E46"/>
<path d="M299.032 224.636C299.39 224.913 299.698 225.051 299.956 225.051C300.258 225.051 300.396 224.938 300.396 224.762C300.396 224.605 300.277 224.517 299.887 224.385L299.535 224.265C299.082 224.114 298.85 223.844 298.85 223.398C298.85 222.844 299.353 222.486 299.937 222.486C300.478 222.486 300.78 222.63 301.031 222.813L300.686 223.347C300.509 223.215 300.252 223.089 299.975 223.089C299.711 223.089 299.579 223.19 299.579 223.335C299.579 223.467 299.68 223.574 300.019 223.68L300.233 223.75C300.906 223.97 301.145 224.209 301.145 224.649C301.145 225.227 300.686 225.655 299.937 225.655C299.472 225.655 298.95 225.466 298.705 225.183L299.032 224.636Z" fill="#1E2E46"/>
<path d="M295.383 222.542H296.188L296.181 223.039C296.364 222.649 296.716 222.486 297.112 222.486C297.986 222.486 298.206 223.052 298.206 223.781V225.585H297.401V223.957C297.401 223.504 297.319 223.146 296.854 223.146C296.357 223.146 296.188 223.561 296.188 224.07V225.585H295.383V222.542Z" fill="#1E2E46"/>
<path d="M291.528 224.077C291.528 223.115 292.245 222.486 293.182 222.486C294.112 222.486 294.829 223.115 294.829 224.077C294.829 225.038 294.112 225.655 293.182 225.655C292.245 225.655 291.528 225.038 291.528 224.077ZM293.182 224.988C293.697 224.988 293.999 224.58 293.999 224.058C293.999 223.536 293.697 223.133 293.182 223.133C292.654 223.133 292.365 223.536 292.365 224.058C292.365 224.58 292.654 224.988 293.182 224.988Z" fill="#1E2E46"/>
<path d="M287.886 222.542H288.704L288.691 222.989C288.936 222.624 289.313 222.473 289.716 222.473C290.609 222.473 291.156 223.165 291.156 224.07C291.156 224.932 290.583 225.642 289.659 225.642C289.194 225.642 288.93 225.479 288.678 225.177C288.685 225.365 288.678 225.56 288.678 225.749V226.736H287.886V222.542ZM289.515 225.026C290.036 225.026 290.338 224.58 290.338 224.07C290.338 223.542 290.011 223.127 289.489 223.127C289.005 223.127 288.666 223.498 288.666 224.07C288.666 224.58 288.999 225.026 289.515 225.026Z" fill="#1E2E46"/>
<path d="M285.944 221.247H286.673L286 222.159H285.416L285.944 221.247ZM287.22 225.164C287.05 225.34 286.591 225.655 285.849 225.655C284.931 225.655 284.252 225.095 284.252 224.114C284.252 223.14 284.963 222.486 285.831 222.486C286.767 222.486 287.333 223.102 287.333 223.913C287.333 224.07 287.321 224.322 287.321 224.322H285.082C285.158 224.806 285.529 225.038 285.988 225.038C286.396 225.038 286.761 224.856 286.906 224.73L287.22 225.164ZM286.528 223.8C286.516 223.467 286.39 223.083 285.824 223.083C285.346 223.083 285.095 223.416 285.07 223.8H286.528Z" fill="#1E2E46"/>
<path d="M282.326 221.247C282.785 221.247 283.15 221.348 283.42 221.555C283.691 221.763 283.886 222.096 283.886 222.511C283.886 222.895 283.779 223.165 283.603 223.353C283.433 223.536 283.207 223.649 282.949 223.724L284.118 225.585H283.163L282.138 223.825H281.748V225.585H280.931V221.247H282.326ZM282.169 223.184C282.433 223.184 282.634 223.165 282.792 223.045C282.955 222.926 283.043 222.781 283.043 222.536C283.043 222.297 282.955 222.14 282.792 222.027C282.634 221.907 282.433 221.889 282.169 221.889H281.742V223.184H282.169Z" fill="#1E2E46"/>
<path d="M271.31 229.774C271.31 229.478 271.518 229.302 271.819 229.302C272.109 229.302 272.322 229.478 272.322 229.774C272.322 230.063 272.109 230.239 271.819 230.239C271.518 230.239 271.31 230.063 271.31 229.774Z" fill="#1E2E46"/>
<path d="M270.724 229.629C270.479 229.893 270.007 230.245 269.152 230.245C267.882 230.245 266.901 229.384 266.901 228.007C266.901 226.63 267.895 225.769 269.152 225.769C270.001 225.769 270.491 226.127 270.667 226.303L270.378 226.97C270.252 226.806 269.762 226.473 269.146 226.473C268.391 226.473 267.744 226.97 267.744 227.994C267.744 228.931 268.329 229.541 269.196 229.541C269.775 229.541 270.177 229.29 270.435 229.013L270.724 229.629Z" fill="#1E2E46"/>
<rect x="1" width="351" height="248" fill="#192F48" fill-opacity="0.4"/>
<g clip-path="url(#clip1_98_9708)">
<rect x="61.5" y="97.4207" width="229" height="56" rx="8" fill="#43EC72"/>
<g clip-path="url(#clip2_98_9708)">
<path d="M94.1556 120.193C93.4834 119.072 92.2884 118.325 90.944 118.325H81.9813C80.6369 118.325 79.4419 119.072 78.7697 120.193C77.9481 121.686 77.5 123.33 77.5 125.047C77.5 129.155 79.1432 132.516 81.2344 132.516C82.3548 132.516 83.251 131.471 83.9232 129.305C83.9979 129.006 84.2967 128.782 84.6701 128.782H88.3299C88.6286 128.782 88.9274 129.006 89.0768 129.305C89.749 131.471 90.6452 132.516 91.7656 132.516C93.8568 132.516 95.5 129.155 95.5 125.047C95.4253 123.33 94.9772 121.686 94.1556 120.193ZM91.6909 131.022C91.4668 131.022 90.944 130.425 90.4212 128.856C90.1224 127.886 89.2261 127.288 88.2552 127.288H84.6701C83.6992 127.288 82.8029 127.96 82.5041 128.856C81.9813 130.425 81.4585 131.022 81.2344 131.022C80.4875 131.022 78.9938 128.707 78.9938 125.047C78.9938 123.628 79.3672 122.209 80.0394 120.939C80.4876 120.267 81.2345 119.819 81.9814 119.819H90.944C91.6909 119.819 92.4378 120.267 92.886 120.939C93.5581 122.209 93.9316 123.628 93.9316 125.047C93.9315 128.707 92.4378 131.022 91.6909 131.022Z" fill="#192F48"/>
<path d="M84.2499 123.171H83.5V122.421C83.5 121.971 83.2 121.671 82.75 121.671C82.3 121.671 82 121.971 82 122.421V123.171H81.25C80.8 123.171 80.5 123.471 80.5 123.921C80.5 124.371 80.8 124.671 81.25 124.671H81.9999V125.421C81.9999 125.871 82.2999 126.171 82.7499 126.171C83.1999 126.171 83.4999 125.871 83.4999 125.421V124.671H84.2499C84.6999 124.671 84.9999 124.371 84.9999 123.921C84.9999 123.471 84.6999 123.171 84.2499 123.171Z" fill="#192F48"/>
<path d="M91.375 123.921C91.9963 123.921 92.5 123.417 92.5 122.796C92.5 122.174 91.9963 121.671 91.375 121.671C90.7537 121.671 90.25 122.174 90.25 122.796C90.25 123.417 90.7537 123.921 91.375 123.921Z" fill="#192F48"/>
<path d="M89.125 126.171C89.7463 126.171 90.25 125.667 90.25 125.046C90.25 124.424 89.7463 123.921 89.125 123.921C88.5037 123.921 88 124.424 88 125.046C88 125.667 88.5037 126.171 89.125 126.171Z" fill="#192F48"/>
</g>
<path d="M114.068 129.045C113.444 129.717 112.244 130.613 110.068 130.613C106.836 130.613 104.34 128.421 104.34 124.917C104.34 121.413 106.868 119.221 110.068 119.221C112.228 119.221 113.476 120.133 113.924 120.581L113.188 122.277C112.868 121.861 111.62 121.013 110.052 121.013C108.132 121.013 106.484 122.277 106.484 124.885C106.484 127.269 107.972 128.821 110.18 128.821C111.652 128.821 112.676 128.181 113.332 127.477L114.068 129.045ZM114.808 126.581C114.808 124.133 116.632 122.533 119.016 122.533C121.384 122.533 123.208 124.133 123.208 126.581C123.208 129.029 121.384 130.597 119.016 130.597C116.632 130.597 114.808 129.029 114.808 126.581ZM119.016 128.901C120.328 128.901 121.096 127.861 121.096 126.533C121.096 125.205 120.328 124.181 119.016 124.181C117.672 124.181 116.936 125.205 116.936 126.533C116.936 127.861 117.672 128.901 119.016 128.901ZM124.616 122.677H126.664L126.648 123.845H126.696C127.048 123.125 127.992 122.533 129 122.533C130.12 122.533 130.792 122.981 131.16 124.005C131.704 123.061 132.584 122.533 133.704 122.533C135.736 122.533 136.296 123.973 136.296 125.749V130.421H134.248V126.085C134.248 125.141 134.04 124.213 133.032 124.213C132.008 124.213 131.48 125.093 131.48 126.421V130.421H129.432V126.069C129.432 125.013 129.16 124.213 128.184 124.213C127.128 124.213 126.664 125.205 126.664 126.421V130.421H124.616V122.677ZM138.132 122.677H140.18L140.164 123.845H140.212C140.564 123.125 141.508 122.533 142.516 122.533C143.636 122.533 144.308 122.981 144.676 124.005C145.22 123.061 146.1 122.533 147.22 122.533C149.252 122.533 149.812 123.973 149.812 125.749V130.421H147.764V126.085C147.764 125.141 147.556 124.213 146.548 124.213C145.524 124.213 144.996 125.093 144.996 126.421V130.421H142.948V126.069C142.948 125.013 142.676 124.213 141.7 124.213C140.644 124.213 140.18 125.205 140.18 126.421V130.421H138.132V122.677ZM158.687 129.349C158.255 129.797 157.087 130.597 155.199 130.597C152.863 130.597 151.135 129.173 151.135 126.677C151.135 124.197 152.943 122.533 155.151 122.533C157.535 122.533 158.975 124.101 158.975 126.165C158.975 126.565 158.943 127.205 158.943 127.205H153.247C153.439 128.437 154.383 129.029 155.551 129.029C156.591 129.029 157.519 128.565 157.887 128.245L158.687 129.349ZM156.927 125.877C156.895 125.029 156.575 124.053 155.135 124.053C153.919 124.053 153.279 124.901 153.215 125.877H156.927ZM160.335 122.677H162.383L162.367 123.941C162.831 122.949 163.727 122.533 164.735 122.533C166.959 122.533 167.519 123.973 167.519 125.829V130.421H165.471V126.277C165.471 125.125 165.263 124.213 164.079 124.213C162.815 124.213 162.383 125.269 162.383 126.565V130.421H160.335V122.677ZM175.91 129.557C175.75 129.701 174.95 130.597 172.886 130.597C170.774 130.597 168.822 129.141 168.822 126.613C168.822 124.069 170.838 122.533 172.918 122.533C174.87 122.533 175.638 123.317 175.846 123.525L175.286 125.061C175.046 124.837 174.358 124.245 173.158 124.245C171.942 124.245 170.966 125.093 170.966 126.517C170.966 127.941 171.942 128.869 173.27 128.869C174.598 128.869 175.334 128.053 175.334 128.053L175.91 129.557ZM184.047 129.349C183.615 129.797 182.447 130.597 180.559 130.597C178.223 130.597 176.495 129.173 176.495 126.677C176.495 124.197 178.303 122.533 180.511 122.533C182.895 122.533 184.335 124.101 184.335 126.165C184.335 126.565 184.303 127.205 184.303 127.205H178.607C178.799 128.437 179.743 129.029 180.911 129.029C181.951 129.029 182.879 128.565 183.247 128.245L184.047 129.349ZM182.287 125.877C182.255 125.029 181.935 124.053 180.495 124.053C179.279 124.053 178.639 124.901 178.575 125.877H182.287ZM185.694 122.677H187.726L187.694 123.925H187.742C188.046 123.093 188.814 122.533 189.646 122.533C190.174 122.533 190.462 122.677 190.462 122.677L190.318 124.453H190.222C189.998 124.389 189.646 124.357 189.374 124.357C188.766 124.357 188.286 124.613 188.014 125.109C187.806 125.493 187.726 126.021 187.726 126.613V130.421H185.694V122.677ZM194.727 119.381H196.759V130.421H194.727V119.381ZM199.941 119.381H201.957L200.437 123.093H198.773L199.941 119.381ZM208.549 129.525C208.229 130.085 207.333 130.597 206.181 130.597C204.677 130.597 203.461 129.781 203.461 128.165C203.461 126.549 205.045 125.925 206.645 125.813L208.501 125.685V125.477C208.501 124.485 207.845 124.021 206.773 124.021C205.749 124.021 204.901 124.405 204.565 124.661L203.941 123.349C204.533 122.997 205.621 122.533 206.965 122.533C208.341 122.533 209.125 122.885 209.701 123.429C210.261 123.973 210.549 124.677 210.549 125.989V130.421H208.581L208.549 129.525ZM207.125 127.013C206.037 127.077 205.509 127.445 205.509 128.101C205.509 128.757 206.005 129.205 206.853 129.205C207.653 129.205 208.245 128.741 208.517 128.357V126.933L207.125 127.013ZM211.359 122.677H213.487L215.583 128.261L217.679 122.677H219.727L216.543 130.421H214.543L211.359 122.677ZM227.718 129.349C227.286 129.797 226.118 130.597 224.23 130.597C221.894 130.597 220.166 129.173 220.166 126.677C220.166 124.197 221.974 122.533 224.182 122.533C226.566 122.533 228.006 124.101 228.006 126.165C228.006 126.565 227.974 127.205 227.974 127.205H222.278C222.47 128.437 223.414 129.029 224.582 129.029C225.622 129.029 226.55 128.565 226.918 128.245L227.718 129.349ZM225.958 125.877C225.926 125.029 225.606 124.053 224.166 124.053C222.95 124.053 222.31 124.901 222.246 125.877H225.958ZM229.366 122.677H231.414L231.398 123.941C231.862 122.949 232.758 122.533 233.766 122.533C235.99 122.533 236.55 123.973 236.55 125.829V130.421H234.502V126.277C234.502 125.125 234.294 124.213 233.11 124.213C231.846 124.213 231.414 125.269 231.414 126.565V130.421H229.366V122.677ZM242.557 130.341C242.461 130.373 241.853 130.597 240.989 130.597C240.221 130.597 239.661 130.437 239.309 130.037C238.909 129.605 238.749 128.917 238.749 127.861V124.277H237.597V122.693H238.749V120.485H240.781V122.693H242.573V124.277H240.781V127.413C240.781 128.037 240.829 128.405 240.989 128.629C241.117 128.821 241.357 128.885 241.709 128.885C242.125 128.885 242.445 128.757 242.445 128.757L242.557 130.341ZM248.765 129.333C248.317 130.101 247.485 130.565 246.365 130.565C245.421 130.565 244.781 130.309 244.349 129.877C243.773 129.285 243.597 128.341 243.597 127.269V122.677H245.645V126.821C245.645 127.973 245.837 128.885 247.021 128.885C248.253 128.885 248.717 127.909 248.717 126.613V122.677H250.765V130.421H248.781L248.765 129.333ZM252.647 122.677H254.679L254.647 123.925H254.695C254.999 123.093 255.767 122.533 256.599 122.533C257.127 122.533 257.415 122.677 257.415 122.677L257.271 124.453H257.175C256.951 124.389 256.599 124.357 256.327 124.357C255.719 124.357 255.239 124.613 254.967 125.109C254.759 125.493 254.679 126.021 254.679 126.613V130.421H252.647V122.677ZM265.468 129.349C265.036 129.797 263.868 130.597 261.98 130.597C259.644 130.597 257.916 129.173 257.916 126.677C257.916 124.197 259.724 122.533 261.932 122.533C264.316 122.533 265.756 124.101 265.756 126.165C265.756 126.565 265.724 127.205 265.724 127.205H260.028C260.22 128.437 261.164 129.029 262.332 129.029C263.372 129.029 264.3 128.565 264.668 128.245L265.468 129.349ZM263.708 125.877C263.676 125.029 263.356 124.053 261.916 124.053C260.7 124.053 260.06 124.901 259.996 125.877H263.708Z" fill="#192F48"/>
</g>
</g>
<rect x="2.5" y="2.5" width="346" height="245" rx="17.5" stroke="#F2F9FF" stroke-width="5"/>
<defs>
<clipPath id="clip0_98_9708">
<rect width="351" height="250" rx="20" fill="white"/>
</clipPath>
<clipPath id="clip1_98_9708">
<rect x="61.5" y="97.4207" width="229" height="56" rx="8" fill="white"/>
</clipPath>
<clipPath id="clip2_98_9708">
<rect width="18" height="18" fill="white" transform="translate(77.5 116.421)"/>
</clipPath>
</defs>
</svg>
