<svg width="310" height="103" viewBox="0 0 310 103" fill="none" xmlns="http://www.w3.org/2000/svg">
<path d="M148.614 71.9471C153.26 71.9471 156.835 69.7143 156.835 65.6005C156.835 61.4867 152.269 59.809 149.597 58.8049L141.016 55.5851C133.321 52.6999 128.061 48.0268 128.061 38.9561C128.061 26.2123 139.488 20.5394 150.757 20.5394C157.906 20.5394 166.127 23.9372 170.328 28.1357L164.162 38.2359C160.587 34.6602 155.048 31.9784 150.402 31.9784C145.756 31.9784 142.359 33.7662 142.359 37.5199C142.359 41.2736 145.688 42.6463 148.614 43.7775L157.817 47.2642C165.674 50.1579 171.222 55.1783 171.222 64.1601C171.222 77.514 159.211 84.0046 147.272 84.0046C138.336 84.0046 130.382 79.357 125.38 74.7094L132.529 64.1601C136.997 68.8077 143.879 71.9386 148.614 71.9386V71.9471Z" fill="white"/>
<path d="M192.669 21.2594V35.9182C192.669 40.3879 192.58 45.2135 192.58 45.2135C194.816 41.2818 199.013 38.062 205.535 38.062C218.313 38.062 221.62 46.1964 221.62 56.9236V82.9367H207.233V59.7834C207.233 54.4197 206.518 49.7721 200.533 49.7721C194.549 49.7721 192.669 54.7799 192.669 61.3043V82.9367H178.371V21.2551H192.669V21.2594Z" fill="white"/>
<path d="M237.972 18.9375C242.796 18.9375 246.104 21.9752 246.104 26.3559C246.104 30.7366 242.796 33.7743 237.972 33.7743C233.148 33.7743 229.841 30.8256 229.841 26.3559C229.841 21.8862 233.148 18.9375 237.972 18.9375ZM245.121 38.871V82.9408H230.823V38.871H245.121Z" fill="white"/>
<path d="M251.021 49.7765V38.9603H256.649V36.5454C256.649 31.6309 257.632 27.3392 260.224 24.6573C262.816 21.8866 267.017 20.0987 272.557 20.0987C278.096 20.0987 282.298 21.2595 282.298 21.2595L281.582 31.1818C281.582 31.1818 278.812 30.3768 276.309 30.3768C272.108 30.3768 271.036 32.7917 271.036 36.0963V38.9561H285.872V26.979H300.259V38.9561H310V49.7723H300.259V65.5962C300.259 69.3499 300.797 70.2439 301.508 71.0488C302.135 71.7648 303.029 72.1207 304.905 72.1207C307.141 72.1207 309.195 71.3157 309.195 71.3157L309.911 82.4878C308.84 82.7547 304.905 83.9198 299.725 83.9198C294.546 83.9198 291.238 82.3988 289.002 79.806C286.77 77.2132 285.876 73.5485 285.876 66.8461V49.7723H271.041V82.9369H256.654V49.7723H251.025L251.021 49.7765Z" fill="white"/>
<path d="M47.8311 56.6971C48.8166 58.9779 47.3729 61.6843 44.7693 62.4373C27.4747 67.4428 9.28546 60.0147 2.55088 44.4273C-4.1837 28.8399 2.87088 10.4952 18.3655 1.32471C20.6964 -0.0539609 23.6564 0.746321 24.6419 3.02713L47.8311 56.6935V56.6971Z" fill="#FB597F"/>
<path d="M42.2021 94.7361C41.2166 97.0169 42.6603 99.7233 45.2639 100.476C62.5585 105.482 80.7477 98.0536 87.4823 82.4662C94.2169 66.8789 87.1623 48.5342 71.6677 39.3637C69.3368 37.985 66.3767 38.7853 65.3913 41.0661L42.2021 94.7324V94.7361Z" fill="#17DEAB"/>
<path d="M42.2021 94.7361C41.2166 97.0169 42.6603 99.7233 45.2639 100.476C62.5585 105.482 80.7477 98.0536 87.4823 82.4662C94.2169 66.8789 87.1623 48.5342 71.6677 39.3637C69.3368 37.985 66.3767 38.7853 65.3913 41.0661L42.2021 94.7324V94.7361Z" fill="#17DEAB"/>
<path d="M54.5657 32.3138C62.7938 32.3138 69.464 25.6413 69.464 17.4103C69.464 9.17935 62.7938 2.50684 54.5657 2.50684C46.3377 2.50684 39.6675 9.17935 39.6675 17.4103C39.6675 25.6413 46.3377 32.3138 54.5657 32.3138Z" fill="#FFBD24"/>
<path d="M32.5348 75.9503L17.3518 69.4374C14.8157 68.3496 11.8782 69.5243 10.7907 72.0613L4.28007 87.2497C3.19257 89.7866 4.3669 92.7252 6.903 93.8131L22.0861 100.326C24.6222 101.414 27.5597 100.239 28.6472 97.7021L35.1578 82.5137C36.2453 79.9767 35.0709 77.0382 32.5348 75.9503Z" fill="#787AFF"/>
</svg>
