<svg width="425" height="124" viewBox="0 0 425 124" fill="none" xmlns="http://www.w3.org/2000/svg">
<path d="M170.939 39.6897C176.21 39.6897 181.438 41.3666 181.438 47.5581C181.438 52.0298 179.019 55.9425 175.13 58.0924L179.796 69.3576H168.908L165.927 59.5113H164.76L163.205 69.3576H153.742L158.452 39.6897H170.939ZM168.346 52.1158C170.204 52.1158 171.76 51.0409 171.76 49.063C171.76 47.5581 170.334 47.0422 169.038 47.0422H166.705L165.884 52.1158H168.346Z" fill="#192F48"/>
<path d="M193.905 39.6897H201.466L196.497 45.9242H189.973L193.905 39.6897ZM203.022 66.6488C198.658 69.8305 194.812 69.9595 191.961 69.9595C186.084 69.9595 181.634 66.9497 181.634 60.8872C181.634 52.7608 187.51 47.0422 195.374 47.0422C199.997 47.0422 204.491 48.977 204.491 54.3516C204.491 59.2963 201.337 61.4461 196.022 61.4461C193.991 61.4461 192.695 61.1882 190.362 60.5432V60.5862C190.621 62.822 192.436 63.596 194.596 63.596C196.757 63.596 198.744 62.951 200.3 62.0481L203.022 66.6488ZM190.967 56.1145C191.745 56.2435 192.738 56.3725 193.732 56.3725C195.849 56.3725 197.275 55.8565 197.275 53.9647C197.275 52.8038 196.325 52.2018 195.028 52.2018C193.386 52.2018 191.312 54.0937 190.967 56.1145Z" fill="#192F48"/>
<path d="M207.433 61.1022C209.031 62.3491 211.926 63.424 214 63.424C214.389 63.424 215.21 63.338 215.21 62.779C215.21 62.1341 214.086 61.7901 212.661 61.4031C210.068 60.6722 206.482 59.5973 206.482 55.6415C206.482 49.88 211.408 46.9562 216.765 46.9562C220.049 46.9562 222.555 47.6011 225.32 49.45L221.907 54.9106C220.438 53.8787 218.018 52.9327 216.16 52.9327C215.772 52.9327 214.907 53.0187 214.907 53.5777C214.907 54.1367 215.858 54.4376 217.154 54.8246C219.747 55.6415 223.635 56.8025 223.635 61.1452C223.635 67.2937 218.191 69.9165 212.661 69.9165C209.334 69.9165 205.877 69.1426 203.371 66.8637L207.433 61.1022Z" fill="#192F48"/>
<path d="M235.937 69.8735C230.06 69.8735 225.264 66.9067 225.264 60.6292C225.264 52.2448 231.357 46.9992 239.566 46.9992C245.442 46.9992 250.195 49.966 250.195 56.2435C250.195 64.6279 244.146 69.8735 235.937 69.8735ZM237.19 62.0051C239.609 62.0051 240.733 59.3823 240.733 57.3184C240.733 55.7705 239.998 54.5666 238.356 54.5666C235.893 54.5666 234.813 57.1894 234.813 59.2533C234.813 60.8012 235.504 62.0051 237.19 62.0051Z" fill="#192F48"/>
<path d="M251.344 69.3576C251.214 69.0136 251.171 68.5406 251.171 67.8527C251.171 67.3367 251.214 66.7348 251.344 66.0038L255.016 42.7855C255.103 42.1405 255.146 41.5386 255.146 41.0226C255.146 40.2057 255.059 39.6897 255.059 39.6897H264.435C264.435 39.6897 264.565 40.1627 264.565 41.1086C264.565 41.6246 264.522 42.2695 264.392 43.0435L260.72 66.2618C260.633 66.8637 260.59 67.4227 260.59 67.8527C260.59 68.7986 260.72 69.3576 260.72 69.3576H251.344Z" fill="#192F48"/>
<path d="M277.647 69.3576C277.647 69.3576 277.431 68.9276 277.431 67.9387C277.431 67.8097 277.431 67.6807 277.475 67.4657C275.833 68.9276 273.586 69.8735 271.339 69.8735C267.191 69.8735 264.728 67.7237 264.728 63.682C264.728 62.693 264.815 61.7041 264.988 60.7582L266.586 50.5249C266.673 49.88 266.716 49.278 266.716 48.762C266.716 47.9451 266.63 47.4291 266.63 47.4291H276.006C276.006 47.4291 276.135 47.9021 276.135 48.848C276.135 49.364 276.092 50.009 275.962 50.7829L274.925 57.1034C274.753 58.1784 274.58 59.3823 274.58 60.0702C274.58 61.1881 274.969 61.8761 276.135 61.8761C277.777 61.8761 278.296 60.4142 278.512 59.0383L280.369 47.4291H289.789L286.764 66.2618C286.678 66.8637 286.635 67.4227 286.635 67.8527C286.635 68.7986 286.764 69.3576 286.764 69.3576H277.647Z" fill="#192F48"/>
<path d="M304.42 69.1426C302.476 69.6155 300.445 69.8735 298.241 69.8735C294.353 69.8735 291.804 68.4546 291.804 64.2839C291.804 61.9191 292.236 59.5113 292.711 57.1464L293.186 54.5666H290.291L291.415 47.4291H294.31L294.655 45.2793C294.785 44.5054 294.785 43.9034 294.785 43.3874C294.785 42.5705 294.698 42.0545 294.698 42.0545H304.074C304.074 42.0545 304.204 42.5275 304.204 43.4734C304.204 43.9894 304.161 44.6343 304.031 45.4083L303.729 47.4291H308.093L306.926 54.5666H302.605L302.217 56.3725C301.266 61.3601 301.266 62.0051 303.037 62.0051C303.772 62.0051 304.507 61.8761 305.198 61.6611L304.42 69.1426Z" fill="#192F48"/>
<path d="M315.322 46.7412C312.903 46.7412 310.958 45.4943 310.958 42.9575C310.958 39.6467 313.551 37.4539 316.791 37.4539C319.168 37.4539 321.155 38.6578 321.155 41.2376C321.155 44.5483 318.52 46.7412 315.322 46.7412ZM307.545 69.3576C307.415 69.0136 307.372 68.5406 307.372 67.8527C307.372 67.3367 307.415 66.7348 307.545 66.0038L310.008 50.5249C310.094 49.923 310.137 49.407 310.137 48.934C310.137 48.0311 310.008 47.4291 310.008 47.4291H319.384C319.384 47.4291 319.513 47.9881 319.513 48.977C319.513 49.45 319.513 50.052 319.384 50.7829L316.921 66.2618C316.834 66.8637 316.791 67.4227 316.791 67.8527C316.791 68.7986 316.921 69.3576 316.921 69.3576H307.545Z" fill="#192F48"/>
<path d="M330.959 69.8735C325.083 69.8735 320.287 66.9067 320.287 60.6292C320.287 52.2448 326.379 46.9992 334.588 46.9992C340.464 46.9992 345.217 49.966 345.217 56.2435C345.217 64.6279 339.168 69.8735 330.959 69.8735ZM332.212 62.0051C334.631 62.0051 335.755 59.3823 335.755 57.3184C335.755 55.7705 335.02 54.5666 333.378 54.5666C330.916 54.5666 329.835 57.1894 329.835 59.2533C329.835 60.8012 330.527 62.0051 332.212 62.0051Z" fill="#192F48"/>
<path d="M348.742 50.5249C348.829 49.923 348.872 49.278 348.872 48.762C348.872 47.9451 348.786 47.4291 348.786 47.4291H358.075C358.205 47.7731 358.248 48.1601 358.248 48.6331C358.248 49.106 358.205 49.622 358.118 50.0949C359.803 48.1171 361.834 46.9992 364.47 46.9992C368.92 46.9992 371.167 49.063 371.167 53.4917C371.167 54.4806 371.081 55.4696 370.908 56.4585L369.309 66.2618C369.223 66.8637 369.179 67.4227 369.179 67.8527C369.179 68.7986 369.309 69.3576 369.309 69.3576H359.976C359.847 69.0136 359.803 68.5406 359.803 67.8527C359.803 67.3367 359.847 66.7348 359.976 66.0038L361.143 58.6083C361.229 58.0064 361.316 57.4044 361.316 56.8455C361.316 55.6415 360.884 54.9106 359.587 54.9106C357.47 54.9106 357.125 56.9315 356.865 58.6083L355.137 69.3576H345.718L348.742 50.5249Z" fill="#192F48"/>
<path d="M165.927 79.5853H176.383L181.654 109.253H171.371L170.939 105.083H162.859L161.088 109.253H151.236L165.927 79.5853ZM170.161 97.6011L169.297 89.8616L166.013 97.6011H170.161Z" fill="#192F48"/>
<path d="M196.381 109.253C196.381 109.253 196.165 108.823 196.165 107.834C196.165 107.705 196.165 107.576 196.208 107.361C194.566 108.823 192.319 109.769 190.072 109.769C185.924 109.769 183.462 107.619 183.462 103.578C183.462 102.589 183.548 101.6 183.721 100.654L185.319 90.4206C185.406 89.7756 185.449 89.1737 185.449 88.6577C185.449 87.8408 185.363 87.3248 185.363 87.3248H194.739C194.739 87.3248 194.868 87.7978 194.868 88.7437C194.868 89.2597 194.825 89.9046 194.695 90.6786L193.658 96.9991C193.486 98.074 193.313 99.2779 193.313 99.9659C193.313 101.084 193.702 101.772 194.868 101.772C196.51 101.772 197.029 100.31 197.245 98.934L199.103 87.3248H208.522L205.497 106.157C205.411 106.759 205.368 107.318 205.368 107.748C205.368 108.694 205.497 109.253 205.497 109.253H196.381Z" fill="#192F48"/>
<path d="M223.153 109.038C221.209 109.511 219.178 109.769 216.975 109.769C213.086 109.769 210.537 108.35 210.537 104.18C210.537 101.815 210.969 99.4069 211.444 97.0421L211.919 94.4623H209.024L210.148 87.3248H213.043L213.388 85.1749C213.518 84.401 213.518 83.799 213.518 83.2831C213.518 82.4661 213.432 81.9502 213.432 81.9502H222.808C222.808 81.9502 222.937 82.4231 222.937 83.3691C222.937 83.885 222.894 84.53 222.764 85.3039L222.462 87.3248H226.826L225.659 94.4623H221.339L220.95 96.2682C219.999 101.256 219.999 101.901 221.771 101.901C222.505 101.901 223.24 101.772 223.931 101.557L223.153 109.038Z" fill="#192F48"/>
<path d="M236.696 109.769C230.82 109.769 226.024 106.802 226.024 100.525C226.024 92.1404 232.116 86.8948 240.325 86.8948C246.202 86.8948 250.954 89.8616 250.954 96.1392C250.954 104.524 244.905 109.769 236.696 109.769ZM237.949 101.901C240.369 101.901 241.492 99.2779 241.492 97.2141C241.492 95.6662 240.757 94.4623 239.116 94.4623C236.653 94.4623 235.573 97.0851 235.573 99.1489C235.573 100.697 236.264 101.901 237.949 101.901Z" fill="#192F48"/>
<path d="M254.523 90.4206C254.609 89.8616 254.652 89.3027 254.652 88.8297C254.652 87.9267 254.523 87.3248 254.523 87.3248H263.856C263.985 87.7978 264.072 88.3137 264.072 88.8297C264.072 89.1737 264.028 89.6036 263.942 89.9906C265.497 88.1847 267.658 86.8948 270.077 86.8948C272.799 86.8948 275.176 87.5828 275.867 90.4636C277.811 87.9268 279.929 86.8948 283.169 86.8948C287.447 86.8948 289.434 89.2597 289.434 93.4304C289.434 94.3333 289.305 95.2362 289.175 96.1392L287.576 106.157C287.49 106.759 287.447 107.318 287.447 107.748C287.447 108.694 287.576 109.253 287.576 109.253H278.287C278.157 108.909 278.114 108.436 278.114 107.748C278.114 107.232 278.157 106.63 278.287 105.899L279.064 101.557C279.41 99.6649 279.626 97.859 279.626 96.6121C279.626 95.5802 279.324 94.8063 278.157 94.8063C276.429 94.8063 276.04 96.6981 275.824 98.074L274.052 109.253H264.633L266.059 101.041C266.275 99.6649 266.534 97.5581 266.534 96.6121C266.534 95.5802 266.275 94.8063 265.109 94.8063C263.38 94.8063 262.991 96.6981 262.775 98.074L260.961 109.253H251.541L254.523 90.4206Z" fill="#192F48"/>
<path d="M306.299 109.253C306.169 108.909 306.126 108.436 306.126 107.748C306.126 107.447 306.169 107.146 306.213 106.931C304.398 108.866 301.719 109.769 299.127 109.769C293.769 109.769 290.96 105.813 290.96 100.783C290.96 93.8603 295.195 86.8948 302.756 86.8948C304.743 86.8948 307.293 87.4538 308.503 89.1307L308.675 87.3248H318.051L315.07 106.157C314.984 106.759 314.94 107.318 314.94 107.748C314.94 108.694 315.07 109.253 315.07 109.253H306.299ZM303.404 101.901C305.824 101.901 307.336 99.6219 307.336 97.3431C307.336 95.6662 306.299 94.4623 304.571 94.4623C302.151 94.4623 300.639 96.7411 300.639 98.977C300.639 100.654 301.676 101.901 303.404 101.901Z" fill="#192F48"/>
<path d="M332.733 109.038C330.788 109.511 328.758 109.769 326.554 109.769C322.665 109.769 320.116 108.35 320.116 104.18C320.116 101.815 320.548 99.4069 321.024 97.0421L321.499 94.4623H318.604L319.727 87.3248H322.622L322.968 85.1749C323.097 84.401 323.097 83.799 323.097 83.2831C323.097 82.4661 323.011 81.9502 323.011 81.9502H332.387C332.387 81.9502 332.517 82.4231 332.517 83.3691C332.517 83.885 332.473 84.53 332.344 85.3039L332.041 87.3248H336.405L335.239 94.4623H330.918L330.529 96.2682C329.579 101.256 329.579 101.901 331.35 101.901C332.085 101.901 332.819 101.772 333.51 101.557L332.733 109.038Z" fill="#192F48"/>
<path d="M343.635 86.6368C341.215 86.6368 339.271 85.3899 339.271 82.8531C339.271 79.5424 341.863 77.3495 345.104 77.3495C347.48 77.3495 349.468 78.5534 349.468 81.1332C349.468 84.444 346.832 86.6368 343.635 86.6368ZM335.857 109.253C335.728 108.909 335.685 108.436 335.685 107.748C335.685 107.232 335.728 106.63 335.857 105.899L338.32 90.4206C338.407 89.8186 338.45 89.3027 338.45 88.8297C338.45 87.9267 338.32 87.3248 338.32 87.3248H347.696C347.696 87.3248 347.826 87.8838 347.826 88.8727C347.826 89.3456 347.826 89.9476 347.696 90.6786L345.233 106.157C345.147 106.759 345.104 107.318 345.104 107.748C345.104 108.694 345.233 109.253 345.233 109.253H335.857Z" fill="#192F48"/>
<path d="M361.043 116.778C361.043 116.778 361.691 115.488 362.037 113.682L363.117 107.318C361.475 109.124 359.055 109.769 356.722 109.769C351.365 109.769 348.556 105.856 348.556 100.783C348.556 93.9033 352.79 86.8948 360.352 86.8948C362.685 86.8948 365.018 87.5828 366.574 89.3886C366.79 88.0557 367.222 87.5398 367.394 87.3248H376.166C376.166 87.3248 375.474 88.6147 375.172 90.4206L371.499 113.51C371.153 115.574 370.419 116.778 370.419 116.778H361.043ZM361 101.901C363.419 101.901 364.932 99.6219 364.932 97.3861C364.932 95.7092 363.895 94.4623 362.166 94.4623C359.747 94.4623 358.234 96.7411 358.234 99.02C358.234 100.697 359.228 101.901 361 101.901Z" fill="#192F48"/>
<path d="M389.632 109.253C389.632 109.253 389.416 108.823 389.416 107.834C389.416 107.705 389.416 107.576 389.459 107.361C387.817 108.823 385.571 109.769 383.324 109.769C379.176 109.769 376.713 107.619 376.713 103.578C376.713 102.589 376.799 101.6 376.972 100.654L378.571 90.4206C378.657 89.7756 378.701 89.1737 378.701 88.6577C378.701 87.8408 378.614 87.3248 378.614 87.3248H387.99C387.99 87.3248 388.12 87.7978 388.12 88.7437C388.12 89.2597 388.077 89.9046 387.947 90.6786L386.91 96.9991C386.737 98.074 386.564 99.2779 386.564 99.9659C386.564 101.084 386.953 101.772 388.12 101.772C389.762 101.772 390.28 100.31 390.496 98.934L392.354 87.3248H401.773L398.749 106.157C398.662 106.759 398.619 107.318 398.619 107.748C398.619 108.694 398.749 109.253 398.749 109.253H389.632Z" fill="#192F48"/>
<path d="M423.531 106.544C419.167 109.726 415.321 109.855 412.47 109.855C406.594 109.855 402.143 106.845 402.143 100.783C402.143 92.6564 408.019 86.9378 415.883 86.9378C420.506 86.9378 425 88.8727 425 94.2473C425 99.1919 421.846 101.342 416.531 101.342C414.501 101.342 413.204 101.084 410.871 100.439V100.482C411.13 102.718 412.945 103.492 415.105 103.492C417.266 103.492 419.253 102.847 420.809 101.944L423.531 106.544ZM411.476 96.0102C412.254 96.1392 413.248 96.2682 414.241 96.2682C416.358 96.2682 417.784 95.7522 417.784 93.8603C417.784 92.6994 416.834 92.0975 415.538 92.0975C413.896 92.0975 411.822 93.9893 411.476 96.0102Z" fill="#192F48"/>
<path d="M82.7023 22.166C74.7354 22.3558 70.9699 30.2613 70.083 34.1903C71.8568 36.7481 75.4044 46.7684 75.4044 66.3871C75.4044 86.0057 66.9916 97.4499 62.7852 100.72C64.2802 107.233 68.8971 120.259 75.4044 120.259C83.5385 120.259 94.1812 95.815 97.6021 76.9875C101.023 58.1599 92.6608 21.9286 82.7023 22.166Z" fill="#192F48" fill-opacity="0.4"/>
<ellipse cx="9.20036" cy="12.0763" rx="9.20036" ry="12.0763" transform="matrix(0.967456 -0.253038 0.25536 0.966846 35.5337 29.6753)" fill="#43EC72"/>
<path d="M139.987 3.18291C126.8 -5.45485 121.332 5.50162 111.989 12.2151C102.645 18.9273 83.3813 18.9234 83.3813 18.9234C83.3839 18.9338 83.3865 18.9442 83.3878 18.9559C83.1322 18.9468 82.8754 18.9429 82.6159 18.9481C79.4748 19.0052 76.4094 20.4584 73.503 23.2689C70.9278 25.7589 68.5325 29.2688 66.3837 33.6999C65.7578 34.9909 66.3029 36.5415 67.5989 37.1643C68.8963 37.7872 70.4545 37.2448 71.0803 35.955C74.6882 28.5123 78.9272 24.2057 82.7085 24.137C83.1414 24.1292 83.5651 24.1525 83.9746 24.2044C84.0867 24.3368 84.1962 24.4717 84.3057 24.6054C84.3683 24.6819 84.4322 24.7572 84.4948 24.8338C84.6695 25.0479 84.8417 25.2645 85.0112 25.4838C85.0868 25.5798 85.1598 25.6785 85.2341 25.7758C85.3293 25.9003 85.4258 26.0249 85.5197 26.1508C85.6031 26.2624 85.684 26.3752 85.7674 26.4881C85.8509 26.6023 85.9356 26.7152 86.0178 26.8307C86.1025 26.9488 86.1847 27.0681 86.2681 27.1862C86.3463 27.2978 86.4259 27.4094 86.5041 27.5223C86.5876 27.6442 86.6697 27.7662 86.7519 27.8895C86.8275 28.0024 86.9044 28.114 86.9787 28.2268C87.0609 28.3514 87.1417 28.476 87.2226 28.6018C87.2956 28.716 87.3699 28.8289 87.4429 28.9431C87.5238 29.0689 87.602 29.1974 87.6815 29.3246C87.7533 29.44 87.825 29.5542 87.8954 29.671C87.9736 29.7995 88.0505 29.9292 88.1275 30.059C88.1979 30.1758 88.267 30.2925 88.3361 30.4106C88.4117 30.5417 88.4873 30.6727 88.563 30.8051C88.6308 30.9244 88.6999 31.0425 88.7664 31.1632C88.8407 31.2955 88.9137 31.4292 88.9867 31.5641C89.0532 31.6848 89.1197 31.8068 89.1849 31.9274C89.2566 32.0624 89.3284 32.1973 89.3988 32.3336C89.464 32.4568 89.5279 32.5801 89.5917 32.7047C89.6622 32.8409 89.73 32.9772 89.7991 33.1147C89.8616 33.2406 89.9255 33.3664 89.9868 33.4936C90.0546 33.6311 90.1211 33.77 90.1876 33.9088C90.2489 34.0373 90.3102 34.1644 90.3715 34.2942C90.4367 34.433 90.5019 34.5731 90.5658 34.7133C90.6257 34.8443 90.6857 34.9754 90.7444 35.1064C90.807 35.2466 90.8696 35.388 90.9308 35.5294C90.9895 35.6631 91.0469 35.7967 91.1056 35.9317C91.1655 36.0731 91.2268 36.2158 91.2855 36.3586C91.3429 36.4948 91.3989 36.631 91.455 36.7686C91.5137 36.9113 91.5711 37.054 91.6284 37.1981C91.6845 37.3382 91.7393 37.4783 91.794 37.6185C91.8501 37.7612 91.9049 37.9052 91.9596 38.0493C92.0144 38.192 92.0665 38.3347 92.12 38.4787C92.1735 38.6228 92.2269 38.7681 92.2791 38.9134C92.3312 39.0588 92.3834 39.2041 92.4342 39.3507C92.4851 39.496 92.5359 39.6414 92.5868 39.788C92.6376 39.9359 92.6872 40.0851 92.738 40.2356C92.7863 40.381 92.8358 40.5276 92.8828 40.6742C92.9323 40.826 92.9806 40.9804 93.0301 41.1335C93.0758 41.2789 93.1227 41.4242 93.1683 41.5708C93.2166 41.7278 93.2635 41.8848 93.3118 42.0418C93.3548 42.1871 93.3991 42.3325 93.4421 42.4791C93.4891 42.64 93.5347 42.8009 93.5804 42.9631C93.6221 43.1084 93.6625 43.2537 93.7029 43.399C93.7486 43.5638 93.7929 43.7312 93.8372 43.8973C93.8763 44.0413 93.9155 44.1854 93.9533 44.3307C93.9976 44.5007 94.0406 44.6719 94.0837 44.8432C94.1202 44.9872 94.1567 45.13 94.1919 45.274C94.2349 45.4505 94.2766 45.6269 94.3184 45.8047C94.3523 45.9461 94.3862 46.0863 94.4188 46.229C94.4618 46.4145 94.5022 46.6001 94.5426 46.7869C94.5726 46.9232 94.6039 47.0581 94.6326 47.1944C94.6743 47.3916 94.7147 47.5901 94.7565 47.7886C94.7826 47.9171 94.8099 48.0443 94.836 48.1727C94.8803 48.3933 94.9221 48.6165 94.9651 48.8384C94.986 48.9461 95.0068 49.0525 95.0277 49.1601C95.089 49.491 95.1489 49.8245 95.2063 50.1593C95.2976 50.6913 95.3836 51.2297 95.4645 51.7721C95.9665 55.1042 96.2794 58.6374 96.3968 62.3017C96.4581 64.2065 96.4659 66.1982 96.4202 68.2211C96.415 68.4534 96.4085 68.6843 96.402 68.914C96.0226 82.2281 93.3861 93.5414 88.5656 102.54C88.4508 102.754 88.3348 102.967 88.2187 103.177C88.1796 103.247 88.1405 103.316 88.1014 103.386C88.0232 103.526 87.9436 103.667 87.8641 103.808C87.8171 103.891 87.7689 103.971 87.7207 104.054C87.6476 104.18 87.5746 104.306 87.5016 104.43C87.4507 104.517 87.3986 104.603 87.3464 104.689C87.2747 104.808 87.2043 104.926 87.1313 105.044C87.0778 105.132 87.0231 105.219 86.9683 105.308C86.8979 105.422 86.8262 105.536 86.7545 105.65C86.6984 105.74 86.641 105.827 86.585 105.915C86.5133 106.026 86.4428 106.137 86.3711 106.247C86.3138 106.335 86.2551 106.423 86.1964 106.512C86.1247 106.621 86.053 106.728 85.98 106.836C85.92 106.924 85.86 107.013 85.8 107.099C85.727 107.206 85.6553 107.312 85.581 107.417C85.5197 107.504 85.4584 107.591 85.3971 107.678C85.3228 107.783 85.2498 107.887 85.1754 107.991C85.1129 108.078 85.0516 108.163 84.989 108.249C84.9134 108.352 84.839 108.454 84.7634 108.557C84.7008 108.642 84.6369 108.727 84.573 108.811C84.4961 108.912 84.4205 109.013 84.3436 109.115C84.2797 109.198 84.2158 109.282 84.1506 109.365C84.0724 109.465 83.9941 109.565 83.9159 109.665C83.8507 109.746 83.7868 109.828 83.7216 109.91C83.6421 110.01 83.5625 110.108 83.4817 110.206C83.4165 110.286 83.3513 110.367 83.2848 110.446C83.204 110.544 83.1218 110.642 83.0397 110.74C82.9732 110.818 82.908 110.897 82.8415 110.975C82.758 111.073 82.6746 111.17 82.5898 111.267C82.5233 111.344 82.4568 111.42 82.3903 111.496C82.3043 111.593 82.2182 111.69 82.1309 111.786C82.0644 111.86 81.9992 111.934 81.9327 112.007C81.844 112.104 81.754 112.201 81.6654 112.297C81.6002 112.369 81.535 112.439 81.4685 112.509C81.3759 112.608 81.282 112.705 81.1894 112.802C81.1256 112.87 81.0617 112.936 80.9978 113.003C80.8987 113.106 80.7996 113.206 80.6992 113.307C80.6392 113.368 80.5792 113.429 80.5192 113.489C80.411 113.598 80.3015 113.704 80.192 113.812C80.1398 113.864 80.0876 113.915 80.0342 113.967C79.8986 114.1 79.7604 114.229 79.6235 114.359C79.5961 114.385 79.57 114.411 79.5426 114.436C79.3757 114.591 79.2088 114.746 79.0406 114.899C79.0158 114.922 78.9898 114.944 78.9637 114.968C78.8216 115.096 78.6781 115.225 78.5347 115.351C78.4812 115.397 78.4265 115.444 78.373 115.491C78.257 115.592 78.1396 115.693 78.0223 115.793C77.9571 115.848 77.8919 115.902 77.8267 115.957C77.7185 116.047 77.6116 116.138 77.5033 116.228C77.4329 116.286 77.3612 116.343 77.2895 116.402C77.1852 116.486 77.0822 116.57 76.9779 116.653C76.9022 116.713 76.8266 116.771 76.7523 116.831C76.6506 116.912 76.5489 116.991 76.4459 117.07C76.3676 117.13 76.2894 117.189 76.2112 117.249C76.1095 117.325 76.0091 117.403 75.9061 117.479C75.8265 117.538 75.7457 117.597 75.6648 117.656C75.5631 117.73 75.4627 117.806 75.3597 117.878C75.2776 117.938 75.1954 117.996 75.1133 118.055C75.0116 118.127 74.9099 118.199 74.8082 118.27C74.7247 118.328 74.6413 118.386 74.5565 118.443C74.4965 118.484 74.4366 118.524 74.3753 118.566C70.4845 117.542 66.8062 111.21 64.6339 101.664C64.3157 100.267 62.918 99.3894 61.515 99.706C60.1107 100.023 59.2292 101.412 59.5474 102.81C62.519 115.872 67.9249 123.353 74.7665 123.874C74.7782 123.874 74.7912 123.874 74.803 123.877C74.8708 123.882 74.9373 123.886 75.0103 123.89C76.1408 123.962 77.2947 124 78.4421 124C85.581 124 92.5072 122.609 99.0293 119.863C105.327 117.213 110.983 113.42 115.84 108.588C120.697 103.756 124.51 98.1282 127.174 91.8611C129.933 85.3721 131.331 78.4795 131.331 71.3754C131.331 65.142 130.246 59.0397 128.106 53.2396C126.582 49.1095 124.552 45.2091 122.052 41.5942C124.145 41.4047 126.217 41.07 128.239 40.5821C146.743 36.1224 153.167 11.8233 139.981 3.18551L139.987 3.18291ZM126.123 71.3728C126.123 84.0447 121.164 95.9561 112.16 104.916C104.16 112.874 93.819 117.656 82.6824 118.624C82.7241 118.585 82.7659 118.545 82.8076 118.506C82.9836 118.344 83.1583 118.181 83.333 118.016C83.4009 117.952 83.4673 117.887 83.5352 117.824C83.7503 117.616 83.9654 117.408 84.1767 117.197C84.1884 117.185 84.2001 117.174 84.2119 117.162C84.4361 116.939 84.6565 116.712 84.8769 116.482C84.9381 116.418 84.9981 116.355 85.0594 116.29C85.2276 116.114 85.3932 115.936 85.5588 115.758C85.6175 115.694 85.6761 115.632 85.7335 115.569C85.9487 115.334 86.1612 115.096 86.3724 114.856C86.3907 114.835 86.4089 114.813 86.4285 114.791C86.6202 114.572 86.8105 114.35 86.9996 114.126C87.0583 114.056 87.1183 113.984 87.1769 113.914C87.3373 113.722 87.4951 113.529 87.6528 113.334C87.7024 113.273 87.7519 113.214 87.8002 113.153C88.001 112.902 88.1992 112.649 88.3961 112.395C88.4313 112.349 88.4665 112.303 88.5004 112.257C88.6634 112.044 88.8251 111.83 88.9841 111.614C89.0402 111.537 89.0963 111.461 89.1523 111.384C89.3075 111.172 89.4614 110.958 89.6139 110.743C89.6517 110.69 89.6908 110.637 89.7287 110.582C89.9151 110.316 90.099 110.049 90.2815 109.779C90.3245 109.715 90.3676 109.65 90.4093 109.587C90.5514 109.374 90.6922 109.16 90.8331 108.943C90.8852 108.862 90.9387 108.781 90.9908 108.699C91.1447 108.458 91.2985 108.215 91.4498 107.97C91.4733 107.932 91.4967 107.895 91.5202 107.857C91.6923 107.577 91.8631 107.293 92.0313 107.007C92.077 106.929 92.1213 106.852 92.1669 106.775C92.2947 106.557 92.4212 106.337 92.5451 106.116C92.5933 106.032 92.6403 105.947 92.6872 105.863C92.8502 105.571 93.0119 105.278 93.1709 104.982C98.3735 95.2697 101.216 83.1844 101.618 69.0606C101.623 68.8647 101.628 68.6688 101.633 68.4741C101.74 68.4456 101.851 56.3291 100.348 49.2834C100.277 48.9512 100.23 48.6165 100.169 48.2843C100.151 48.1844 100.131 48.0845 100.113 47.9833C100.067 47.7445 100.022 47.5058 99.9747 47.2683C99.9538 47.1645 99.9329 47.0607 99.9121 46.9569C99.856 46.6831 99.7999 46.4094 99.7413 46.1382C99.7295 46.0837 99.7191 46.0292 99.7074 45.976C99.637 45.6542 99.5652 45.3324 99.4922 45.0132C99.4714 44.9237 99.4505 44.8354 99.4296 44.7459C99.3749 44.511 99.3188 44.2775 99.2614 44.0439C99.2354 43.9388 99.2093 43.8337 99.1832 43.7299C99.1232 43.4912 99.0632 43.2537 99.0007 43.0163C98.9798 42.9371 98.9602 42.8567 98.9394 42.7775C98.8572 42.4674 98.7738 42.1599 98.689 41.8537C98.6682 41.7784 98.646 41.7045 98.6251 41.6292C98.5586 41.393 98.4908 41.1582 98.423 40.9246C98.393 40.8221 98.3617 40.7183 98.3318 40.6158C98.2666 40.3978 98.2001 40.1811 98.1336 39.9644C98.1049 39.8736 98.0775 39.7815 98.0488 39.692C97.9549 39.3948 97.8597 39.0977 97.762 38.8031C97.7463 38.7538 97.7294 38.7058 97.7124 38.6565C97.629 38.4074 97.5455 38.1596 97.4594 37.913C97.4255 37.8144 97.3903 37.7171 97.3564 37.6198C97.2847 37.4148 97.2104 37.2098 97.1374 37.006C97.1022 36.9113 97.0683 36.8153 97.0331 36.7206C97.0057 36.6479 96.9796 36.5753 96.9522 36.5026C102.43 39.5998 108.987 41.3788 115.653 41.7161C118.893 45.7333 121.437 50.2073 123.215 55.0277C125.144 60.2529 126.12 65.7532 126.12 71.3741L126.123 71.3728Z" fill="#192F48"/>
<path d="M74.4234 44.5033C69.9498 26.8956 62.408 13.6088 52.0082 5.00864C48.8866 2.42652 44.6607 1.44428 40.7073 2.37852C40.0658 2.53033 39.4191 2.69511 38.7828 2.87028C32.6231 4.56618 26.903 7.30789 21.7799 11.0163C16.8304 14.5988 12.5731 18.9845 9.12434 24.0488C2.17458 34.2566 -0.97303 46.5989 0.263063 58.7958C0.557744 61.7503 1.11712 64.7217 1.92423 67.6243C5.30523 79.7797 12.9617 90.3288 23.4854 97.3277C32.2346 103.147 42.4923 106.221 52.8896 106.221C54.865 106.221 56.8482 106.11 58.8236 105.885C62.438 105.475 65.7238 103.57 67.8362 100.661C72.5693 94.1435 75.6178 86.4141 76.8969 77.6881C78.3429 67.8215 77.5111 56.6562 74.4234 44.502V44.5033ZM13.4428 26.9605C16.5513 22.3945 20.3887 18.4421 24.848 15.2138C26.5809 13.9591 28.3894 12.8276 30.2657 11.8233C34.1565 14.9452 37.7422 19.3076 40.7868 24.6262C38.286 25.8693 36.2962 28.079 35.0719 31.0218C33.6324 34.4824 33.4303 38.5878 34.5021 42.5843C35.5726 46.5807 37.8035 50.0413 40.7829 52.3275C43.1286 54.1285 45.7299 55.0602 48.3181 55.0602C48.9792 55.0602 49.6403 54.9979 50.2961 54.8759C50.6169 57.4931 50.836 60.153 50.9481 62.8143C51.1971 68.7013 50.9233 74.5091 50.1605 80.0639C41.5796 81.6573 27.8913 81.4834 9.35643 72.9053C8.39416 70.7579 7.58705 68.5326 6.94944 66.2424C6.22056 63.624 5.71726 60.9458 5.45126 58.282C4.33774 47.2892 7.17501 36.1666 13.4402 26.9631L13.4428 26.9605ZM54.0057 45.5543C53.1021 47.7264 51.587 49.1927 49.7381 49.6844C47.8892 50.1749 45.8407 49.6546 43.971 48.2182C41.8938 46.6235 40.3213 44.1478 39.5429 41.2465C38.7658 38.3452 38.8897 35.4192 39.8937 33.0071C40.7973 30.835 42.3124 29.3688 44.1613 28.877C44.6151 28.7563 45.0806 28.6966 45.5539 28.6966C47.0051 28.6966 48.5176 29.2585 49.9298 30.3419C52.0069 31.9366 53.5794 34.4123 54.3578 37.3136C55.1349 40.2149 55.011 43.1409 54.0083 45.5531L54.0057 45.5543ZM11.7191 77.4857C20.2061 81.028 30.649 84.0953 41.371 84.0953C44.1144 84.0953 46.8773 83.8929 49.6299 83.4479C48.5594 89.5048 46.8917 95.2075 44.6685 100.316C38.1869 99.1819 31.949 96.7127 26.3853 93.0121C20.3352 88.9884 15.3374 83.6594 11.7191 77.4857ZM71.7374 76.9407C70.5809 84.8311 67.8466 91.7898 63.6102 97.6223C62.3546 99.3519 60.3948 100.485 58.233 100.73C54.8194 101.118 51.3927 101.128 48.0091 100.779C52.5936 89.8396 54.7868 76.4528 54.2052 62.6781C54.0788 59.6872 53.8206 56.699 53.4398 53.7639C55.7856 52.4949 57.654 50.3527 58.8236 47.5409C60.2631 44.0803 60.4652 39.9749 59.3934 35.9785C58.3216 31.982 56.092 28.5215 53.1126 26.2352C50.2766 24.0579 47.0677 23.1535 43.9605 23.6271C40.9381 18.2151 37.3693 13.6762 33.4655 10.2676C35.626 9.3113 37.8648 8.51072 40.1727 7.87492C40.7464 7.71662 41.3319 7.5674 41.9108 7.42986C42.5002 7.29102 43.0999 7.22225 43.6971 7.22225C45.4965 7.22225 47.2711 7.84248 48.6741 9.00119C58.2069 16.8838 65.1697 29.2559 69.3656 45.7762C72.285 57.2673 73.0817 67.7528 71.7348 76.942L71.7374 76.9407Z" fill="#192F48"/>
<path d="M106.245 67.2933C106.467 66.1178 106.595 64.8825 106.626 63.6252C106.662 62.1564 106.566 60.6797 106.342 59.2369C105.954 56.7586 107.66 54.4372 110.15 54.0519C112.641 53.6665 114.973 55.3637 115.361 57.842C115.67 59.8182 115.8 61.8384 115.75 63.847C115.707 65.5897 115.528 67.3128 115.217 68.9659C114.83 71.0212 113.109 72.4913 111.111 72.6561C110.712 72.6885 110.303 72.6704 109.891 72.5925C107.413 72.1306 105.782 69.7574 106.246 67.292L106.245 67.2933Z" fill="#192F48"/>
<path d="M99.1425 91.4977C97.7056 91.4977 96.5386 90.3403 96.5347 88.9104C96.5308 87.4767 97.6951 86.3115 99.1346 86.3076C103.47 86.2946 106.7 84.5701 108.24 83.5438C109.435 82.7458 111.056 83.0637 111.858 84.2548C112.66 85.446 112.34 87.0575 111.144 87.8555C109.115 89.2089 104.857 91.4822 99.149 91.499H99.1412L99.1425 91.4977Z" fill="#192F48"/>
<path d="M73.4153 65.9311H73.4075C67.7004 65.9142 63.4431 63.6422 61.4143 62.2876C60.2173 61.4896 59.8979 59.878 60.6998 58.6869C61.5016 57.497 63.1211 57.1778 64.3181 57.9758C65.858 59.0022 69.089 60.7279 73.4232 60.7396C74.864 60.7435 76.027 61.9087 76.0231 63.3425C76.0192 64.7737 74.8522 65.9298 73.4153 65.9298V65.9311Z" fill="#192F48"/>
</svg>
