<svg width="135" height="114" viewBox="0 0 135 114" fill="none" xmlns="http://www.w3.org/2000/svg">
<path d="M128.528 2.92622C116.42 -5.01495 111.4 5.05795 102.822 11.23C94.2427 17.4009 76.5558 17.3974 76.5558 17.3974C76.5582 17.4069 76.5606 17.4164 76.5618 17.4272C76.3272 17.4188 76.0913 17.4152 75.8531 17.42C72.9691 17.4725 70.1546 18.8086 67.4861 21.3924C65.1218 23.6816 62.9226 26.9084 60.9496 30.9822C60.375 32.1691 60.8754 33.5946 62.0654 34.1672C63.2566 34.7398 64.6872 34.2412 65.2618 33.0554C68.5744 26.2129 72.4663 22.2537 75.9381 22.1904C76.3356 22.1833 76.7246 22.2048 77.1005 22.2525C77.2035 22.3742 77.3041 22.4982 77.4046 22.6211C77.4621 22.6915 77.5208 22.7607 77.5782 22.831C77.7386 23.0279 77.8967 23.2271 78.0523 23.4287C78.1217 23.517 78.1888 23.6076 78.257 23.6971C78.3444 23.8116 78.433 23.9261 78.5192 24.0418C78.5958 24.1444 78.67 24.2482 78.7466 24.352C78.8233 24.457 78.9011 24.5607 78.9765 24.6669C79.0543 24.7755 79.1297 24.8852 79.2064 24.9938C79.2782 25.0964 79.3512 25.199 79.423 25.3027C79.4997 25.4149 79.5751 25.527 79.6505 25.6403C79.7199 25.7441 79.7906 25.8467 79.8588 25.9505C79.9342 26.065 80.0085 26.1795 80.0827 26.2952C80.1497 26.4002 80.218 26.504 80.285 26.609C80.3592 26.7247 80.4311 26.8428 80.5041 26.9597C80.5699 27.0658 80.6358 27.1708 80.7004 27.2782C80.7722 27.3963 80.8429 27.5156 80.9135 27.6349C80.9782 27.7422 81.0416 27.8496 81.1051 27.9581C81.1745 28.0786 81.2439 28.1991 81.3134 28.3208C81.3756 28.4305 81.4391 28.5391 81.5001 28.65C81.5684 28.7717 81.6354 28.8946 81.7024 29.0186C81.7635 29.1296 81.8245 29.2417 81.8844 29.3526C81.9502 29.4767 82.0161 29.6008 82.0807 29.726C82.1406 29.8394 82.1993 29.9527 82.2579 30.0672C82.3226 30.1925 82.3848 30.3177 82.4483 30.4442C82.5057 30.5599 82.5644 30.6756 82.6207 30.7925C82.6829 30.9189 82.744 31.0466 82.805 31.1742C82.8613 31.2923 82.9176 31.4092 82.9738 31.5285C83.0337 31.6561 83.0935 31.785 83.1522 31.9138C83.2073 32.0343 83.2623 32.1548 83.3162 32.2753C83.3737 32.4041 83.4311 32.5341 83.4874 32.6642C83.5413 32.787 83.594 32.9099 83.6478 33.034C83.7029 33.164 83.7592 33.2952 83.813 33.4264C83.8657 33.5517 83.9172 33.6769 83.9687 33.8034C84.0225 33.9346 84.0752 34.0658 84.1279 34.1982C84.1794 34.3271 84.2296 34.4559 84.2799 34.5847C84.3314 34.7159 84.3817 34.8484 84.432 34.9808C84.4822 35.112 84.5301 35.2432 84.5792 35.3756C84.6283 35.508 84.6774 35.6416 84.7253 35.7753C84.7732 35.9089 84.821 36.0425 84.8677 36.1773C84.9144 36.3109 84.9611 36.4445 85.0078 36.5793C85.0545 36.7153 85.1 36.8524 85.1467 36.9908C85.191 37.1244 85.2365 37.2592 85.2796 37.394C85.325 37.5336 85.3693 37.6755 85.4148 37.8163C85.4567 37.9499 85.4998 38.0835 85.5417 38.2183C85.586 38.3627 85.6291 38.507 85.6734 38.6513C85.7129 38.7849 85.7536 38.9186 85.7931 39.0534C85.8362 39.2013 85.8781 39.3492 85.92 39.4983C85.9583 39.6319 85.9955 39.7655 86.0326 39.8991C86.0745 40.0506 86.1152 40.2045 86.1559 40.3572C86.1918 40.4896 86.2277 40.622 86.2624 40.7556C86.3031 40.9119 86.3426 41.0694 86.3821 41.2268C86.4157 41.3592 86.4492 41.4905 86.4815 41.6229C86.521 41.7851 86.5593 41.9473 86.5976 42.1108C86.6288 42.2408 86.6599 42.3696 86.6898 42.5009C86.7293 42.6714 86.7664 42.842 86.8035 43.0138C86.8311 43.1391 86.8598 43.2631 86.8861 43.3884C86.9245 43.5697 86.9616 43.7522 86.9999 43.9347C87.0238 44.0528 87.049 44.1697 87.0729 44.2878C87.1136 44.4906 87.1519 44.6958 87.1914 44.8998C87.2106 44.9988 87.2297 45.0966 87.2489 45.1956C87.3052 45.4998 87.3602 45.8064 87.4129 46.1142C87.4967 46.6032 87.5757 47.0983 87.6499 47.5969C88.1108 50.6603 88.3982 53.9086 88.5059 57.2774C88.5622 59.0286 88.5694 60.8597 88.5275 62.7194C88.5227 62.9329 88.5167 63.1453 88.5107 63.3564C88.1623 75.5968 85.7417 85.9977 81.3158 94.2705C81.2104 94.4674 81.1039 94.663 80.9973 94.8563C80.9614 94.9207 80.9255 94.9839 80.8896 95.0483C80.8177 95.1772 80.7447 95.3072 80.6717 95.436C80.6286 95.5124 80.5843 95.5863 80.54 95.6627C80.473 95.7784 80.4059 95.8941 80.3389 96.0086C80.2922 96.0885 80.2443 96.1673 80.1964 96.246C80.1306 96.3557 80.0659 96.4643 79.9989 96.5729C79.9498 96.654 79.8995 96.7339 79.8492 96.815C79.7846 96.92 79.7187 97.025 79.6529 97.1299C79.6014 97.2123 79.5487 97.2922 79.4973 97.3733C79.4314 97.4759 79.3668 97.5773 79.3009 97.6787C79.2483 97.7598 79.1944 97.8409 79.1405 97.922C79.0747 98.0222 79.0088 98.1213 78.9418 98.2203C78.8867 98.3014 78.8316 98.3825 78.7766 98.4624C78.7095 98.5602 78.6437 98.6581 78.5755 98.7547C78.5192 98.8346 78.4629 98.9145 78.4066 98.9945C78.3384 99.0911 78.2714 99.1865 78.2031 99.2819C78.1457 99.3619 78.0894 99.4406 78.0319 99.5193C77.9625 99.6136 77.8943 99.7078 77.8248 99.8021C77.7674 99.8808 77.7087 99.9583 77.65 100.036C77.5794 100.129 77.51 100.222 77.4393 100.315C77.3807 100.391 77.322 100.469 77.2622 100.545C77.1903 100.637 77.1185 100.729 77.0467 100.821C76.9868 100.896 76.9282 100.971 76.8683 101.046C76.7953 101.138 76.7222 101.229 76.648 101.318C76.5882 101.392 76.5283 101.466 76.4672 101.539C76.393 101.63 76.3176 101.719 76.2422 101.81C76.1811 101.881 76.1213 101.954 76.0602 102.026C75.9836 102.115 75.907 102.205 75.8292 102.294C75.7681 102.364 75.7071 102.435 75.646 102.504C75.567 102.593 75.488 102.683 75.4078 102.771C75.3467 102.839 75.2868 102.907 75.2258 102.974C75.1444 103.063 75.0618 103.153 74.9804 103.241C74.9205 103.307 74.8607 103.371 74.7996 103.436C74.7146 103.526 74.6284 103.616 74.5434 103.705C74.4848 103.767 74.4261 103.828 74.3674 103.89C74.2764 103.984 74.1855 104.076 74.0933 104.169C74.0382 104.225 73.9831 104.281 73.9281 104.336C73.8287 104.436 73.7281 104.534 73.6276 104.633C73.5797 104.681 73.5318 104.729 73.4827 104.776C73.3582 104.898 73.2313 105.017 73.1056 105.137C73.0805 105.161 73.0565 105.184 73.0314 105.207C72.8782 105.35 72.7249 105.492 72.5705 105.633C72.5477 105.654 72.5238 105.675 72.4999 105.696C72.3694 105.814 72.2377 105.932 72.106 106.048C72.0569 106.091 72.0066 106.134 71.9575 106.177C71.851 106.27 71.7432 106.363 71.6355 106.455C71.5756 106.505 71.5158 106.555 71.4559 106.605C71.3566 106.689 71.2584 106.772 71.159 106.855C71.0944 106.908 71.0285 106.961 70.9627 107.014C70.8669 107.092 70.7723 107.169 70.6766 107.246C70.6071 107.301 70.5377 107.354 70.4695 107.409C70.3761 107.483 70.2827 107.556 70.1881 107.629C70.1163 107.684 70.0445 107.738 69.9726 107.793C69.8793 107.864 69.7871 107.935 69.6925 108.004C69.6195 108.059 69.5453 108.113 69.471 108.168C69.3777 108.236 69.2855 108.305 69.1909 108.372C69.1155 108.427 69.0401 108.48 68.9646 108.534C68.8713 108.601 68.7779 108.667 68.6845 108.732C68.6079 108.786 68.5313 108.838 68.4535 108.891C68.3984 108.929 68.3433 108.966 68.287 109.004C64.7147 108.063 61.3375 102.242 59.3431 93.4653C59.0509 92.1806 57.7676 91.3742 56.4794 91.6652C55.1901 91.9563 54.3808 93.2339 54.6729 94.5187C57.4013 106.528 62.3647 113.405 68.6462 113.884C68.657 113.884 68.6689 113.884 68.6797 113.887C68.742 113.891 68.803 113.895 68.8701 113.899C69.908 113.965 70.9675 114 72.021 114C78.5755 114 84.9348 112.721 90.923 110.197C96.7053 107.76 101.899 104.273 106.358 99.8307C110.817 95.3883 114.318 90.2147 116.764 84.4529C119.297 78.4872 120.58 72.1505 120.58 65.6194C120.58 59.8886 119.584 54.2784 117.62 48.9461C116.22 45.1491 114.356 41.5632 112.061 38.2398C113.983 38.0656 115.885 37.7579 117.742 37.3093C134.731 33.2093 140.629 10.8698 128.522 2.92861L128.528 2.92622ZM115.799 65.617C115.799 77.2669 111.246 88.2177 102.978 96.4548C95.6338 103.771 86.1391 108.168 75.9142 109.058C75.9525 109.022 75.9908 108.985 76.0291 108.949C76.1907 108.8 76.3511 108.65 76.5115 108.498C76.5738 108.44 76.6349 108.38 76.6971 108.322C76.8946 108.131 77.0922 107.94 77.2861 107.746C77.2969 107.735 77.3077 107.724 77.3184 107.713C77.5243 107.508 77.7267 107.299 77.929 107.088C77.9852 107.03 78.0403 106.971 78.0966 106.912C78.251 106.75 78.4031 106.586 78.5551 106.423C78.609 106.364 78.6628 106.307 78.7155 106.249C78.9131 106.033 79.1082 105.814 79.3021 105.594C79.3189 105.575 79.3357 105.554 79.3536 105.534C79.5296 105.332 79.7044 105.128 79.878 104.922C79.9318 104.858 79.9869 104.792 80.0408 104.728C80.188 104.551 80.3329 104.373 80.4777 104.194C80.5232 104.138 80.5687 104.083 80.613 104.027C80.7974 103.797 80.9793 103.564 81.1601 103.331C81.1924 103.289 81.2248 103.246 81.2559 103.204C81.4055 103.009 81.554 102.812 81.7 102.613C81.7515 102.542 81.803 102.472 81.8545 102.401C81.9969 102.207 82.1382 102.01 82.2783 101.812C82.313 101.763 82.3489 101.714 82.3836 101.664C82.5548 101.42 82.7236 101.174 82.8912 100.926C82.9307 100.867 82.9702 100.808 83.0085 100.749C83.139 100.554 83.2683 100.357 83.3976 100.158C83.4455 100.082 83.4946 100.008 83.5425 99.9333C83.6837 99.7114 83.825 99.4883 83.9639 99.2629C83.9854 99.2283 84.007 99.1937 84.0285 99.1591C84.1865 98.9014 84.3434 98.6402 84.4978 98.3777C84.5397 98.3061 84.5804 98.2346 84.6223 98.1642C84.7396 97.9638 84.8558 97.761 84.9695 97.5582C85.0138 97.4807 85.0569 97.4031 85.1 97.3256C85.2496 97.0572 85.3981 96.7876 85.5441 96.5156C90.3208 87.5867 92.9306 76.476 93.2993 63.4912C93.3041 63.3111 93.3089 63.131 93.3137 62.952C93.4119 62.9258 93.5136 51.7864 92.1333 45.3089C92.0687 45.0036 92.0256 44.6958 91.9693 44.3904C91.9525 44.2986 91.9346 44.2067 91.9178 44.1137C91.8759 43.8942 91.834 43.6747 91.7909 43.4564C91.7718 43.3609 91.7526 43.2655 91.7335 43.1701C91.682 42.9184 91.6305 42.6667 91.5766 42.4173C91.5658 42.3672 91.5563 42.3171 91.5455 42.2682C91.4808 41.9724 91.415 41.6766 91.348 41.3831C91.3288 41.3008 91.3097 41.2197 91.2905 41.1374C91.2402 40.9214 91.1887 40.7067 91.1361 40.492C91.1121 40.3954 91.0882 40.2987 91.0642 40.2033C91.0092 39.9838 90.9541 39.7655 90.8966 39.5472C90.8775 39.4744 90.8595 39.4005 90.8404 39.3277C90.765 39.0426 90.6883 38.7599 90.6105 38.4784C90.5914 38.4092 90.571 38.3412 90.5519 38.272C90.4908 38.0549 90.4285 37.839 90.3663 37.6243C90.3388 37.53 90.31 37.4346 90.2825 37.3403C90.2226 37.1399 90.1616 36.9407 90.1005 36.7415C90.0742 36.658 90.049 36.5733 90.0227 36.491C89.9365 36.2178 89.8491 35.9446 89.7593 35.6739C89.745 35.6285 89.7294 35.5844 89.7138 35.5391C89.6372 35.31 89.5606 35.0822 89.4816 34.8555C89.4505 34.7649 89.4181 34.6754 89.387 34.5859C89.3212 34.3974 89.2529 34.209 89.1859 34.0217C89.1536 33.9346 89.1224 33.8463 89.0901 33.7592C89.065 33.6924 89.041 33.6256 89.0159 33.5588C94.0452 36.4063 100.066 38.0418 106.186 38.3519C109.161 42.0452 111.496 46.1583 113.129 50.5899C114.9 55.3938 115.796 60.4505 115.796 65.6182L115.799 65.617Z" fill="#43EC72"/>
<path d="M68.3313 40.9142C64.2238 24.7265 57.2994 12.5111 47.7509 4.60454C44.8849 2.23066 41.0049 1.32764 37.3751 2.18653C36.7861 2.3261 36.1923 2.47759 35.6081 2.63864C29.9527 4.19776 24.7007 6.71837 19.9971 10.1277C15.4527 13.4213 11.5439 17.4533 8.37744 22.1092C1.99657 31.4938 -0.893379 42.8407 0.24153 54.054C0.512088 56.7703 1.02567 59.502 1.76671 62.1706C4.87095 73.3457 11.9007 83.044 21.563 89.4785C29.5959 94.8287 39.014 97.6547 48.5602 97.6547C50.3739 97.6547 52.1948 97.5521 54.0085 97.3458C57.327 96.9688 60.3438 95.2176 62.2832 92.5431C66.6289 86.5512 69.4279 79.445 70.6023 71.4227C71.93 62.3519 71.1662 52.0869 68.3313 40.913V40.9142ZM12.3424 24.7861C15.1965 20.5883 18.7197 16.9547 22.814 13.9867C24.405 12.8332 26.0655 11.793 27.7882 10.8697C31.3605 13.7398 34.6527 17.7504 37.4481 22.6401C35.152 23.7829 33.3251 25.8144 32.201 28.5199C30.8793 31.7014 30.6937 35.4757 31.6778 39.1499C32.6607 42.824 34.709 46.0055 37.4445 48.1074C39.5982 49.7632 41.9866 50.6197 44.3629 50.6197C44.9699 50.6197 45.5768 50.5624 46.179 50.4503C46.4735 52.8564 46.6746 55.3018 46.7776 57.7485C47.0062 63.1607 46.7548 68.5001 46.0545 73.6069C38.176 75.0718 25.6082 74.912 8.59054 67.0257C7.70703 65.0514 6.96599 63.0056 6.38057 60.9001C5.71136 58.4928 5.24926 56.0307 5.00504 53.5816C3.98266 43.4753 6.58768 33.2498 12.34 24.7885L12.3424 24.7861ZM49.5849 41.8804C48.7553 43.8774 47.3642 45.2253 45.6666 45.6775C43.9691 46.1284 42.0883 45.65 40.3716 44.3295C38.4645 42.8634 37.0207 40.5873 36.306 37.92C35.5925 35.2527 35.7062 32.5627 36.6281 30.345C37.4577 28.3481 38.8488 27.0001 40.5464 26.548C40.963 26.4371 41.3904 26.3822 41.8249 26.3822C43.1574 26.3822 44.5461 26.8987 45.8426 27.8948C47.7497 29.3609 49.1935 31.637 49.9082 34.3043C50.6217 36.9716 50.508 39.6616 49.5873 41.8792L49.5849 41.8804ZM10.7598 71.2366C18.5521 74.4933 28.1402 77.3133 37.9844 77.3133C40.5033 77.3133 43.0401 77.1272 45.5673 76.718C44.5844 82.2865 43.0532 87.5293 41.0121 92.2258C35.061 91.1832 29.3338 88.9131 24.2255 85.5109C18.6706 81.8117 14.0819 76.9125 10.7598 71.2366ZM65.8651 70.7356C64.8033 77.9897 62.2928 84.3872 58.4032 89.7493C57.2504 91.3395 55.451 92.3809 53.4661 92.6063C50.332 92.963 47.1858 92.9726 44.0792 92.6517C48.2884 82.5943 50.302 70.2871 49.7681 57.6232C49.652 54.8736 49.4149 52.1263 49.0654 49.428C51.2191 48.2613 52.9346 46.2918 54.0085 43.7068C55.3301 40.5253 55.5157 36.7509 54.5316 33.0768C53.5475 29.4027 51.5004 26.2212 48.7649 24.1193C46.1611 22.1176 43.2148 21.2861 40.362 21.7215C37.587 16.7459 34.3104 12.5732 30.7261 9.43939C32.7098 8.56022 34.7653 7.82419 36.8843 7.23967C37.411 7.09414 37.9485 6.95695 38.4801 6.83051C39.0212 6.70286 39.5719 6.63964 40.1202 6.63964C41.7723 6.63964 43.4016 7.20985 44.6897 8.27511C53.4422 15.522 59.835 26.8964 63.6875 42.0844C66.3679 52.6488 67.0994 62.2887 65.8627 70.7368L65.8651 70.7356Z" fill="#43EC72"/>
<path d="M97.5483 61.8663C97.7518 60.7856 97.8691 59.6499 97.8979 58.494C97.9314 57.1436 97.8428 55.7861 97.6369 54.4596C97.2813 52.1811 98.8472 50.047 101.134 49.6927C103.42 49.3384 105.562 50.8988 105.918 53.1772C106.201 54.994 106.321 56.8514 106.276 58.698C106.236 60.3001 106.071 61.8842 105.786 63.404C105.43 65.2936 103.85 66.6451 102.016 66.7966C101.65 66.8264 101.274 66.8097 100.896 66.7382C98.621 66.3135 97.1233 64.1317 97.5495 61.8651L97.5483 61.8663Z" fill="#43EC72"/>
<path d="M91.0271 84.1189C89.7079 84.1189 88.6364 83.0549 88.6328 81.7403C88.6292 80.4221 89.6983 79.3509 91.02 79.3473C95.0005 79.3354 97.9659 77.75 99.3797 76.8064C100.478 76.0728 101.966 76.365 102.702 77.4601C103.438 78.5552 103.145 80.0368 102.046 80.7704C100.183 82.0146 96.2743 84.1046 91.0331 84.1201H91.0259L91.0271 84.1189Z" fill="#43EC72"/>
<path d="M67.4057 60.6139H67.3985C62.1585 60.5984 58.2498 58.5097 56.387 57.2643C55.288 56.5306 54.9947 55.049 55.731 53.954C56.4672 52.8601 57.9541 52.5666 59.0531 53.3002C60.4669 54.2438 63.4335 55.8304 67.4129 55.8411C68.7357 55.8447 69.8036 56.9159 69.8 58.2341C69.7964 59.5499 68.725 60.6128 67.4057 60.6128V60.6139Z" fill="#43EC72"/>
</svg>
