<svg width="413" height="380" viewBox="0 0 413 380" fill="none" xmlns="http://www.w3.org/2000/svg">
<path d="M256.638 329.975C256.638 329.975 254.617 363.664 257.315 378.607L411.582 379.632C411.582 379.632 423.537 221.648 346.844 188.932C331.536 182.401 314.006 183.692 299.625 192.07C288.266 198.687 273.068 209.953 256.36 228.873C248.098 238.229 239.373 247.168 230.116 255.546L227.881 257.566L193.266 219.419L194.429 194.524C194.777 187.114 189.642 180.572 182.364 179.147L165.262 175.801V159.37C165.262 156.099 162.61 153.442 159.334 153.442C156.062 153.442 153.405 156.094 153.405 159.37V163.678L138.862 189.539L136.922 200.927C135.573 208.836 137.322 216.953 141.797 223.611L154.76 242.878L197.701 311.918C205.285 324.111 218.039 332.158 232.31 333.756C245.528 335.232 258.751 331.029 268.691 322.189L299.41 294.862" fill="#80B1F0"/>
<path d="M268.686 322.2C268.686 322.2 259.405 328.847 256.638 329.982C256.638 329.982 250.362 344.235 251.12 379.644H411.582C411.582 379.644 423.537 221.66 346.844 188.944C331.536 182.413 314.006 183.704 299.625 192.081C288.266 198.699 273.068 209.965 256.36 228.885C252.284 233.505 248.092 238.021 243.779 242.415C239.356 246.925 234.805 251.314 230.116 255.557L268.691 322.206L271.661 319.566L299.41 294.886" fill="#1065B9"/>
<path d="M129.502 172.742L145.18 158.93C149.324 155.279 155.642 155.679 159.292 159.822L189.569 194.189C193.219 198.332 192.819 204.65 188.676 208.3L172.998 222.113C168.855 225.763 162.537 225.363 158.886 221.22L128.61 186.854C124.959 182.71 125.359 176.392 129.502 172.742Z" fill="#1E2F46" stroke="#1E2F46" stroke-miterlimit="10"/>
<path d="M133.49 175.2L147.118 163.194C149.726 160.896 153.702 161.148 156 163.756L185.059 196.741C187.357 199.349 187.105 203.325 184.498 205.623L170.87 217.629C168.262 219.926 164.286 219.675 161.988 217.067L132.928 184.082C130.631 181.474 130.882 177.497 133.49 175.2Z" fill="white"/>
<path d="M172.001 222.36C172.001 222.36 162.008 209.039 153.613 210.341C153.613 210.341 155.431 190.541 144.176 189.053C141.322 188.677 138.682 190.645 138.219 193.488L136.586 203.527C136.332 205.854 136.471 208.228 136.806 210.735C138.045 217.943 139.603 219.674 140.772 221.996L153.104 240.429L162.274 234.2L174.415 225.736L172.001 222.354V222.36Z" fill="#80B1F0"/>
<path d="M310.155 160.361C276.454 160.361 249.134 133.041 249.134 99.3395C249.134 65.6383 276.454 38.3181 310.155 38.3181C343.856 38.3181 371.176 65.6383 371.176 99.3395C371.176 133.041 343.856 160.361 310.155 160.361Z" fill="#80B1F0"/>
<path d="M242.87 26.1253C266.903 12.5721 293.61 36.7548 293.61 36.7548C310.631 4.97047 349.785 52.9365 349.785 52.9365C374.923 75.3766 370.969 104.353 370.969 104.353C363.234 163.192 306.312 160.361 306.312 160.361C301.344 157.315 293.482 143.913 286.5 130.44C286.79 130.452 287.085 130.464 287.374 130.464C297.332 130.464 305.403 122.393 305.403 112.435C305.403 102.477 297.332 94.4066 287.374 94.4066C281.342 94.4066 276.756 94.8756 271.91 99.4956C271.754 99.4146 271.569 99.3335 271.569 99.3335C252.4 92.8088 240.937 84.385 234.146 76.1408C221.061 60.2486 224.935 36.2338 242.87 26.1195V26.1253Z" fill="#1E2F46"/>
<path d="M262.306 111.098C262.306 111.098 261.38 117.628 252.649 119.805" stroke="#1E2F46" stroke-width="7" stroke-miterlimit="10" stroke-linecap="round"/>
<path d="M134.171 135.48C141.022 134.041 145.214 127.432 143.534 120.719C141.855 114.005 134.94 109.729 128.089 111.167C121.238 112.606 117.046 119.215 118.726 125.929C120.405 132.642 127.32 136.919 134.171 135.48Z" fill="#A4CEFF"/>
<path d="M166.247 138.87C170.284 138.022 172.754 134.128 171.764 130.172C170.774 126.216 166.7 123.696 162.663 124.544C158.626 125.392 156.156 129.286 157.145 133.242C158.135 137.198 162.21 139.718 166.247 138.87Z" fill="#A4CEFF"/>
<path d="M143.706 70.3862C146.744 82.5339 139.157 94.538 126.765 97.1419C126.189 97.2628 125.636 97.3477 125.053 97.439C122.447 104.489 116.361 109.738 108.725 111.342C101.272 112.909 93.4877 110.73 87.8663 105.722C84.6676 110.02 79.992 113.003 74.5382 114.149C64.7818 116.199 54.6928 111.817 49.4498 103.602C48.5631 103.882 47.6615 104.103 46.7526 104.294C31.8151 107.433 16.6871 98.0755 13.0333 83.4626C9.40923 68.9684 18.3685 54.6751 32.9968 51.3201C33.5564 35.4467 44.9943 21.8831 61.0832 18.5025C73.0514 15.9878 85.8228 19.6191 94.8713 28.0029C95.614 27.7844 96.3337 27.6019 97.0306 27.4554C111.938 24.3232 127.066 33.6804 130.72 48.2933C131.284 50.5506 131.545 52.8715 131.527 55.2201C137.596 58.3214 142.072 63.852 143.706 70.3862Z" fill="#A4CEFF"/>
<path d="M56.1461 74.5456C62.6713 74.0959 67.5016 68.6891 66.9348 62.469C66.368 56.249 60.6189 51.5712 54.0937 52.0209C47.5685 52.4706 42.7383 57.8775 43.305 64.0975C43.8718 70.3176 49.621 74.9953 56.1461 74.5456Z" fill="#1065B9"/>
<path d="M82.5532 85.213C87.9908 84.8383 92.016 80.3325 91.5437 75.1492C91.0714 69.9658 86.2805 66.0677 80.8428 66.4424C75.4052 66.8172 71.3799 71.3229 71.8523 76.5063C72.3246 81.6896 77.1155 85.5878 82.5532 85.213Z" fill="#1065B9"/>
<path d="M107.037 77.357C110.903 77.0905 113.766 73.8864 113.43 70.2005C113.094 66.5145 109.687 63.7425 105.82 64.009C101.953 64.2755 99.0911 67.4796 99.427 71.1655C99.7628 74.8514 103.17 77.6235 107.037 77.357Z" fill="#1065B9"/>
</svg>
