<svg width="371" height="387" viewBox="0 0 371 387" fill="none" xmlns="http://www.w3.org/2000/svg">
<path d="M215.264 151.876C216.189 168.144 222.872 181.826 226.52 188.179C227.957 190.682 230.811 191.957 233.537 191.247C248.386 187.379 258.936 169.736 257.771 149.283C256.606 128.83 244.126 112.595 228.94 110.557C226.151 110.184 223.46 111.795 222.32 114.457C219.42 121.212 214.339 135.613 215.264 151.88L215.264 151.876Z" fill="#4A9DFF"/>
<path d="M210.544 117.713C207.255 117.135 203.821 117.118 200.344 117.74L132.503 129.89C130.185 130.307 127.976 130.984 125.901 131.891C118.631 110.98 108.05 93.3657 95.7495 80.8876C94.5789 79.7019 93.3932 78.5617 92.1929 77.4707C105.814 66.6382 122.435 59.4978 140.787 57.6485C159.139 55.7993 176.39 59.4108 191.649 67.1419C201.17 80.0875 207.785 97.6673 210.541 117.717L210.544 117.713Z" fill="#A8D0FF"/>
<path d="M244.477 145.935C249.493 199.271 212.328 246.788 161.152 253.037C160.501 253.119 159.845 253.193 159.189 253.259C107.003 258.518 60.5764 218.993 55.496 164.978C52.2021 129.957 67.0959 97.445 92.1969 77.4706C93.3937 78.5659 94.5829 79.7018 95.7535 80.8875C108.054 93.3696 118.635 110.984 125.905 131.891C113.244 137.408 105.456 151.404 107.901 166.016L109.013 172.681C111.856 189.688 127.48 201.089 143.915 198.146L211.756 185.996C228.187 183.052 239.202 166.881 236.359 149.874L235.246 143.209C233.003 129.797 222.814 119.869 210.544 117.713C207.788 97.6632 201.171 80.0878 191.653 67.1418C220.269 81.6355 241.167 110.7 244.48 145.93L244.477 145.935Z" fill="#89BFFF"/>
<path d="M167.777 111.649C172.113 111.212 175.286 107.219 174.864 102.731C174.442 98.2423 170.584 94.9578 166.248 95.3948C161.911 95.8318 158.738 99.8247 159.16 104.313C159.583 108.802 163.44 112.086 167.777 111.649Z" fill="#62AAFF"/>
<path d="M82.5631 165.248C84.6865 181.395 80.6788 196.154 78.2832 203.117C77.3395 205.859 74.7762 207.68 71.9696 207.528C56.6781 206.697 43.0387 191.491 40.3705 171.19C37.7022 150.888 46.9232 132.466 61.4438 127.435C64.1109 126.512 67.0514 127.556 68.6661 129.94C72.7706 135.989 80.4401 149.105 82.5635 165.252L82.5631 165.248Z" fill="#4A9DFF"/>
<path d="M212.993 189.817L140.919 199.759C123.46 202.168 107.424 189.333 105.101 171.097L104.19 163.949C102.192 148.28 110.963 133.719 124.548 128.403C126.777 127.529 129.133 126.905 131.593 126.565L203.663 116.624C207.355 116.116 210.98 116.285 214.425 117.046C227.287 119.884 237.648 130.908 239.478 145.29L240.389 152.438C242.713 170.673 230.445 187.413 212.99 189.822L212.993 189.817Z" fill="#192F48" stroke="#C1DEFF" stroke-width="13" stroke-miterlimit="10"/>
<path d="M140.853 152.03L139.515 152.21C135.57 152.742 132.789 156.483 133.302 160.566L135.557 178.488C136.071 182.571 139.685 185.45 143.63 184.918L144.968 184.738C148.913 184.206 151.694 180.465 151.181 176.382L148.926 158.46C148.412 154.377 144.797 151.498 140.853 152.03Z" fill="#43EC72"/>
<path d="M207.622 143.319L206.284 143.5C202.339 144.031 199.558 147.772 200.072 151.855L202.327 169.777C202.841 173.86 206.455 176.739 210.4 176.207L211.738 176.027C215.682 175.495 218.464 171.754 217.95 167.671L215.695 149.749C215.181 145.666 211.567 142.787 207.622 143.319Z" fill="#43EC72"/>
<path d="M324.156 184.672C340.236 183.051 352.002 168.246 350.437 151.602C348.871 134.959 334.567 122.78 318.487 124.4C302.408 126.021 290.642 140.826 292.207 157.47C293.772 174.113 308.077 186.292 324.156 184.672Z" fill="#4A9DFF"/>
<path d="M293.239 87.8964C315.346 85.6689 331.521 65.3143 329.369 42.4331C327.217 19.552 307.552 2.80893 285.446 5.03648C263.34 7.26403 247.164 27.6187 249.316 50.4998C251.468 73.3809 271.133 90.124 293.239 87.8964Z" fill="#43EC72"/>
<path d="M253.353 59.597L246.771 76.6767C245.297 80.4968 248.447 84.3054 252.721 83.8788L277.369 81.407L253.353 59.6009L253.353 59.597Z" fill="#43EC72"/>
<path d="M281.165 51.2931C282.026 44.3535 286.364 43.1789 291.77 40.2581C293.511 39.3094 295.271 38.2111 295.562 36.1407C295.997 33.0312 293.66 30.9426 289.37 30.2985C286.741 29.9017 284.308 30.3621 282.238 31.2046C280.283 31.9995 278.094 30.8806 277.583 28.7714L277.131 26.9074C276.746 25.3157 277.447 23.6385 278.856 22.8866C281.525 21.4615 286.033 20.0426 292.643 21.0349C301.8 22.4084 307.112 29.332 306.116 36.4406C305.254 42.587 302.438 44.9596 299.276 47.2078C296.217 49.2861 291.482 50.2496 290.859 54.1115L290.861 54.1312C290.548 56.0484 288.814 57.3552 286.959 57.0758L283.931 56.6234C282.068 56.3448 280.764 54.5666 281.006 52.6326L281.173 51.2963L281.165 51.2931ZM284.897 60.6243C288.905 61.225 291.288 64.0026 290.729 68.0017C290.169 72.0008 287.118 73.9626 283.11 73.3619C279.106 72.7608 276.718 69.9835 277.278 65.9844C277.838 61.9854 280.889 60.0235 284.893 60.6247L284.897 60.6243Z" fill="white"/>
<path opacity="0.1" d="M221.033 335.572L281.823 360.485C287.419 362.78 293.79 361.56 298.228 357.349L346.221 311.775L284.839 292.227L220.702 322.637C215.264 325.214 215.468 333.286 221.029 335.568L221.033 335.572Z" fill="#192F48"/>
<path d="M345.167 254.993L349.223 305.688C349.419 308.14 348.258 310.497 346.225 311.775L293.679 344.776L293.638 344.8L292.558 345.475C292.558 345.475 292.55 345.476 292.547 345.48C291.646 345.929 290.597 346.242 289.46 346.357C289.406 346.362 289.349 346.368 289.295 346.37L282.823 277.561L284.936 276.275L340.79 252.233C342.778 251.379 344.989 252.775 345.167 254.993Z" fill="#7A8695"/>
<path d="M282.824 277.561L289.296 346.37C288.065 346.474 286.892 346.329 285.878 345.992L284.929 345.598C284.929 345.598 284.913 345.591 284.904 345.584L284.8 345.543L239.317 326.534C237.112 325.612 235.56 323.524 235.265 321.082L228.567 265.682C228.275 263.264 230.473 261.328 232.732 262.014L279.178 276.102C281.358 276.763 282.824 277.561 282.824 277.561Z" fill="#B5BCC4"/>
<path d="M230.679 262.085L278.195 277.979C281.293 279.014 284.656 278.819 287.621 277.424L341.739 251.994L292.115 238.35C288.529 237.364 284.725 237.663 281.326 239.198L230.678 262.077L230.679 262.085Z" fill="#CCD1D7"/>
<path d="M274.492 251.056L313.604 251.911C315.506 251.955 316.025 254.641 314.282 255.435L282.211 270.064C280.102 271.026 277.653 269.917 276.898 267.669L272.355 254.094C271.852 252.59 272.952 251.024 274.488 251.057L274.492 251.056Z" fill="#22374F"/>
<path d="M267.386 321.495C273.201 318.12 273.492 307.22 268.037 297.149C262.581 287.078 253.444 281.65 247.629 285.025C241.814 288.4 241.523 299.3 246.979 309.371C252.434 319.442 261.571 324.87 267.386 321.495Z" fill="#22374F"/>
<path d="M315.223 277.485L303.364 297.297C302.605 298.565 302.483 300.132 303.032 301.512L309.071 316.619C310.129 319.267 313.234 320.297 315.583 318.781L328.731 310.296C329.879 309.555 330.644 308.317 330.81 306.925L333.455 284.677C333.702 282.595 332.571 280.6 330.69 279.813L320.717 275.624C318.693 274.775 316.375 275.559 315.223 277.481L315.223 277.485Z" fill="#22374F"/>
<path d="M333.451 284.678L330.81 306.925C330.644 308.318 329.882 309.554 328.731 310.296L325.71 312.247L328.643 287.574C328.89 285.492 327.755 283.501 325.878 282.71L314.859 278.084L315.222 277.481C316.374 275.559 318.692 274.775 320.718 275.628L330.69 279.813C332.566 280.601 333.701 282.595 333.451 284.678Z" fill="#506174"/>
<path d="M314.282 255.435L312.472 256.259L272.863 255.606L272.355 254.09C271.852 252.586 272.952 251.02 274.492 251.056L313.604 251.911C315.506 251.951 316.025 254.641 314.282 255.435Z" fill="#506174"/>
<path d="M257.395 285.748C256.864 285.459 256.327 285.198 255.786 284.977C247.871 281.732 242.224 287.3 243.175 297.414C244.127 307.528 251.315 318.356 259.231 321.601C259.323 321.64 259.415 321.67 259.506 321.705C256.642 318.035 254.646 314.7 253.302 312.208C250.646 307.273 248.99 304.116 248.709 299.615C248.556 297.131 248.306 293.162 250.901 289.791C253.074 286.973 256.084 286.059 257.392 285.752L257.395 285.748Z" fill="#506174"/>
<path d="M331.803 170.06C331.946 171.584 331.953 173.094 331.838 174.573C330.894 186.404 321.891 196.214 310.068 197.405C296.771 198.745 284.94 188.675 283.645 174.912C283.603 174.458 283.572 174.007 283.552 173.554C283 160.351 292.518 148.859 305.38 147.563C318.241 146.267 330.508 156.293 331.803 170.06Z" fill="#FFD830"/>
<path d="M331.802 170.06C331.946 171.584 331.953 173.094 331.838 174.573C327.21 180.728 319.666 185.128 310.83 186.018C299.239 187.186 288.701 181.985 283.553 173.558C283 160.355 292.519 148.863 305.38 147.567C318.242 146.271 330.508 156.297 331.803 170.064L331.802 170.06Z" fill="#FFEF5D"/>
<path d="M322.124 166.16C324.25 164.028 323.746 159.922 321 156.989C318.254 154.055 314.304 153.406 312.179 155.538C310.054 157.67 310.557 161.776 313.303 164.709C316.049 167.642 319.999 168.292 322.124 166.16Z" fill="white"/>
<path d="M51.375 288.604C65.8469 287.146 76.4366 273.821 75.0277 258.842C73.6188 243.862 60.7449 232.901 46.273 234.36C31.8011 235.818 21.2115 249.143 22.6204 264.122C24.0292 279.102 36.9031 290.063 51.375 288.604Z" fill="#4A9DFF"/>
</svg>
