<svg width="833" height="615" viewBox="0 0 833 615" fill="none" xmlns="http://www.w3.org/2000/svg">
<g clip-path="url(#clip0_101_1124)">
<rect width="833" height="615" fill="white"/>
<path d="M833 0H0V615H833V0Z" fill="#FDF6B2"/>
<path d="M833 550H0V615H833V550Z" fill="#F9D862"/>
<path d="M604.5 257C623.554 257 639 241.554 639 222.5C639 203.446 623.554 188 604.5 188C585.446 188 570 203.446 570 222.5C570 241.554 585.446 257 604.5 257Z" fill="#F3B959"/>
<path d="M604.447 251.091L604.574 251.091C605.083 251.088 605.494 250.673 605.491 250.164L605.478 247.509C605.475 247 605.06 246.589 604.551 246.592L604.424 246.592C603.915 246.595 603.504 247.01 603.506 247.519L603.52 250.174C603.522 250.683 603.937 251.094 604.447 251.091Z" fill="#FDF6B2"/>
<path d="M590.252 247.327L590.362 247.389C590.804 247.642 591.368 247.488 591.62 247.045L592.936 244.74C593.188 244.298 593.034 243.734 592.592 243.482L592.482 243.419C592.039 243.166 591.476 243.32 591.223 243.763L589.908 246.068C589.655 246.511 589.809 247.074 590.252 247.327Z" fill="#FDF6B2"/>
<path d="M579.842 236.968L579.906 237.078C580.163 237.518 580.728 237.666 581.168 237.409L583.46 236.071C583.899 235.814 584.048 235.249 583.791 234.809L583.727 234.699C583.47 234.259 582.905 234.111 582.465 234.368L580.173 235.707C579.733 235.964 579.585 236.529 579.842 236.968Z" fill="#FDF6B2"/>
<path d="M576.003 222.794L576.004 222.921C576.007 223.431 576.422 223.842 576.931 223.839L579.586 223.826C580.095 223.823 580.506 223.408 580.503 222.899L580.503 222.772C580.5 222.262 580.085 221.851 579.576 221.854L576.921 221.867C576.412 221.87 576.001 222.285 576.003 222.794Z" fill="#FDF6B2"/>
<path d="M579.766 208.598L579.703 208.708C579.451 209.151 579.605 209.714 580.047 209.967L582.353 211.282C582.795 211.535 583.359 211.381 583.611 210.938L583.674 210.828C583.926 210.386 583.772 209.822 583.33 209.57L581.025 208.254C580.582 208.002 580.019 208.156 579.766 208.598Z" fill="#FDF6B2"/>
<path d="M590.123 198.185L590.013 198.249C589.573 198.506 589.425 199.071 589.682 199.511L591.021 201.803C591.278 202.243 591.843 202.391 592.283 202.134L592.392 202.07C592.832 201.814 592.98 201.249 592.723 200.809L591.385 198.517C591.128 198.077 590.563 197.928 590.123 198.185Z" fill="#FDF6B2"/>
<path d="M604.295 194.35L604.169 194.35C603.659 194.353 603.248 194.768 603.251 195.277L603.264 197.932C603.267 198.441 603.682 198.852 604.191 198.85L604.318 198.849C604.828 198.846 605.239 198.431 605.236 197.922L605.223 195.267C605.22 194.758 604.805 194.347 604.295 194.35Z" fill="#FDF6B2"/>
<path d="M618.493 198.107L618.383 198.044C617.941 197.792 617.377 197.946 617.125 198.388L615.809 200.694C615.557 201.136 615.711 201.7 616.153 201.952L616.264 202.015C616.706 202.268 617.269 202.114 617.522 201.671L618.837 199.366C619.09 198.923 618.936 198.36 618.493 198.107Z" fill="#FDF6B2"/>
<path d="M628.906 208.467L628.842 208.357C628.585 207.917 628.02 207.769 627.58 208.026L625.288 209.365C624.849 209.621 624.7 210.186 624.957 210.626L625.021 210.736C625.278 211.176 625.843 211.324 626.283 211.067L628.575 209.728C629.015 209.471 629.163 208.907 628.906 208.467Z" fill="#FDF6B2"/>
<path d="M632.746 222.646L632.745 222.519C632.742 222.01 632.327 221.599 631.818 221.601L629.164 221.615C628.654 221.617 628.243 222.033 628.246 222.542L628.246 222.669C628.249 223.178 628.664 223.589 629.173 223.587L631.828 223.573C632.337 223.571 632.748 223.156 632.746 222.646Z" fill="#FDF6B2"/>
<path d="M628.98 236.843L629.043 236.733C629.295 236.291 629.141 235.727 628.699 235.475L626.393 234.159C625.951 233.907 625.387 234.061 625.135 234.503L625.072 234.613C624.82 235.056 624.974 235.619 625.416 235.872L627.722 237.187C628.164 237.44 628.727 237.286 628.98 236.843Z" fill="#FDF6B2"/>
<path d="M618.619 247.254L618.729 247.19C619.169 246.933 619.317 246.369 619.06 245.929L617.721 243.637C617.464 243.197 616.899 243.048 616.46 243.305L616.35 243.369C615.91 243.626 615.762 244.191 616.019 244.631L617.357 246.923C617.614 247.363 618.179 247.511 618.619 247.254Z" fill="#FDF6B2"/>
<path d="M605 223L615 207" stroke="#FDF6B2" stroke-width="2" stroke-linecap="round" stroke-linejoin="round"/>
<path d="M605 223L612 228" stroke="#FDF6B2" stroke-width="2" stroke-linecap="round" stroke-linejoin="round"/>
<path d="M554.16 432H655.924C683.141 432 705.237 454.096 705.237 481.313V557.646H504.851V481.313C504.851 454.096 526.947 432 554.164 432H554.16Z" fill="#F9D862"/>
<path d="M685.245 509.153H524.835C522.423 509.153 520.467 511.108 520.467 513.521V553.358C520.467 555.771 522.423 557.726 524.835 557.726H685.245C687.657 557.726 689.613 555.771 689.613 553.358V513.521C689.613 511.108 687.657 509.153 685.245 509.153Z" fill="#F3B959"/>
<path d="M506.336 485.164H517.413C528.086 485.164 536.75 493.828 536.75 504.5V554.723C536.75 556.383 535.403 557.73 533.743 557.73H490.007C488.347 557.73 487 556.383 487 554.723V504.5C487 493.828 495.664 485.164 506.336 485.164Z" fill="#FFE994"/>
<path d="M691.569 485.164H702.646C713.319 485.164 721.982 493.828 721.982 504.5V554.723C721.982 556.383 720.635 557.73 718.975 557.73H675.239C673.579 557.73 672.232 556.383 672.232 554.723V504.5C672.232 493.828 680.896 485.164 691.569 485.164Z" fill="#FFE994"/>
<circle cx="64.2389" cy="65.7964" r="30.2389" fill="#F3B959"/>
<path d="M66.6107 88.3274C80.364 88.3274 91.5133 77.1781 91.5133 63.4248C91.5133 49.6714 80.364 38.5221 66.6107 38.5221C52.8573 38.5221 41.708 49.6714 41.708 63.4248C41.708 77.1781 52.8573 88.3274 66.6107 88.3274Z" fill="#80B1F0"/>
<path d="M94.2552 33.6792C84.4143 28.1624 73.4782 38.0058 73.4782 38.0058C66.5083 25.0683 50.4752 44.5924 50.4752 44.5924C40.1816 53.7265 41.8007 65.5211 41.8007 65.5211C44.968 89.4709 68.2769 88.3186 68.2769 88.3186C70.311 87.079 73.5304 81.6235 76.3895 76.1398C76.2709 76.1445 76.15 76.1492 76.0315 76.1492C71.9538 76.1492 68.6491 72.8642 68.6491 68.8109C68.6491 64.7576 71.9538 61.4725 76.0315 61.4725C78.5018 61.4725 80.3794 61.6634 82.3637 63.544C82.4277 63.511 82.5035 63.478 82.5035 63.478C90.353 60.8221 95.047 57.3933 97.8278 54.0376C103.186 47.5688 101.6 37.7937 94.2552 33.6768V33.6792Z" fill="#1E2F46"/>
<path d="M86.1768 68.1681C86.1768 68.1681 86.5749 70.8362 90.3272 71.7256" stroke="#1E2F46" stroke-width="2" stroke-miterlimit="10" stroke-linecap="round"/>
<path d="M503.518 67.0001H119.482C114.798 67.0001 111 71.0296 111 76.0001C111 80.9707 114.798 85.0001 119.482 85.0001H503.518C508.202 85.0001 512 80.9707 512 76.0001C512 71.0296 508.202 67.0001 503.518 67.0001Z" fill="#F3B959"/>
<path d="M191.795 71.0001H120.205C117.33 71.0001 115 73.2387 115 76.0001C115 78.7616 117.33 81.0001 120.205 81.0001H191.795C194.67 81.0001 197 78.7616 197 76.0001C197 73.2387 194.67 71.0001 191.795 71.0001Z" fill="white"/>
<path d="M423.808 60.0797L426.98 54.8386C427.468 54.0323 426.887 53 425.944 53L419.599 53C418.656 53 418.075 54.0323 418.563 54.8386L421.735 60.0797C422.204 60.8595 423.334 60.8595 423.804 60.0797L423.808 60.0797Z" fill="#1E2F46"/>
<rect x="421" y="66.0001" width="3" height="22" rx="1.5" fill="#1E2F46"/>
<circle cx="564.397" cy="64.0617" r="31.5844" fill="#1E2F46"/>
<path d="M538.991 59.8611C539.175 64.7162 537.536 68.9762 536.61 70.9708C536.246 71.7563 535.415 72.22 534.567 72.0911C529.949 71.3872 526.242 66.4671 526.011 60.3627C525.781 54.2584 529.107 49.0673 533.659 48.0085C534.495 47.8145 535.358 48.212 535.78 48.9679C536.854 50.8856 538.808 55.0072 538.991 59.8623V59.8611Z" fill="#4A9DFF"/>
<path d="M539.625 49.4211C540.604 49.158 541.643 49.053 542.713 49.1315L563.596 50.6697C564.309 50.7228 564.997 50.8543 565.651 51.0563C567.257 44.7914 569.958 39.384 573.326 35.4132C573.647 35.0359 573.973 34.6712 574.306 34.3204C569.874 31.5821 564.639 30 559.031 30C553.423 30 548.049 31.6522 543.65 34.3351C541.137 38.3601 539.579 43.5371 539.315 49.4211H539.625Z" fill="#A8D0FF"/>
<path d="M529.717 59.1215C529.717 74.9871 542.422 87.8854 558.218 88.2073C558.419 88.212 558.621 88.2144 558.823 88.2144C574.898 88.2144 587.931 75.1892 587.931 59.1215C587.931 48.7041 582.453 39.5661 574.22 34.4255C573.886 34.7838 573.556 35.1539 573.233 35.538C569.837 39.5813 567.114 45.086 565.496 51.4624C569.518 52.7123 572.296 56.6052 571.969 60.9834L571.821 62.9804C571.442 68.0763 567.002 71.9 561.902 71.5206L540.852 69.9547C535.754 69.5752 531.928 65.1372 532.308 60.0413L532.456 58.0443C532.755 54.0256 535.58 50.7975 539.262 49.7978C539.527 43.8079 541.042 38.4325 543.575 34.3351C535.259 39.4556 529.716 48.6407 529.716 59.1203L529.717 59.1215Z" fill="#89BFFF"/>
<path d="M552.32 46.7211C551.123 46.7211 550.153 45.6121 550.153 44.2439C550.153 42.8758 551.123 41.7667 552.32 41.7667C553.517 41.7667 554.488 42.8758 554.488 44.2439C554.488 45.6121 553.517 46.7211 552.32 46.7211Z" fill="#62AAFF"/>
<path d="M579.894 59.8611C579.71 64.7162 581.348 68.9762 582.274 70.9708C582.639 71.7563 583.47 72.22 584.317 72.0911C588.936 71.3872 592.643 66.4671 592.873 60.3627C593.104 54.2584 589.778 49.0673 585.226 48.0085C584.39 47.8145 583.527 48.212 583.105 48.9679C582.031 50.8856 580.077 55.0072 579.894 59.8623V59.8611Z" fill="#4A9DFF"/>
<path d="M540.92 70.71L562.98 71.4871C568.324 71.6756 572.805 67.4834 572.989 62.1255L573.061 60.0254C573.219 55.4215 570.155 51.4537 565.899 50.3088C565.201 50.1203 564.471 50.0081 563.718 49.9815L541.659 49.2044C540.529 49.165 539.438 49.32 538.419 49.6415C534.613 50.8408 531.796 54.3414 531.652 58.5671L531.579 60.6672C531.396 66.0251 535.578 70.5226 540.921 70.7111L540.92 70.71Z" fill="#192F48" stroke="#C1DEFF" stroke-width="6" stroke-miterlimit="10"/>
<path d="M561.71 57.6211L562.123 57.6345C563.34 57.674 564.294 58.6926 564.255 59.9097L564.081 65.2516C564.042 66.4686 563.023 67.4232 561.806 67.3836L561.393 67.3702C560.176 67.3307 559.222 66.3121 559.261 65.0951L559.435 59.7531C559.474 58.5361 560.493 57.5816 561.71 57.6211Z" fill="#43EC72"/>
<path d="M541.118 57.0375L541.531 57.0509C542.748 57.0904 543.703 58.109 543.663 59.326L543.49 64.668C543.45 65.885 542.432 66.8395 541.215 66.8L540.802 66.7866C539.585 66.7471 538.63 65.7285 538.67 64.5114L538.843 59.1695C538.883 57.9525 539.901 56.9979 541.118 57.0375Z" fill="#43EC72"/>
<path d="M532.747 228.625L260.297 228.625C255.678 228.625 251.9 232.355 251.9 236.916V267.057C251.9 271.586 255.65 275.289 260.237 275.289H286.107V280.585C286.107 283.806 289.745 285.722 292.454 283.936L305.558 275.289L532.855 275.289C537.282 275.289 540.9 271.713 540.9 267.346V236.671C540.9 232.245 537.234 228.621 532.747 228.621V228.625Z" fill="#F9D249"/>
<path d="M318.804 258.192C315.62 258.192 313.028 256.048 313.028 252.496C313.028 248.944 315.62 246.8 318.804 246.8C322.004 246.8 324.58 248.944 324.58 252.496C324.58 256.048 322.004 258.192 318.804 258.192ZM318.804 256.368C320.852 256.368 322.436 254.88 322.436 252.48C322.436 250.08 320.852 248.608 318.804 248.608C316.756 248.608 315.172 250.08 315.172 252.48C315.172 254.88 316.772 256.368 318.804 256.368ZM327.365 246.768H329.205L330.565 249.088H329.061L327.365 246.768ZM331.077 256.912C330.629 257.68 329.797 258.144 328.677 258.144C327.733 258.144 327.093 257.888 326.661 257.456C326.085 256.864 325.909 255.92 325.909 254.848V250.256H327.957V254.4C327.957 255.552 328.149 256.464 329.333 256.464C330.565 256.464 331.029 255.488 331.029 254.192V250.256H333.077V258H331.093L331.077 256.912ZM337.188 250.256H339.316L341.411 255.84L343.508 250.256H345.556L342.372 258H340.372L337.188 250.256ZM353.547 256.928C353.115 257.376 351.947 258.176 350.059 258.176C347.723 258.176 345.995 256.752 345.995 254.256C345.995 251.776 347.803 250.112 350.011 250.112C352.395 250.112 353.835 251.68 353.835 253.744C353.835 254.144 353.803 254.784 353.803 254.784H348.107C348.299 256.016 349.243 256.608 350.411 256.608C351.451 256.608 352.379 256.144 352.747 255.824L353.547 256.928ZM351.787 253.456C351.755 252.608 351.435 251.632 349.995 251.632C348.779 251.632 348.139 252.48 348.075 253.456H351.787ZM360.218 256.912C359.77 257.68 358.938 258.144 357.818 258.144C356.874 258.144 356.234 257.888 355.802 257.456C355.226 256.864 355.05 255.92 355.05 254.848V250.256H357.098V254.4C357.098 255.552 357.29 256.464 358.474 256.464C359.706 256.464 360.17 255.488 360.17 254.192V250.256H362.218V258H360.234L360.218 256.912ZM366.1 253.936L363.412 250.256H365.748L367.364 252.784L368.98 250.256H371.316L368.628 253.952L371.652 258H369.3L367.364 255.168L365.428 258H363.076L366.1 253.936ZM371.604 252.848H375.78V254.48H371.604V252.848ZM381.323 257.92C381.227 257.952 380.619 258.176 379.755 258.176C378.987 258.176 378.427 258.016 378.075 257.616C377.675 257.184 377.515 256.496 377.515 255.44V251.856H376.363V250.272H377.515V248.064H379.547V250.272H381.339V251.856H379.547V254.992C379.547 255.616 379.595 255.984 379.755 256.208C379.883 256.4 380.123 256.464 380.475 256.464C380.891 256.464 381.211 256.336 381.211 256.336L381.323 257.92ZM387.531 256.912C387.083 257.68 386.251 258.144 385.131 258.144C384.187 258.144 383.547 257.888 383.115 257.456C382.539 256.864 382.363 255.92 382.363 254.848V250.256H384.411V254.4C384.411 255.552 384.603 256.464 385.786 256.464C387.019 256.464 387.483 255.488 387.483 254.192V250.256H389.531V258H387.547L387.531 256.912ZM399.081 257.104C398.761 257.664 397.865 258.176 396.713 258.176C395.209 258.176 393.993 257.36 393.993 255.744C393.993 254.128 395.577 253.504 397.177 253.392L399.033 253.264V253.056C399.033 252.064 398.377 251.6 397.305 251.6C396.281 251.6 395.433 251.984 395.097 252.24L394.473 250.928C395.065 250.576 396.153 250.112 397.497 250.112C398.873 250.112 399.657 250.464 400.233 251.008C400.793 251.552 401.081 252.256 401.081 253.568V258H399.113L399.081 257.104ZM397.657 254.592C396.569 254.656 396.041 255.024 396.041 255.68C396.041 256.336 396.537 256.784 397.385 256.784C398.185 256.784 398.777 256.32 399.049 255.936V254.512L397.657 254.592ZM402.915 246.96H404.947V258H402.915V246.96ZM406.993 246.96H409.025V258H406.993V246.96ZM418.031 256.928C417.599 257.376 416.431 258.176 414.543 258.176C412.207 258.176 410.479 256.752 410.479 254.256C410.479 251.776 412.287 250.112 414.495 250.112C416.879 250.112 418.319 251.68 418.319 253.744C418.319 254.144 418.287 254.784 418.287 254.784H412.591C412.783 256.016 413.727 256.608 414.895 256.608C415.935 256.608 416.863 256.144 417.231 255.824L418.031 256.928ZM416.271 253.456C416.239 252.608 415.919 251.632 414.479 251.632C413.263 251.632 412.623 252.48 412.559 253.456H416.271ZM419.678 250.256H421.71L421.678 251.504H421.726C422.03 250.672 422.798 250.112 423.63 250.112C424.158 250.112 424.446 250.256 424.446 250.256L424.302 252.032H424.206C423.982 251.968 423.63 251.936 423.358 251.936C422.75 251.936 422.27 252.192 421.998 252.688C421.79 253.072 421.71 253.6 421.71 254.192V258H419.678V250.256ZM433.128 257.104C432.808 257.664 431.911 258.176 430.76 258.176C429.256 258.176 428.04 257.36 428.04 255.744C428.04 254.128 429.624 253.504 431.224 253.392L433.08 253.264V253.056C433.08 252.064 432.424 251.6 431.352 251.6C430.328 251.6 429.48 251.984 429.144 252.24L428.52 250.928C429.112 250.576 430.2 250.112 431.544 250.112C432.92 250.112 433.704 250.464 434.28 251.008C434.84 251.552 435.128 252.256 435.128 253.568V258H433.16L433.128 257.104ZM431.704 254.592C430.616 254.656 430.088 255.024 430.088 255.68C430.088 256.336 430.584 256.784 431.432 256.784C432.232 256.784 432.824 256.32 433.096 255.936V254.512L431.704 254.592ZM441.906 256.912C441.458 257.68 440.626 258.144 439.506 258.144C438.562 258.144 437.922 257.888 437.49 257.456C436.914 256.864 436.738 255.92 436.738 254.848V250.256H438.786V254.4C438.786 255.552 438.978 256.464 440.161 256.464C441.394 256.464 441.858 255.488 441.858 254.192V250.256H443.906V258H441.922L441.906 256.912ZM445.628 247.888C445.628 247.232 446.14 246.752 446.86 246.752C447.58 246.752 448.092 247.232 448.092 247.888C448.092 248.56 447.58 249.024 446.86 249.024C446.14 249.024 445.628 248.56 445.628 247.888ZM444.22 259.36C444.396 259.44 444.604 259.472 444.86 259.472C445.708 259.472 445.836 258.784 445.836 257.824V250.256H447.884V257.92C447.884 258.864 447.74 259.68 447.244 260.288C446.892 260.704 446.284 261.104 445.26 261.104C444.524 261.104 444.188 260.96 444.188 260.96L444.22 259.36ZM449.355 254.16C449.355 251.712 451.179 250.112 453.563 250.112C455.931 250.112 457.755 251.712 457.755 254.16C457.755 256.608 455.931 258.176 453.563 258.176C451.179 258.176 449.355 256.608 449.355 254.16ZM453.563 256.48C454.875 256.48 455.643 255.44 455.643 254.112C455.643 252.784 454.875 251.76 453.563 251.76C452.219 251.76 451.483 252.784 451.483 254.112C451.483 255.44 452.219 256.48 453.563 256.48ZM464.187 256.912C463.739 257.68 462.907 258.144 461.787 258.144C460.843 258.144 460.203 257.888 459.771 257.456C459.195 256.864 459.019 255.92 459.019 254.848V250.256H461.067V254.4C461.067 255.552 461.259 256.464 462.443 256.464C463.675 256.464 464.139 255.488 464.139 254.192V250.256H466.187V258H464.203L464.187 256.912ZM468.069 250.256H470.101L470.069 251.504H470.117C470.421 250.672 471.189 250.112 472.021 250.112C472.549 250.112 472.837 250.256 472.837 250.256L472.693 252.032H472.597C472.373 251.968 472.021 251.936 471.749 251.936C471.141 251.936 470.661 252.192 470.389 252.688C470.181 253.072 470.101 253.6 470.101 254.192V258H468.069V250.256ZM479.722 258L479.738 256.784C479.114 257.776 478.106 258.176 477.034 258.176C474.762 258.176 473.37 256.416 473.37 254.112C473.37 251.92 474.826 250.112 477.178 250.112C478.218 250.112 479.13 250.496 479.674 251.328C479.658 250.976 479.658 250.56 479.658 250.016V246.96H481.69V258H479.722ZM477.61 256.512C478.842 256.512 479.706 255.568 479.706 254.112C479.706 252.816 478.858 251.68 477.546 251.68C476.218 251.68 475.45 252.816 475.45 254.112C475.45 255.456 476.282 256.512 477.61 256.512ZM484.879 246.96H486.895L485.375 250.672H483.711L484.879 246.96ZM489.071 246.96H491.103V251.424H491.135C491.551 250.608 492.335 250.112 493.455 250.112C495.679 250.112 496.239 251.552 496.239 253.408V258H494.191V253.856C494.191 252.704 493.983 251.792 492.799 251.792C491.535 251.792 491.103 252.848 491.103 254.144V258H489.071V246.96ZM503.109 256.912C502.661 257.68 501.829 258.144 500.709 258.144C499.765 258.144 499.125 257.888 498.693 257.456C498.117 256.864 497.941 255.92 497.941 254.848V250.256H499.989V254.4C499.989 255.552 500.181 256.464 501.365 256.464C502.597 256.464 503.061 255.488 503.061 254.192V250.256H505.109V258H503.125L503.109 256.912ZM506.847 247.888C506.847 247.232 507.359 246.752 508.079 246.752C508.799 246.752 509.311 247.232 509.311 247.888C509.311 248.56 508.799 249.024 508.079 249.024C507.359 249.024 506.847 248.56 506.847 247.888ZM507.055 250.256H509.103V258H507.055V250.256ZM516.065 253.744C516.017 252.24 517.025 251.696 518.081 250.832C518.417 250.56 518.689 250.224 518.689 249.744C518.689 248.976 518.049 248.48 517.025 248.48C516.097 248.48 515.297 249.088 514.881 249.504L514.065 248.32C514.561 247.712 515.489 246.8 517.361 246.8C519.329 246.8 520.593 247.952 520.593 249.504C520.593 250.832 520.001 251.456 519.345 252.064C518.705 252.672 517.905 252.928 517.857 253.872L517.825 254.832H516.097L516.065 253.744ZM515.681 256.992C515.681 256.24 516.209 255.792 516.961 255.792C517.729 255.792 518.241 256.24 518.241 256.992C518.241 257.728 517.729 258.176 516.961 258.176C516.209 258.176 515.681 257.728 515.681 256.992Z" fill="black"/>
<circle cx="264.4" cy="237.121" r="22.5" fill="#F3B959"/>
<path d="M241.917 239.787C245.737 239.787 248.834 236.69 248.834 232.869C248.834 229.049 245.737 225.952 241.917 225.952C238.097 225.952 235 229.049 235 232.869C235 236.69 238.097 239.787 241.917 239.787Z" fill="white"/>
<path d="M277.923 235.543C277.923 246.362 269.153 255.129 258.338 255.129C247.523 255.129 238.749 246.362 238.749 235.543C238.749 226.055 245.494 218.145 254.453 216.342C255.71 216.09 257.006 215.956 258.338 215.956C260.054 215.956 261.723 216.177 263.31 216.596C269.941 218.328 275.203 223.455 277.126 230.009C277.34 230.727 277.512 231.464 277.639 232.211C277.827 233.293 277.923 234.407 277.923 235.54V235.543Z" fill="#88BEFF"/>
<path d="M254.02 230.834C251.827 230.834 250.296 229.601 249.736 229.065C249.372 228.717 249.359 228.141 249.707 227.778C250.055 227.414 250.631 227.4 250.994 227.749C251.4 228.137 252.516 229.036 254.076 229.014C255.705 228.991 257.22 227.992 258.025 226.405C258.253 225.957 258.802 225.778 259.25 226.006C259.699 226.233 259.877 226.782 259.65 227.231C258.536 229.422 256.41 230.803 254.103 230.834C254.076 230.834 254.049 230.834 254.022 230.834H254.02Z" fill="#192F48"/>
<path d="M284.266 236.545C284.266 242.04 279.895 246.521 274.437 246.693C276.633 243.529 277.92 239.684 277.92 235.543C277.92 234.409 277.824 233.296 277.637 232.213C277.329 230.426 276.78 228.719 276.026 227.133C275.928 226.925 275.823 226.72 275.716 226.517C275.97 226.555 276.227 226.606 276.474 226.669C280.941 227.733 284.264 231.752 284.264 236.547L284.266 236.545Z" fill="#192F48"/>
<path d="M278.362 221.708C278.362 223.609 277.653 225.348 276.479 226.666C276.338 226.827 276.187 226.983 276.028 227.133C275.93 226.925 275.825 226.72 275.718 226.517C273.795 222.817 270.727 219.809 266.98 217.966C266.335 217.647 265.673 217.364 264.99 217.116C265.409 216.576 265.905 216.092 266.46 215.686C267.699 214.773 269.227 214.233 270.885 214.233C275.013 214.233 278.362 217.58 278.362 221.711V221.708Z" fill="#192F48"/>
<path d="M266.98 217.964C266.335 217.645 265.672 217.362 264.989 217.114C262.914 216.364 260.674 215.956 258.338 215.956C257.006 215.956 255.709 216.087 254.453 216.342C254.212 216.391 253.969 216.442 253.732 216.503C253.215 216.625 252.704 216.77 252.206 216.935C252.286 216.547 252.398 216.17 252.539 215.809C253.614 212.997 256.334 211 259.523 211C262.711 211 265.353 212.935 266.458 215.684C266.746 216.395 266.926 217.163 266.978 217.964H266.98Z" fill="#192F48"/>
<path d="M253.734 216.503C253.216 216.625 252.705 216.77 252.208 216.935C247.239 218.571 243.146 222.143 240.83 226.758C238.224 223.156 238.954 218.087 242.426 215.382C245.848 212.718 250.858 213.198 253.736 216.503H253.734Z" fill="#192F48"/>
<path d="M277.126 230.009C275.977 230.433 274.732 230.665 273.435 230.665C267.538 230.665 262.758 225.885 262.758 219.99C262.758 218.803 262.95 217.663 263.309 216.596C269.941 218.328 275.203 223.455 277.126 230.009Z" fill="#192F48"/>
<path d="M273.141 241.242C277.231 241.242 280.547 237.493 280.547 232.87C280.547 228.246 277.231 224.497 273.141 224.497C269.051 224.497 265.735 228.246 265.735 232.87C265.735 237.493 269.051 241.242 273.141 241.242Z" fill="white"/>
<path d="M275.954 225.593L273.397 225.122C273.475 224.703 274.071 220.947 271.286 218.029C269.724 216.393 267.854 215.802 266.426 215.612C266.002 214.592 265.362 213.687 264.559 212.95C266.192 212.865 270.124 213.039 273.167 216.233C276.842 220.086 276.055 225.042 275.954 225.593Z" fill="white"/>
<path d="M408.534 364.958H412.362C413.32 364.958 414.097 365.615 414.097 366.425V551.532C414.097 552.342 413.32 552.999 412.362 552.999H408.534C407.576 552.999 406.799 552.342 406.799 551.532V366.425C406.799 365.615 407.576 364.958 408.534 364.958Z" fill="#F9D862"/>
<path fill-rule="evenodd" clip-rule="evenodd" d="M423.584 336H415.313H405.826H397.555L377 393.915L405.826 393.915H415.313L444.139 393.915L423.584 336Z" fill="#F3B959"/>
<path fill-rule="evenodd" clip-rule="evenodd" d="M392.917 552.999H427.962C424.227 548.585 417.774 545.668 410.44 545.668C403.105 545.668 396.652 548.585 392.917 552.999Z" fill="#F3B959"/>
<path d="M112.531 491.3L107.14 507.791H66.7447L55.285 467.431C46.2604 436.24 57.744 433.214 66.7447 435.431L64.5244 424.195C59.1956 384.5 68.8457 395.79 74.3368 406.397C73.993 396.186 74.2175 380.06 76.2707 372.779C82.6308 342.432 94.4392 378.322 98.6172 395.431C121.608 389.498 110.936 423.326 104.275 447.296C118.764 430.04 119.532 469.883 112.531 491.3Z" fill="#FFE994"/>
<path d="M67.2309 557.66H107.551L115.141 508.193H59.6415L67.2309 557.66Z" fill="#F3B959"/>
<path d="M55.6767 499.346H119.105C121.136 499.346 122.782 501.025 122.782 503.096V510.476C122.782 512.547 121.136 514.226 119.105 514.226H55.6767C53.6462 514.226 52.0002 512.547 52.0002 510.476V503.096C52.0002 501.025 53.6462 499.346 55.6767 499.346Z" fill="#F9D862"/>
<path d="M176.166 574.708C176.166 574.708 177.792 601.804 175.622 613.823L51.5432 614.647C51.5432 614.647 41.9274 487.579 103.613 461.265C115.925 456.012 130.025 457.051 141.592 463.789C150.728 469.111 162.951 478.173 176.39 493.39C183.035 500.915 190.052 508.105 197.498 514.843L199.295 516.468L227.137 485.786L226.201 465.763C225.922 459.803 230.052 454.541 235.905 453.395L249.661 450.704V437.488C249.661 434.858 251.793 432.72 254.429 432.72C257.06 432.72 259.197 434.853 259.197 437.488V440.953L270.895 461.754L272.455 470.913C273.539 477.274 272.133 483.802 268.534 489.158L258.108 504.655L223.57 560.184C217.47 569.991 207.212 576.463 195.733 577.748C185.102 578.936 174.467 575.555 166.471 568.445L141.764 546.466" fill="#80B1F0"/>
<path d="M166.476 568.454C166.476 568.454 173.941 573.8 176.166 574.712C176.166 574.712 181.214 586.177 180.604 614.656H51.5432C51.5432 614.656 41.9274 487.588 103.613 461.274C115.925 456.022 130.025 457.06 141.592 463.798C150.728 469.12 162.951 478.182 176.39 493.4C179.668 497.116 183.039 500.748 186.509 504.282C190.066 507.91 193.726 511.439 197.498 514.852L166.471 568.459L164.083 566.335L141.764 546.484" fill="#1065B9"/>
<path d="M278.423 448.243L265.813 437.134C262.48 434.198 257.399 434.519 254.463 437.852L230.111 465.493C227.175 468.826 227.497 473.907 230.829 476.843L243.439 487.953C246.772 490.889 251.853 490.567 254.789 487.234L279.141 459.593C282.077 456.261 281.755 451.179 278.423 448.243Z" fill="#1E2F46" stroke="#1E2F46" stroke-miterlimit="10"/>
<path d="M275.215 450.22L264.254 440.564C262.156 438.716 258.958 438.918 257.11 441.016L233.737 467.545C231.889 469.643 232.092 472.842 234.189 474.689L245.15 484.346C247.247 486.194 250.446 485.991 252.294 483.894L275.667 457.364C277.515 455.266 277.312 452.068 275.215 450.22Z" fill="white"/>
<path d="M244.24 488.152C244.24 488.152 252.277 477.437 259.029 478.485C259.029 478.485 257.567 462.559 266.62 461.363C268.915 461.06 271.039 462.643 271.411 464.93L272.724 473.004C272.929 474.876 272.817 476.785 272.547 478.801C271.551 484.599 270.298 485.991 269.358 487.858L259.439 502.685L252.063 497.674L242.298 490.867L244.24 488.147V488.152Z" fill="#80B1F0"/>
<path d="M133.121 438.285C160.227 438.285 182.201 416.311 182.201 389.205C182.201 362.099 160.227 340.125 133.121 340.125C106.015 340.125 84.041 362.099 84.041 389.205C84.041 416.311 106.015 438.285 133.121 438.285Z" fill="#80B1F0"/>
<path d="M187.24 330.318C167.91 319.417 146.43 338.867 146.43 338.867C132.74 313.303 101.247 351.882 101.247 351.882C81.0286 369.931 84.209 393.237 84.209 393.237C90.4301 440.562 136.213 438.285 136.213 438.285C140.209 435.835 146.532 425.055 152.148 414.22C151.915 414.229 151.678 414.238 151.445 414.238C143.436 414.238 136.944 407.747 136.944 399.738C136.944 391.729 143.436 385.237 151.445 385.237C156.297 385.237 159.985 385.615 163.883 389.33C164.008 389.265 164.157 389.2 164.157 389.2C179.575 383.952 188.795 377.177 194.257 370.546C204.781 357.764 201.666 338.448 187.24 330.313V330.318Z" fill="#1E2F46"/>
<path d="M171.607 398.662C171.607 398.662 172.352 403.915 179.375 405.666" stroke="#1E2F46" stroke-width="4" stroke-miterlimit="10" stroke-linecap="round"/>
<path d="M772.114 518.995L308.107 518.637C302.548 518.637 298 514.115 298 508.588L298.073 475.287C298.073 469.798 302.587 465.31 308.108 465.31H339.248V458.891C339.248 454.988 343.628 452.665 346.889 454.83L362.662 465.31L772.317 465.668C777.645 465.668 782 470.003 782 475.295L781.927 509.243C781.927 514.608 777.514 519 772.114 519V518.995Z" fill="#A4CEFF"/>
<path d="M511.002 492.484C510.951 490.909 512.007 490.339 513.113 489.435C513.465 489.15 513.75 488.798 513.75 488.295C513.75 487.491 513.079 486.972 512.007 486.972C511.035 486.972 510.197 487.608 509.762 488.044L508.907 486.804C509.427 486.167 510.398 485.212 512.359 485.212C514.42 485.212 515.743 486.419 515.743 488.044C515.743 489.435 515.123 490.088 514.436 490.725C513.766 491.361 512.929 491.63 512.878 492.618L512.845 493.623H511.035L511.002 492.484ZM510.6 495.885C510.6 495.098 511.152 494.629 511.94 494.629C512.744 494.629 513.28 495.098 513.28 495.885C513.28 496.656 512.744 497.125 511.94 497.125C511.152 497.125 510.6 496.656 510.6 495.885Z" fill="black"/>
<path d="M504.028 495.818C503.576 496.287 502.353 497.125 500.375 497.125C497.929 497.125 496.12 495.634 496.12 493.02C496.12 490.423 498.013 488.681 500.325 488.681C502.822 488.681 504.33 490.323 504.33 492.484C504.33 492.903 504.296 493.573 504.296 493.573H498.331C498.532 494.863 499.521 495.483 500.744 495.483C501.833 495.483 502.805 494.997 503.19 494.662L504.028 495.818ZM502.185 492.182C502.152 491.294 501.816 490.272 500.308 490.272C499.035 490.272 498.365 491.16 498.298 492.182H502.185Z" fill="black"/>
<path d="M490.602 488.831H492.729L492.696 490.138H492.746C493.065 489.267 493.869 488.681 494.74 488.681C495.293 488.681 495.595 488.831 495.595 488.831L495.444 490.691H495.343C495.109 490.624 494.74 490.591 494.455 490.591C493.819 490.591 493.316 490.859 493.031 491.378C492.813 491.78 492.729 492.333 492.729 492.953V496.941H490.602V488.831Z" fill="black"/>
<path d="M486.475 496.941L486.491 495.668C485.838 496.706 484.782 497.125 483.66 497.125C481.28 497.125 479.823 495.282 479.823 492.869C479.823 490.574 481.347 488.681 483.811 488.681C484.9 488.681 485.855 489.083 486.424 489.954C486.408 489.585 486.408 489.15 486.408 488.58V485.38H488.536V496.941H486.475ZM484.263 495.383C485.553 495.383 486.458 494.394 486.458 492.869C486.458 491.512 485.57 490.323 484.196 490.323C482.805 490.323 482.001 491.512 482.001 492.869C482.001 494.277 482.872 495.383 484.263 495.383Z" fill="black"/>
<path d="M470.868 488.831H473.013L472.996 490.155C473.482 489.116 474.42 488.681 475.476 488.681C477.805 488.681 478.391 490.189 478.391 492.132V496.941H476.247V492.601C476.247 491.395 476.029 490.44 474.789 490.44C473.465 490.44 473.013 491.546 473.013 492.903V496.941H470.868V488.831Z" fill="black"/>
<path d="M460.597 492.92C460.597 490.356 462.507 488.681 465.003 488.681C467.483 488.681 469.393 490.356 469.393 492.92C469.393 495.483 467.483 497.125 465.003 497.125C462.507 497.125 460.597 495.483 460.597 492.92ZM465.003 495.349C466.377 495.349 467.182 494.26 467.182 492.869C467.182 491.479 466.377 490.406 465.003 490.406C463.596 490.406 462.825 491.479 462.825 492.869C462.825 494.26 463.596 495.349 465.003 495.349Z" fill="black"/>
<path d="M450.891 488.831H453.069L453.035 490.021C453.689 489.049 454.694 488.647 455.766 488.647C458.146 488.647 459.603 490.49 459.603 492.903C459.603 495.198 458.079 497.092 455.616 497.092C454.376 497.092 453.672 496.656 453.002 495.852C453.019 496.354 453.002 496.874 453.002 497.377V500.007H450.891V488.831ZM455.23 495.45C456.621 495.45 457.425 494.26 457.425 492.903C457.425 491.495 456.554 490.39 455.163 490.39C453.873 490.39 452.968 491.378 452.968 492.903C452.968 494.26 453.856 495.45 455.23 495.45Z" fill="black"/>
<path d="M445.714 485.38H447.657L445.865 487.809H444.306L445.714 485.38ZM449.115 495.818C448.663 496.287 447.44 497.125 445.462 497.125C443.016 497.125 441.207 495.634 441.207 493.02C441.207 490.423 443.1 488.681 445.412 488.681C447.909 488.681 449.417 490.323 449.417 492.484C449.417 492.903 449.383 493.573 449.383 493.573H443.418C443.619 494.863 444.608 495.483 445.831 495.483C446.92 495.483 447.892 494.997 448.277 494.662L449.115 495.818ZM447.272 492.182C447.238 491.294 446.903 490.272 445.395 490.272C444.122 490.272 443.452 491.16 443.385 492.182H447.272Z" fill="black"/>
<path d="M435.688 488.831H437.816L437.783 490.138H437.833C438.152 489.267 438.956 488.681 439.827 488.681C440.38 488.681 440.682 488.831 440.682 488.831L440.531 490.691H440.43C440.196 490.624 439.827 490.591 439.542 490.591C438.906 490.591 438.403 490.859 438.118 491.378C437.9 491.78 437.816 492.333 437.816 492.953V496.941H435.688V488.831Z" fill="black"/>
<path d="M427.962 486.352C427.962 485.665 428.498 485.162 429.252 485.162C430.006 485.162 430.542 485.665 430.542 486.352C430.542 487.055 430.006 487.541 429.252 487.541C428.498 487.541 427.962 487.055 427.962 486.352ZM428.18 488.831H430.324V496.941H428.18V488.831Z" fill="black"/>
<path d="M424.047 495.802C423.578 496.606 422.707 497.092 421.534 497.092C420.545 497.092 419.875 496.824 419.423 496.371C418.82 495.751 418.635 494.763 418.635 493.64V488.831H420.78V493.171C420.78 494.377 420.981 495.332 422.221 495.332C423.511 495.332 423.997 494.31 423.997 492.953V488.831H426.142V496.941H424.064L424.047 495.802Z" fill="black"/>
<path d="M414.599 485.38H416.727V496.941H414.599V485.38Z" fill="black"/>
<path d="M407.128 495.802C406.659 496.606 405.788 497.092 404.615 497.092C403.626 497.092 402.956 496.824 402.504 496.371C401.901 495.751 401.716 494.763 401.716 493.64V488.831H403.861V493.171C403.861 494.377 404.062 495.332 405.302 495.332C406.592 495.332 407.078 494.31 407.078 492.953V488.831H409.223V496.941H407.145L407.128 495.802Z" fill="black"/>
<path d="M400.627 496.857C400.527 496.891 399.89 497.125 398.985 497.125C398.181 497.125 397.595 496.958 397.226 496.539C396.807 496.086 396.639 495.366 396.639 494.26V490.507H395.433V488.848H396.639V486.536H398.767V488.848H400.644V490.507H398.767V493.791C398.767 494.444 398.818 494.83 398.985 495.064C399.119 495.265 399.371 495.332 399.739 495.332C400.175 495.332 400.51 495.198 400.51 495.198L400.627 496.857Z" fill="black"/>
<path d="M386.224 492.685L383.409 488.831H385.856L387.548 491.479L389.24 488.831H391.687L388.872 492.702L392.038 496.941H389.575L387.548 493.975L385.521 496.941H383.058L386.224 492.685Z" fill="black"/>
<path d="M380.064 495.802C379.595 496.606 378.724 497.092 377.551 497.092C376.562 497.092 375.892 496.824 375.44 496.371C374.837 495.751 374.652 494.763 374.652 493.64V488.831H376.797V493.171C376.797 494.377 376.998 495.332 378.238 495.332C379.528 495.332 380.014 494.31 380.014 492.953V488.831H382.159V496.941H380.081L380.064 495.802Z" fill="black"/>
<path d="M373.078 495.818C372.626 496.287 371.402 497.125 369.425 497.125C366.979 497.125 365.169 495.634 365.169 493.02C365.169 490.423 367.063 488.681 369.375 488.681C371.872 488.681 373.38 490.323 373.38 492.484C373.38 492.903 373.346 493.573 373.346 493.573H367.381C367.582 494.863 368.571 495.483 369.794 495.483C370.883 495.483 371.855 494.997 372.24 494.662L373.078 495.818ZM371.235 492.182C371.201 491.294 370.866 490.272 369.358 490.272C368.085 490.272 367.415 491.16 367.348 492.182H371.235Z" fill="black"/>
<path d="M355.946 488.831H358.175L360.37 494.679L362.565 488.831H364.709L361.375 496.941H359.281L355.946 488.831Z" fill="black"/>
<path d="M351.888 495.818C351.436 496.287 350.212 497.125 348.235 497.125C345.789 497.125 343.979 495.634 343.979 493.02C343.979 490.423 345.873 488.681 348.185 488.681C350.682 488.681 352.19 490.323 352.19 492.484C352.19 492.903 352.156 493.573 352.156 493.573H346.191C346.392 494.863 347.381 495.483 348.604 495.483C349.693 495.483 350.665 494.997 351.05 494.662L351.888 495.818ZM350.045 492.182C350.011 491.294 349.676 490.272 348.168 490.272C346.895 490.272 346.225 491.16 346.158 492.182H350.045Z" fill="black"/>
<path d="M340.45 495.802C339.981 496.606 339.11 497.092 337.937 497.092C336.948 497.092 336.278 496.824 335.826 496.371C335.222 495.751 335.038 494.763 335.038 493.64V488.831H337.183V493.171C337.183 494.377 337.384 495.332 338.624 495.332C339.914 495.332 340.4 494.31 340.4 492.953V488.831H342.544V496.941H340.467L340.45 495.802Z" fill="black"/>
<path d="M327.597 497.142C324.263 497.142 321.548 494.897 321.548 491.177C321.548 487.457 324.263 485.212 327.597 485.212C330.948 485.212 333.646 487.457 333.646 491.177C333.646 492.819 333.009 494.277 331.97 495.332L333.327 496.84L331.953 498.03L330.529 496.422C329.658 496.891 328.653 497.142 327.597 497.142ZM327.597 495.232C328.183 495.232 328.72 495.115 329.206 494.914L327.899 493.422L329.256 492.249L330.596 493.774C331.116 493.07 331.4 492.166 331.4 491.16C331.4 488.647 329.742 487.106 327.597 487.106C325.452 487.106 323.794 488.647 323.794 491.16C323.794 493.674 325.469 495.232 327.597 495.232Z" fill="black"/>
<rect x="298" y="531" width="125" height="56" rx="12" fill="#A4CEFF"/>
<path d="M352.374 552.96C353.478 552.96 354.438 553.184 355.142 553.776C355.862 554.368 356.294 555.152 356.294 556.272C356.294 557.392 355.862 558.192 355.142 558.784C354.438 559.376 353.478 559.648 352.374 559.648H350.918V564H348.822V552.96H352.374ZM352.118 558.016C352.758 558.016 353.19 557.856 353.542 557.6C353.894 557.344 354.15 556.896 354.15 556.272C354.15 555.664 353.846 555.216 353.494 554.96C353.142 554.704 352.71 554.592 352.07 554.592H350.902V558.016H352.118ZM362.034 563.104C361.714 563.664 360.818 564.176 359.666 564.176C358.162 564.176 356.946 563.36 356.946 561.744C356.946 560.128 358.53 559.504 360.13 559.392L361.986 559.264V559.056C361.986 558.064 361.33 557.6 360.258 557.6C359.234 557.6 358.386 557.984 358.05 558.24L357.426 556.928C358.018 556.576 359.106 556.112 360.45 556.112C361.826 556.112 362.61 556.464 363.186 557.008C363.746 557.552 364.034 558.256 364.034 559.568V564H362.066L362.034 563.104ZM360.61 560.592C359.522 560.656 358.994 561.024 358.994 561.68C358.994 562.336 359.49 562.784 360.338 562.784C361.138 562.784 361.73 562.32 362.002 561.936V560.512L360.61 560.592ZM365.788 556.256H367.82L367.788 557.504H367.836C368.14 556.672 368.908 556.112 369.74 556.112C370.268 556.112 370.556 556.256 370.556 556.256L370.412 558.032H370.316C370.092 557.968 369.74 557.936 369.468 557.936C368.86 557.936 368.38 558.192 368.108 558.688C367.9 559.072 367.82 559.6 367.82 560.192V564H365.788V556.256ZM378.113 563.136C377.953 563.28 377.153 564.176 375.089 564.176C372.977 564.176 371.025 562.72 371.025 560.192C371.025 557.648 373.041 556.112 375.121 556.112C377.073 556.112 377.841 556.896 378.049 557.104L377.489 558.64C377.249 558.416 376.561 557.824 375.361 557.824C374.145 557.824 373.169 558.672 373.169 560.096C373.169 561.52 374.145 562.448 375.473 562.448C376.801 562.448 377.537 561.632 377.537 561.632L378.113 563.136Z" fill="#192F48"/>
<path d="M337.557 562.558C337.557 561.831 338.067 561.398 338.809 561.398C339.521 561.398 340.047 561.831 340.047 562.558C340.047 563.27 339.521 563.703 338.809 563.703C338.067 563.703 337.557 563.27 337.557 562.558Z" fill="#1E2E46"/>
<path d="M330.256 552.845H332.205L336.396 563.533H334.2L333.272 561.074H329.08L328.152 563.533H326.064L330.256 552.845ZM332.777 559.465L331.184 555.15L329.575 559.465H332.777Z" fill="#1E2E46"/>
<rect x="460" y="531" width="125" height="56" rx="12" fill="#A4CEFF"/>
<path d="M558.729 562.057C559.611 562.737 560.369 563.077 561.003 563.077C561.745 563.077 562.085 562.799 562.085 562.366C562.085 561.979 561.791 561.763 560.832 561.438L559.966 561.144C558.853 560.773 558.281 560.108 558.281 559.01C558.281 557.649 559.518 556.767 560.956 556.767C562.286 556.767 563.029 557.123 563.647 557.571L562.797 558.886C562.364 558.561 561.73 558.252 561.049 558.252C560.399 558.252 560.075 558.499 560.075 558.855C560.075 559.18 560.322 559.443 561.157 559.706L561.683 559.876C563.338 560.417 563.926 561.005 563.926 562.087C563.926 563.51 562.797 564.562 560.956 564.562C559.812 564.562 558.528 564.098 557.925 563.402L558.729 562.057Z" fill="#1E2E46"/>
<path d="M549.751 556.906H551.731L551.716 558.128C552.164 557.169 553.03 556.767 554.005 556.767C556.155 556.767 556.696 558.159 556.696 559.953V564.392H554.716V560.386C554.716 559.273 554.515 558.391 553.371 558.391C552.149 558.391 551.731 559.412 551.731 560.665V564.392H549.751V556.906Z" fill="#1E2E46"/>
<path d="M545.685 554.617C545.685 553.983 546.18 553.519 546.876 553.519C547.572 553.519 548.067 553.983 548.067 554.617C548.067 555.267 547.572 555.715 546.876 555.715C546.18 555.715 545.685 555.267 545.685 554.617ZM545.886 556.906H547.866V564.392H545.886V556.906Z" fill="#1E2E46"/>
<path d="M539.396 562.057C540.278 562.737 541.036 563.077 541.67 563.077C542.412 563.077 542.752 562.799 542.752 562.366C542.752 561.979 542.458 561.763 541.499 561.438L540.633 561.144C539.52 560.773 538.948 560.108 538.948 559.01C538.948 557.649 540.185 556.767 541.623 556.767C542.953 556.767 543.696 557.123 544.314 557.571L543.464 558.886C543.031 558.561 542.397 558.252 541.716 558.252C541.066 558.252 540.742 558.499 540.742 558.855C540.742 559.18 540.989 559.443 541.824 559.706L542.35 559.876C544.005 560.417 544.593 561.005 544.593 562.087C544.593 563.51 543.464 564.562 541.623 564.562C540.479 564.562 539.195 564.098 538.592 563.402L539.396 562.057Z" fill="#1E2E46"/>
<path d="M535.519 563.526C535.21 564.067 534.344 564.562 533.23 564.562C531.777 564.562 530.601 563.773 530.601 562.211C530.601 560.649 532.132 560.046 533.679 559.938L535.473 559.814V559.613C535.473 558.654 534.839 558.205 533.803 558.205C532.813 558.205 531.993 558.577 531.668 558.824L531.065 557.556C531.637 557.216 532.689 556.767 533.988 556.767C535.318 556.767 536.076 557.107 536.633 557.633C537.174 558.159 537.453 558.84 537.453 560.108V564.392H535.55L535.519 563.526ZM534.143 561.098C533.091 561.16 532.581 561.515 532.581 562.149C532.581 562.783 533.06 563.217 533.88 563.217C534.653 563.217 535.226 562.768 535.488 562.397V561.02L534.143 561.098Z" fill="#1E2E46"/>
<path d="M529.312 562.845C529.312 564.485 528.972 565.413 528.338 566.078C527.688 566.758 526.729 567.393 524.935 567.393C523.156 567.393 521.826 566.542 521.455 566.279L522.275 564.902C522.754 565.243 523.976 565.784 524.935 565.784C526.002 565.784 526.559 565.444 526.837 565.119C527.116 564.794 527.348 564.175 527.348 563.34V562.954C526.807 563.742 525.909 564.145 524.811 564.145C522.909 564.145 521.27 562.923 521.27 560.618C521.27 558.499 522.677 556.767 524.951 556.767C525.956 556.767 526.822 557.138 527.363 557.973C527.348 557.633 527.348 557.185 527.348 556.984V556.906H529.312V562.845ZM525.368 562.598C526.745 562.598 527.456 561.654 527.456 560.479C527.456 559.427 526.652 558.329 525.306 558.329C524.053 558.329 523.28 559.304 523.28 560.479C523.28 561.654 524.023 562.598 525.368 562.598Z" fill="#1E2E46"/>
<path d="M518.105 563.526C517.796 564.067 516.929 564.562 515.816 564.562C514.362 564.562 513.187 563.773 513.187 562.211C513.187 560.649 514.718 560.046 516.264 559.938L518.058 559.814V559.613C518.058 558.654 517.424 558.205 516.388 558.205C515.398 558.205 514.579 558.577 514.254 558.824L513.651 557.556C514.223 557.216 515.274 556.767 516.574 556.767C517.904 556.767 518.662 557.107 519.218 557.633C519.76 558.159 520.038 558.84 520.038 560.108V564.392H518.136L518.105 563.526ZM516.728 561.098C515.677 561.16 515.166 561.515 515.166 562.149C515.166 562.783 515.646 563.217 516.465 563.217C517.239 563.217 517.811 562.768 518.074 562.397V561.02L516.728 561.098Z" fill="#1E2E46"/>
<path d="M500.875 553.72H503.52L506.102 561.376H506.133L508.747 553.72H511.299L512.212 564.392H510.232L509.613 556.334H509.582L506.737 564.438H505.329L502.545 556.334H502.499L501.926 564.392H499.993L500.875 553.72Z" fill="#1E2E46"/>
<path d="M492.589 563.418C492.589 562.691 493.099 562.258 493.842 562.258C494.553 562.258 495.079 562.691 495.079 563.418C495.079 564.129 494.553 564.562 493.842 564.562C493.099 564.562 492.589 564.129 492.589 563.418Z" fill="#1E2E46"/>
<path d="M486.534 553.72C487.4 553.72 488.205 553.797 488.901 554.138C489.736 554.54 490.277 555.189 490.277 556.272C490.277 557.71 489.318 558.468 488.622 558.747V558.778C489.999 559.087 490.911 559.984 490.911 561.422C490.911 562.505 490.37 563.34 489.643 563.804C488.978 564.222 488.035 564.392 487.014 564.392H483.116V553.72H486.534ZM486.38 558.174C486.936 558.174 487.323 558.113 487.648 557.912C488.019 557.68 488.236 557.308 488.236 556.736C488.236 556.241 488.065 555.901 487.772 555.669C487.447 555.421 486.998 555.298 486.472 555.298H485.127V558.174H486.38ZM486.859 562.814C487.369 562.814 487.864 562.799 488.236 562.551C488.638 562.289 488.87 561.809 488.87 561.252C488.87 560.665 488.607 560.262 488.205 559.984C487.803 559.706 487.385 559.644 486.766 559.644H485.127V562.814H486.859Z" fill="#1E2E46"/>
<rect x="622" y="532" width="160" height="56" rx="12" fill="#A4CEFF"/>
<path d="M759.454 574.096C759.037 574.529 757.908 575.303 756.083 575.303C753.825 575.303 752.154 573.926 752.154 571.513C752.154 569.116 753.902 567.508 756.036 567.508C758.341 567.508 759.733 569.023 759.733 571.018C759.733 571.405 759.702 572.024 759.702 572.024H754.196C754.381 573.215 755.294 573.787 756.423 573.787C757.428 573.787 758.325 573.338 758.681 573.029L759.454 574.096ZM757.753 570.74C757.722 569.92 757.413 568.977 756.021 568.977C754.845 568.977 754.227 569.797 754.165 570.74H757.753Z" fill="#1E2E46"/>
<path d="M748.897 574.081C748.464 574.823 747.66 575.272 746.577 575.272C745.665 575.272 745.046 575.024 744.628 574.607C744.071 574.034 743.901 573.122 743.901 572.086V567.647H745.881V571.653C745.881 572.766 746.067 573.648 747.211 573.648C748.402 573.648 748.851 572.704 748.851 571.452V567.647H750.83V575.133H748.913L748.897 574.081Z" fill="#1E2E46"/>
<path d="M740.245 577.978C740.245 577.592 740.245 574.467 740.261 574.065C739.688 574.87 738.729 575.303 737.693 575.303C735.497 575.303 734.151 573.601 734.151 571.374C734.151 569.255 735.559 567.508 737.832 567.508C738.838 567.508 739.719 567.879 740.245 568.683C740.23 568.343 740.23 567.925 740.23 567.724V567.647H742.194V577.978H740.245ZM738.25 573.694C739.441 573.694 740.276 572.782 740.276 571.374C740.276 570.121 739.456 569.023 738.188 569.023C736.904 569.023 736.162 570.121 736.162 571.374C736.162 572.673 736.966 573.694 738.25 573.694Z" fill="#1E2E46"/>
<path d="M730.549 565.358C730.549 564.724 731.044 564.26 731.74 564.26C732.436 564.26 732.931 564.724 732.931 565.358C732.931 566.007 732.436 566.456 731.74 566.456C731.044 566.456 730.549 566.007 730.549 565.358ZM730.75 567.647H732.73V575.133H730.75V567.647Z" fill="#1E2E46"/>
<path d="M729.545 575.055C729.452 575.086 728.864 575.303 728.029 575.303C727.287 575.303 726.745 575.148 726.405 574.761C726.018 574.344 725.864 573.679 725.864 572.658V569.193H724.75V567.662H725.864V565.528H727.828V567.662H729.56V569.193H727.828V572.225C727.828 572.828 727.874 573.184 728.029 573.4C728.153 573.586 728.385 573.648 728.725 573.648C729.127 573.648 729.436 573.524 729.436 573.524L729.545 575.055Z" fill="#1E2E46"/>
<path d="M721.894 574.266C721.585 574.808 720.718 575.303 719.605 575.303C718.151 575.303 716.976 574.514 716.976 572.952C716.976 571.39 718.507 570.786 720.053 570.678L721.848 570.554V570.353C721.848 569.394 721.213 568.946 720.177 568.946C719.187 568.946 718.368 569.317 718.043 569.565L717.44 568.296C718.012 567.956 719.064 567.508 720.363 567.508C721.693 567.508 722.451 567.848 723.008 568.374C723.549 568.9 723.827 569.58 723.827 570.848V575.133H721.925L721.894 574.266ZM720.517 571.838C719.466 571.9 718.955 572.256 718.955 572.89C718.955 573.524 719.435 573.957 720.254 573.957C721.028 573.957 721.6 573.509 721.863 573.137V571.761L720.517 571.838Z" fill="#1E2E46"/>
<path d="M704.483 567.647H706.463L706.448 568.776H706.494C706.834 568.08 707.747 567.508 708.721 567.508C709.804 567.508 710.453 567.941 710.809 568.93C711.335 568.018 712.186 567.508 713.268 567.508C715.233 567.508 715.774 568.9 715.774 570.616V575.133H713.794V570.941C713.794 570.029 713.593 569.132 712.619 569.132C711.629 569.132 711.119 569.982 711.119 571.266V575.133H709.139V570.926C709.139 569.905 708.876 569.132 707.932 569.132C706.912 569.132 706.463 570.09 706.463 571.266V575.133H704.483V567.647Z" fill="#1E2E46"/>
<path d="M695.002 571.421C695.002 569.054 696.765 567.508 699.07 567.508C701.359 567.508 703.122 569.054 703.122 571.421C703.122 573.787 701.359 575.303 699.07 575.303C696.765 575.303 695.002 573.787 695.002 571.421ZM699.07 573.663C700.338 573.663 701.08 572.658 701.08 571.374C701.08 570.09 700.338 569.101 699.07 569.101C697.77 569.101 697.059 570.09 697.059 571.374C697.059 572.658 697.77 573.663 699.07 573.663Z" fill="#1E2E46"/>
<path d="M694.322 575.055C694.229 575.086 693.641 575.303 692.806 575.303C692.064 575.303 691.523 575.148 691.182 574.761C690.796 574.344 690.641 573.679 690.641 572.658V569.193H689.527V567.662H690.641V565.528H692.605V567.662H694.337V569.193H692.605V572.225C692.605 572.828 692.652 573.184 692.806 573.4C692.93 573.586 693.162 573.648 693.502 573.648C693.904 573.648 694.214 573.524 694.214 573.524L694.322 575.055Z" fill="#1E2E46"/>
<path d="M686.547 574.081C686.114 574.823 685.31 575.272 684.227 575.272C683.315 575.272 682.696 575.024 682.279 574.607C681.722 574.034 681.552 573.122 681.552 572.086V567.647H683.531V571.653C683.531 572.766 683.717 573.648 684.862 573.648C686.053 573.648 686.501 572.704 686.501 571.452V567.647H688.481V575.133H686.563L686.547 574.081Z" fill="#1E2E46"/>
<path d="M678.062 574.266C677.753 574.808 676.886 575.303 675.773 575.303C674.319 575.303 673.144 574.514 673.144 572.952C673.144 571.39 674.675 570.786 676.221 570.678L678.015 570.554V570.353C678.015 569.394 677.381 568.946 676.345 568.946C675.355 568.946 674.536 569.317 674.211 569.565L673.608 568.296C674.18 567.956 675.232 567.508 676.531 567.508C677.861 567.508 678.619 567.848 679.175 568.374C679.717 568.9 679.995 569.58 679.995 570.848V575.133H678.093L678.062 574.266ZM676.685 571.838C675.634 571.9 675.123 572.256 675.123 572.89C675.123 573.524 675.603 573.957 676.422 573.957C677.196 573.957 677.768 573.509 678.031 573.137V571.761L676.685 571.838Z" fill="#1E2E46"/>
<path d="M731.633 553.904C731.216 554.337 730.087 555.11 728.261 555.11C726.003 555.11 724.333 553.734 724.333 551.321C724.333 548.924 726.081 547.315 728.215 547.315C730.52 547.315 731.912 548.831 731.912 550.826C731.912 551.213 731.881 551.831 731.881 551.831H726.375C726.56 553.022 727.473 553.595 728.602 553.595C729.607 553.595 730.504 553.146 730.86 552.837L731.633 553.904ZM729.932 550.548C729.901 549.728 729.592 548.785 728.2 548.785C727.024 548.785 726.406 549.604 726.344 550.548H729.932Z" fill="#1E2E46"/>
<path d="M718.4 552.605C719.282 553.285 720.039 553.626 720.674 553.626C721.416 553.626 721.756 553.347 721.756 552.914C721.756 552.527 721.462 552.311 720.503 551.986L719.637 551.692C718.524 551.321 717.951 550.656 717.951 549.558C717.951 548.197 719.189 547.315 720.627 547.315C721.957 547.315 722.7 547.671 723.318 548.12L722.468 549.434C722.035 549.109 721.4 548.8 720.72 548.8C720.07 548.8 719.746 549.047 719.746 549.403C719.746 549.728 719.993 549.991 720.828 550.254L721.354 550.424C723.009 550.965 723.597 551.553 723.597 552.636C723.597 554.059 722.468 555.11 720.627 555.11C719.483 555.11 718.199 554.646 717.596 553.95L718.4 552.605Z" fill="#1E2E46"/>
<path d="M709.422 547.454H711.402L711.386 548.676C711.835 547.717 712.701 547.315 713.675 547.315C715.825 547.315 716.366 548.707 716.366 550.501V554.94H714.387V550.934C714.387 549.821 714.186 548.939 713.041 548.939C711.819 548.939 711.402 549.96 711.402 551.213V554.94H709.422V547.454Z" fill="#1E2E46"/>
<path d="M699.94 551.228C699.94 548.862 701.704 547.315 704.008 547.315C706.297 547.315 708.06 548.862 708.06 551.228C708.06 553.595 706.297 555.11 704.008 555.11C701.704 555.11 699.94 553.595 699.94 551.228ZM704.008 553.471C705.276 553.471 706.019 552.466 706.019 551.182C706.019 549.898 705.276 548.908 704.008 548.908C702.709 548.908 701.997 549.898 701.997 551.182C701.997 552.466 702.709 553.471 704.008 553.471Z" fill="#1E2E46"/>
<path d="M690.981 547.454H692.992L692.961 548.553C693.564 547.655 694.492 547.284 695.482 547.284C697.678 547.284 699.024 548.986 699.024 551.213C699.024 553.332 697.617 555.079 695.343 555.079C694.198 555.079 693.549 554.677 692.93 553.935C692.946 554.399 692.93 554.878 692.93 555.342V557.771H690.981V547.454ZM694.987 553.564C696.271 553.564 697.013 552.466 697.013 551.213C697.013 549.914 696.209 548.893 694.925 548.893C693.734 548.893 692.899 549.805 692.899 551.213C692.899 552.466 693.719 553.564 694.987 553.564Z" fill="#1E2E46"/>
<path d="M686.202 544.268H687.997L686.342 546.511H684.903L686.202 544.268ZM689.342 553.904C688.925 554.337 687.796 555.11 685.97 555.11C683.712 555.11 682.042 553.734 682.042 551.321C682.042 548.924 683.79 547.315 685.924 547.315C688.229 547.315 689.621 548.831 689.621 550.826C689.621 551.213 689.59 551.831 689.59 551.831H684.084C684.269 553.022 685.182 553.595 686.311 553.595C687.316 553.595 688.213 553.146 688.569 552.837L689.342 553.904ZM687.641 550.548C687.61 549.728 687.301 548.785 685.909 548.785C684.733 548.785 684.115 549.604 684.053 550.548H687.641Z" fill="#1E2E46"/>
<path d="M677.305 544.268C678.434 544.268 679.331 544.516 679.996 545.026C680.661 545.537 681.14 546.356 681.14 547.377C681.14 548.321 680.877 548.986 680.444 549.45C680.027 549.898 679.47 550.177 678.836 550.362L681.713 554.94H679.362L676.841 550.61H675.882V554.94H673.871V544.268H677.305ZM676.918 549.032C677.568 549.032 678.063 548.986 678.449 548.692C678.851 548.398 679.068 548.042 679.068 547.439C679.068 546.851 678.851 546.465 678.449 546.186C678.063 545.892 677.568 545.846 676.918 545.846H675.866V549.032H676.918Z" fill="#1E2E46"/>
<path d="M650.203 565.243C650.203 564.516 650.714 564.083 651.456 564.083C652.167 564.083 652.693 564.516 652.693 565.243C652.693 565.955 652.167 566.388 651.456 566.388C650.714 566.388 650.203 565.955 650.203 565.243Z" fill="#1E2E46"/>
<path d="M648.761 564.888C648.158 565.537 646.998 566.403 644.894 566.403C641.77 566.403 639.357 564.285 639.357 560.897C639.357 557.51 641.801 555.391 644.894 555.391C646.982 555.391 648.189 556.273 648.622 556.706L647.91 558.345C647.601 557.943 646.395 557.124 644.879 557.124C643.023 557.124 641.43 558.345 641.43 560.866C641.43 563.171 642.868 564.671 645.003 564.671C646.426 564.671 647.415 564.053 648.05 563.372L648.761 564.888Z" fill="#1E2E46"/>
</g>
<defs>
<clipPath id="clip0_101_1124">
<rect width="833" height="615" fill="white"/>
</clipPath>
</defs>
</svg>
