<svg width="356" height="517" viewBox="0 0 356 517" fill="none" xmlns="http://www.w3.org/2000/svg">
<g filter="url(#filter0_d_603_1275)">
<g clip-path="url(#clip0_603_1275)">
<rect x="35" y="27" width="286" height="447" rx="20" fill="#F2F9FF"/>
<g clip-path="url(#clip1_603_1275)">
<path d="M-18.9767 539.684C-18.9767 539.684 -11.9122 477.084 35.1382 429.393C93.9513 369.779 245.041 402.623 302.06 334.029C337.829 290.998 356.083 250.755 359.961 225.346L359.961 207.988C361.007 212.483 361.029 218.352 359.961 225.346L359.961 539.684L-18.9767 539.684Z" fill="#D2E7FF"/>
<path d="M256.536 360.134C256.536 377.463 242.487 391.508 225.158 391.508C207.828 391.508 193.784 377.463 193.784 360.134C193.784 358.319 193.938 356.53 194.238 354.797C196.768 340.012 209.651 328.76 225.158 328.76C227.289 328.76 229.363 328.97 231.374 329.372C245.727 332.259 256.536 344.931 256.536 360.134Z" fill="#6BAFFF"/>
<path d="M231.378 329.372C228.849 344.161 215.973 355.413 200.458 355.413C198.327 355.413 196.253 355.203 194.242 354.797C196.772 340.012 209.655 328.76 225.162 328.76C227.293 328.76 229.367 328.97 231.378 329.372Z" fill="#192F48"/>
<path d="M194.61 372.438C199.432 372.438 203.341 368.53 203.341 363.708C203.341 358.886 199.432 354.977 194.61 354.977C189.789 354.977 185.88 358.886 185.88 363.708C185.88 368.53 189.789 372.438 194.61 372.438Z" fill="#6BAFFF"/>
<path d="M194.097 360.263L192.872 361.757C191.772 363.099 191.968 365.079 193.31 366.179L202.397 373.631C203.739 374.731 205.719 374.535 206.819 373.193L208.044 371.699C209.144 370.357 208.948 368.378 207.606 367.278L198.519 359.826C197.177 358.726 195.197 358.922 194.097 360.263Z" fill="white"/>
<path d="M241.969 358.702C240.661 359.097 238.834 359.352 236.831 358.736C233.652 357.762 231.269 355 230.615 351.527C230.457 350.689 231.009 349.885 231.848 349.723C232.686 349.565 233.494 350.118 233.652 350.956C234.091 353.297 235.658 355.15 237.741 355.785C239.732 356.394 241.495 355.658 242.16 355.312C242.916 354.917 243.848 355.214 244.242 355.97C244.637 356.725 244.34 357.657 243.585 358.052C243.235 358.236 242.679 358.488 241.972 358.702H241.969Z" fill="#192F48"/>
<path d="M229.585 329.147C229.585 329.147 240.255 328.869 246.088 324.659C251.921 320.45 255.33 313.58 263.56 318.996C271.791 324.411 267.781 339.651 256.232 342.447C244.682 345.243 231.829 340.38 229.582 329.147H229.585Z" fill="#192F48"/>
<path d="M259.651 462.427H189.172C183.741 462.427 179.498 457.733 180.047 452.329L184.29 410.48C184.764 405.797 188.71 402.23 193.415 402.23H255.404C260.114 402.23 264.056 405.793 264.53 410.48L268.773 452.329C269.321 457.733 265.078 462.427 259.648 462.427H259.651Z" fill="#1065B9"/>
<path d="M215.01 401.005L187.33 479.625C185.775 478.61 184.038 477.377 182.208 475.893C179.179 473.446 175.898 470.327 172.763 466.407C169.197 461.946 166.615 457.443 164.747 453.298C161.289 445.646 163.086 436.63 169.174 430.805C173.274 426.885 178.006 422.815 183.426 418.812C185.053 417.609 186.673 416.467 188.278 415.377C196.084 410.081 203.544 406.116 210.083 403.14C210.087 403.136 210.091 403.136 210.091 403.136C210.568 402.922 211.038 402.708 211.5 402.501C212.703 401.967 213.875 401.467 215.01 401.001V401.005Z" fill="#3B8BE8"/>
<path d="M233.817 401.005C242.645 404.647 253.777 410.224 265.402 418.816C270.821 422.818 275.553 426.889 279.649 430.809C285.741 436.634 287.538 445.65 284.08 453.302C282.209 457.447 279.631 461.946 276.064 466.407C271.035 472.698 265.627 476.919 261.493 479.625L233.817 401.005Z" fill="#3B8BE8"/>
<path d="M164.743 453.302C166.611 457.447 169.193 461.95 172.76 466.411C175.894 470.331 179.175 473.45 182.204 475.897C184.035 477.378 185.771 478.614 187.327 479.629L198.621 447.548L166.803 433.526C162.672 439.216 161.785 446.759 164.74 453.306L164.743 453.302Z" fill="#6BAFFF"/>
<path d="M250.21 447.571L261.497 479.625C265.631 476.919 271.035 472.699 276.068 466.407C279.634 461.946 282.212 457.444 284.084 453.302C287.034 446.774 286.159 439.253 282.054 433.571L250.21 447.571Z" fill="#6BAFFF"/>
<path d="M257.036 494.76H191.792C186.135 494.76 181.614 490.069 181.798 484.417C181.892 481.538 182.028 478.693 182.204 475.897C183.099 461.645 185.072 448.54 188.251 437.359C192.859 421.138 200.004 408.95 210.08 403.147C210.083 403.144 210.087 403.144 210.087 403.144C210.651 402.82 211.23 402.516 211.812 402.234C215.612 400.378 219.806 399.393 224.414 399.393C229.698 399.393 234.433 400.689 238.658 403.106C255.724 412.863 264.417 440.922 266.619 475.897C266.8 478.693 266.935 481.538 267.029 484.417C267.213 490.069 262.696 494.76 257.036 494.76Z" fill="#3B8BE8"/>
<path d="M185.876 449.641C184.358 449.641 182.993 448.593 182.651 447.048C177.33 423.074 188.522 406.511 188.999 405.82C190.037 404.316 192.096 403.941 193.599 404.978C195.099 406.015 195.479 408.071 194.445 409.57C194.313 409.766 184.444 424.6 189.108 445.616C189.503 447.398 188.379 449.164 186.598 449.562C186.357 449.615 186.117 449.641 185.88 449.641H185.876Z" fill="#1065B9"/>
<path d="M263.376 449.641C263.139 449.641 262.898 449.615 262.658 449.562C260.876 449.168 259.749 447.401 260.147 445.616C264.819 424.577 253.95 408.766 253.841 408.608C252.792 407.116 253.149 405.053 254.641 404.004C256.13 402.952 258.189 403.305 259.241 404.79C259.764 405.523 271.933 423.051 266.608 447.048C266.266 448.589 264.898 449.641 263.383 449.641H263.376Z" fill="#1065B9"/>
<path d="M275.428 497.868H173.398L165.284 440.76C164.401 434.537 169.23 428.974 175.514 428.974H273.316C279.6 428.974 284.43 434.537 283.546 440.76L275.432 497.868H275.428Z" fill="#192F48"/>
<path d="M235.11 466.035C235.11 472.168 229.95 477.096 223.733 476.708C218.408 476.378 214.071 472.044 213.74 466.715C213.353 460.499 218.28 455.339 224.414 455.339C225.605 455.339 226.748 455.534 227.815 455.891C228.443 456.102 228.706 456.838 228.382 457.417C227.875 458.327 227.638 459.409 227.774 460.555C228.044 462.818 229.826 464.667 232.081 465.02C232.682 465.114 233.272 465.103 233.828 465.001C234.482 464.881 235.11 465.355 235.11 466.02C235.11 466.024 235.11 466.031 235.11 466.035Z" fill="white"/>
<path d="M224.553 447.277C225.662 448.627 225.823 450.506 225.767 451.817C225.729 452.731 224.94 453.381 224.038 453.242C222.741 453.043 220.926 452.528 219.817 451.178C218.709 449.829 218.547 447.924 218.603 446.612C218.645 445.714 219.415 445.079 220.302 445.21C221.603 445.406 223.433 445.921 224.553 447.277Z" fill="white"/>
</g>
</g>
</g>
<defs>
<filter id="filter0_d_603_1275" x="0" y="0" width="356" height="517" filterUnits="userSpaceOnUse" color-interpolation-filters="sRGB">
<feFlood flood-opacity="0" result="BackgroundImageFix"/>
<feColorMatrix in="SourceAlpha" type="matrix" values="0 0 0 0 0 0 0 0 0 0 0 0 0 0 0 0 0 0 127 0" result="hardAlpha"/>
<feOffset dy="8"/>
<feGaussianBlur stdDeviation="17.5"/>
<feColorMatrix type="matrix" values="0 0 0 0 0.0980392 0 0 0 0 0.184314 0 0 0 0 0.282353 0 0 0 0.2 0"/>
<feBlend mode="normal" in2="BackgroundImageFix" result="effect1_dropShadow_603_1275"/>
<feBlend mode="normal" in="SourceGraphic" in2="effect1_dropShadow_603_1275" result="shape"/>
</filter>
<clipPath id="clip0_603_1275">
<rect x="35" y="27" width="286" height="447" rx="20" fill="white"/>
</clipPath>
<clipPath id="clip1_603_1275">
<rect width="286" height="171.6" fill="white" transform="translate(35 304)"/>
</clipPath>
</defs>
</svg>
