<svg width="1326" height="439" viewBox="0 0 1326 439" fill="none" xmlns="http://www.w3.org/2000/svg">
<g filter="url(#filter0_d_174_466)">
<g clip-path="url(#clip0_174_466)">
<rect x="35" y="27" width="1256" height="369" rx="20" fill="#F2F9FF"/>
<g clip-path="url(#clip1_174_466)">
<path d="M669.72 600.682C669.72 600.682 659.969 475.711 733.956 364.825C826.438 226.218 1134.01 233.541 1219.6 78.0626C1273.3 -19.4723 1293.83 -104.971 1291.84 -156.075L1285.31 -189.991C1289.05 -181.603 1291.3 -170.142 1291.84 -156.075L1410.12 458.102L669.72 600.682Z" fill="#D2E7FF"/>
<path d="M1093.64 374.975C1093.64 374.975 1091.62 408.664 1094.32 423.607L1248.58 424.632C1248.58 424.632 1260.54 266.648 1183.84 233.932C1168.54 227.401 1151.01 228.692 1136.63 237.07C1125.27 243.687 1110.07 254.953 1093.36 273.873C1085.1 283.229 1076.37 292.168 1067.12 300.546L1064.88 302.566L1030.27 264.419L1031.43 239.524C1031.78 232.114 1026.64 225.572 1019.36 224.147L1002.26 220.801V204.37C1002.26 201.099 999.611 198.442 996.334 198.442C993.063 198.442 990.406 201.094 990.406 204.37V208.678L975.862 234.54L973.923 245.927C972.574 253.836 974.322 261.953 978.798 268.611L991.76 287.878L1034.7 356.918C1042.29 369.111 1055.04 377.158 1069.31 378.756C1082.53 380.232 1095.75 376.029 1105.69 367.189L1136.41 339.862" fill="#80B1F0"/>
<path d="M1105.69 367.2C1105.69 367.2 1096.41 373.847 1093.64 374.982C1093.64 374.982 1087.36 389.235 1088.12 424.644H1248.58C1248.58 424.644 1260.54 266.66 1183.84 233.944C1168.54 227.413 1151.01 228.704 1136.63 237.081C1125.27 243.699 1110.07 254.965 1093.36 273.885C1089.28 278.505 1085.09 283.021 1080.78 287.415C1076.36 291.925 1071.81 296.314 1067.12 300.558L1105.69 367.206L1108.66 364.566L1136.41 339.886" fill="#1065B9"/>
<path d="M966.503 217.742L982.181 203.93C986.325 200.279 992.643 200.679 996.293 204.822L1026.57 239.189C1030.22 243.332 1029.82 249.65 1025.68 253.3L1010 267.113C1005.86 270.763 999.538 270.363 995.887 266.22L965.611 231.854C961.96 227.71 962.36 221.392 966.503 217.742Z" fill="#1E2F46" stroke="#1E2F46" stroke-miterlimit="10"/>
<path d="M970.491 220.2L984.119 208.194C986.727 205.896 990.703 206.148 993.001 208.756L1022.06 241.741C1024.36 244.349 1024.11 248.325 1021.5 250.623L1007.87 262.629C1005.26 264.926 1001.29 264.675 998.989 262.067L969.929 229.082C967.632 226.474 967.883 222.497 970.491 220.2Z" fill="white"/>
<path d="M1009 267.36C1009 267.36 999.009 254.039 990.614 255.341C990.614 255.341 992.432 235.541 981.177 234.053C978.323 233.677 975.683 235.645 975.22 238.488L973.587 248.527C973.333 250.854 973.472 253.228 973.807 255.735C975.046 262.943 976.604 264.674 977.773 266.996L990.105 285.429L999.275 279.2L1011.42 270.736L1009 267.354V267.36Z" fill="#80B1F0"/>
<path d="M1147.16 205.361C1113.45 205.361 1086.13 178.041 1086.13 144.339C1086.13 110.638 1113.45 83.3182 1147.16 83.3182C1180.86 83.3182 1208.18 110.638 1208.18 144.339C1208.18 178.041 1180.86 205.361 1147.16 205.361Z" fill="#80B1F0"/>
<path d="M1079.87 71.1253C1103.9 57.5721 1130.61 81.7548 1130.61 81.7548C1147.63 49.9705 1186.79 97.9365 1186.79 97.9365C1211.92 120.377 1207.97 149.353 1207.97 149.353C1200.24 208.192 1143.31 205.361 1143.31 205.361C1138.35 202.315 1130.48 188.913 1123.5 175.441C1123.79 175.452 1124.09 175.464 1124.38 175.464C1134.33 175.464 1142.4 167.393 1142.4 157.435C1142.4 147.477 1134.33 139.407 1124.38 139.407C1118.34 139.407 1113.76 139.876 1108.91 144.496C1108.76 144.415 1108.57 144.334 1108.57 144.334C1089.4 137.809 1077.94 129.385 1071.15 121.141C1058.06 105.249 1061.94 81.2338 1079.87 71.1195V71.1253Z" fill="#1E2F46"/>
<path d="M1099.31 156.098C1099.31 156.098 1098.38 162.628 1089.65 164.805" stroke="#1E2F46" stroke-width="7" stroke-miterlimit="10" stroke-linecap="round"/>
<path d="M971.171 180.48C978.022 179.041 982.214 172.432 980.534 165.719C978.855 159.005 971.94 154.729 965.089 156.167C958.238 157.606 954.046 164.215 955.726 170.929C957.405 177.642 964.32 181.919 971.171 180.48Z" fill="#A4CEFF"/>
<path d="M1003.25 183.87C1007.28 183.022 1009.75 179.128 1008.76 175.172C1007.77 171.216 1003.7 168.696 999.663 169.544C995.626 170.392 993.156 174.286 994.145 178.242C995.135 182.198 999.21 184.718 1003.25 183.87Z" fill="#A4CEFF"/>
<path d="M980.706 115.386C983.744 127.534 976.157 139.538 963.765 142.142C963.189 142.263 962.636 142.348 962.053 142.439C959.447 149.489 953.361 154.738 945.725 156.342C938.272 157.909 930.488 155.73 924.866 150.722C921.668 155.02 916.992 158.003 911.538 159.149C901.782 161.199 891.693 156.817 886.45 148.602C885.563 148.882 884.662 149.103 883.753 149.294C868.815 152.433 853.687 143.075 850.033 128.463C846.409 113.968 855.369 99.6751 869.997 96.3201C870.556 80.4468 881.994 66.8831 898.083 63.5026C910.051 60.9878 922.823 64.6192 931.871 73.0029C932.614 72.7844 933.334 72.6019 934.031 72.4554C948.938 69.3232 964.066 78.6804 967.72 93.2933C968.284 95.5506 968.545 97.8715 968.527 100.22C974.596 103.321 979.072 108.852 980.706 115.386Z" fill="#A4CEFF"/>
<path d="M893.146 119.546C899.671 119.096 904.501 113.689 903.934 107.469C903.368 101.249 897.618 96.5712 891.093 97.0209C884.568 97.4706 879.738 102.878 880.305 109.098C880.871 115.318 886.62 119.995 893.146 119.546Z" fill="#1065B9"/>
<path d="M919.553 130.213C924.991 129.838 929.016 125.333 928.544 120.149C928.071 114.966 923.28 111.068 917.843 111.442C912.405 111.817 908.38 116.323 908.852 121.506C909.325 126.69 914.116 130.588 919.553 130.213Z" fill="#1065B9"/>
<path d="M944.037 122.357C947.904 122.091 950.766 118.886 950.43 115.201C950.094 111.515 946.688 108.743 942.821 109.009C938.954 109.276 936.092 112.48 936.427 116.166C936.763 119.851 940.17 122.623 944.037 122.357Z" fill="#1065B9"/>
</g>
</g>
</g>
<defs>
<filter id="filter0_d_174_466" x="0" y="0" width="1326" height="439" filterUnits="userSpaceOnUse" color-interpolation-filters="sRGB">
<feFlood flood-opacity="0" result="BackgroundImageFix"/>
<feColorMatrix in="SourceAlpha" type="matrix" values="0 0 0 0 0 0 0 0 0 0 0 0 0 0 0 0 0 0 127 0" result="hardAlpha"/>
<feOffset dy="8"/>
<feGaussianBlur stdDeviation="17.5"/>
<feColorMatrix type="matrix" values="0 0 0 0 0.0980392 0 0 0 0 0.184314 0 0 0 0 0.282353 0 0 0 0.12 0"/>
<feBlend mode="normal" in2="BackgroundImageFix" result="effect1_dropShadow_174_466"/>
<feBlend mode="normal" in="SourceGraphic" in2="effect1_dropShadow_174_466" result="shape"/>
</filter>
<clipPath id="clip0_174_466">
<rect x="35" y="27" width="1256" height="369" rx="20" fill="white"/>
</clipPath>
<clipPath id="clip1_174_466">
<rect width="590" height="369" fill="white" transform="translate(710 27)"/>
</clipPath>
</defs>
</svg>
