<svg width="1326" height="439" viewBox="0 0 1326 439" fill="none" xmlns="http://www.w3.org/2000/svg">
<g filter="url(#filter0_d_195_532)">
<rect x="35" y="27" width="1256" height="369" rx="20" fill="#F2F9FF"/>
<g clip-path="url(#clip0_195_532)">
<path d="M665.28 600.682C665.28 600.682 675.031 475.711 601.044 364.825C508.562 226.218 200.993 233.541 115.395 78.0626C61.6981 -19.4723 41.1741 -104.971 43.1572 -156.075L49.6885 -189.991C45.9544 -181.603 43.7031 -170.142 43.1572 -156.075L-75.1169 458.102L665.28 600.682Z" fill="#D2E7FF"/>
<mask id="mask0_195_532" style="mask-type:luminance" maskUnits="userSpaceOnUse" x="62" y="27" width="378" height="378">
<path d="M421.678 27H80.1419C70.1224 27 62 35.1224 62 45.1419V386.678C62 396.698 70.1224 404.82 80.1419 404.82H421.678C431.698 404.82 439.82 396.698 439.82 386.678V45.1419C439.82 35.1224 431.698 27 421.678 27Z" fill="white"/>
</mask>
<g mask="url(#mask0_195_532)">
<path d="M315.518 150.841C315.518 185.696 287.262 213.945 252.407 213.945C217.552 213.945 189.303 185.696 189.303 150.841C189.303 147.19 189.613 143.592 190.218 140.107C195.305 110.369 221.218 87.7375 252.407 87.7375C256.693 87.7375 260.865 88.1608 264.91 88.9696C293.778 94.775 315.518 120.264 315.518 150.841Z" fill="#6BAFFF"/>
<path d="M264.917 88.9696C259.83 118.715 233.932 141.347 202.728 141.347C198.442 141.347 194.27 140.923 190.226 140.107C195.313 110.369 221.226 87.7375 252.414 87.7375C256.7 87.7375 260.873 88.1608 264.917 88.9696Z" fill="#192F48"/>
<path d="M190.967 175.59C200.665 175.59 208.526 167.728 208.526 158.03C208.526 148.332 200.665 140.47 190.967 140.47C181.269 140.47 173.407 148.332 173.407 158.03C173.407 167.728 181.269 175.59 190.967 175.59Z" fill="#6BAFFF"/>
<path d="M189.934 151.102L187.47 154.106C185.257 156.805 185.651 160.787 188.35 163L206.629 177.987C209.327 180.2 213.309 179.806 215.522 177.108L217.986 174.103C220.199 171.404 219.805 167.422 217.106 165.209L198.827 150.222C196.129 148.009 192.147 148.403 189.934 151.102Z" fill="white"/>
<path d="M286.219 147.961C283.588 148.755 279.915 149.269 275.886 148.029C269.491 146.071 264.698 140.515 263.383 133.531C263.065 131.845 264.176 130.227 265.862 129.902C267.548 129.585 269.173 130.696 269.491 132.382C270.375 137.091 273.527 140.818 277.715 142.095C281.721 143.32 285.266 141.838 286.604 141.143C288.124 140.349 289.998 140.946 290.792 142.466C291.586 143.985 290.989 145.86 289.469 146.653C288.766 147.024 287.648 147.53 286.226 147.961H286.219Z" fill="#192F48"/>
<path d="M261.312 88.5161C261.312 88.5161 282.772 87.9567 294.504 79.4905C306.236 71.0243 313.092 57.2062 329.646 68.0989C346.201 78.9916 338.135 109.644 314.906 115.268C291.677 120.892 265.825 111.11 261.304 88.5161H261.312Z" fill="#192F48"/>
<path d="M321.785 356.585H180.028C169.105 356.585 160.571 347.144 161.675 336.274L170.209 252.103C171.161 242.684 179.099 235.511 188.563 235.511H313.243C322.714 235.511 330.644 242.677 331.596 252.103L340.131 336.274C341.234 347.144 332.7 356.585 321.777 356.585H321.785Z" fill="#1065B9"/>
<path d="M231.997 233.046L176.324 391.176C173.195 389.135 169.703 386.655 166.021 383.669C159.929 378.748 153.33 372.474 147.025 364.59C139.852 355.618 134.659 346.562 130.902 338.224C123.947 322.834 127.561 304.699 139.806 292.983C148.053 285.098 157.57 276.912 168.47 268.861C171.744 266.443 175.002 264.145 178.229 261.952C193.93 251.302 208.934 243.327 222.087 237.34C222.095 237.332 222.102 237.332 222.102 237.332C223.062 236.902 224.007 236.471 224.937 236.055C227.356 234.982 229.715 233.976 231.997 233.039V233.046Z" fill="#3B8BE8"/>
<path d="M269.823 233.046C287.579 240.371 309.969 251.589 333.35 268.869C344.25 276.92 353.767 285.106 362.006 292.99C374.26 304.707 377.873 322.841 370.918 338.232C367.154 346.569 361.968 355.618 354.795 364.59C344.681 377.244 333.803 385.733 325.488 391.176L269.823 233.046Z" fill="#3B8BE8"/>
<path d="M130.894 338.232C134.651 346.569 139.844 355.625 147.018 364.598C153.322 372.482 159.921 378.756 166.014 383.677C169.695 386.655 173.187 389.142 176.317 391.183L199.032 326.659L135.036 298.455C126.729 309.9 124.945 325.071 130.886 338.239L130.894 338.232Z" fill="#6BAFFF"/>
<path d="M302.796 326.704L325.496 391.176C333.811 385.733 344.681 377.244 354.803 364.59C361.976 355.618 367.162 346.562 370.926 338.232C376.86 325.102 375.099 309.976 366.844 298.546L302.796 326.704Z" fill="#6BAFFF"/>
<path d="M316.523 421.616H185.297C173.921 421.616 164.827 412.182 165.197 400.813C165.386 395.023 165.659 389.301 166.014 383.677C167.813 355.013 171.781 328.654 178.176 306.166C187.444 273.541 201.814 249.026 222.08 237.355C222.087 237.347 222.095 237.347 222.095 237.347C223.229 236.697 224.393 236.085 225.565 235.518C233.207 231.784 241.643 229.803 250.91 229.803C261.538 229.803 271.063 232.411 279.559 237.272C313.885 256.895 331.37 313.332 335.799 383.677C336.162 389.301 336.434 395.023 336.623 400.813C336.994 412.182 327.908 421.616 316.523 421.616Z" fill="#3B8BE8"/>
<path d="M173.399 330.869C170.345 330.869 167.601 328.76 166.913 325.653C156.21 277.434 178.721 244.121 179.681 242.73C181.767 239.706 185.909 238.95 188.933 241.036C191.949 243.123 192.713 247.258 190.634 250.274C190.369 250.667 170.519 280.503 179.9 322.773C180.694 326.356 178.434 329.909 174.85 330.71C174.367 330.816 173.883 330.869 173.407 330.869H173.399Z" fill="#1065B9"/>
<path d="M329.276 330.869C328.799 330.869 328.316 330.816 327.832 330.71C324.249 329.917 321.981 326.364 322.782 322.773C332.178 280.457 310.317 248.656 310.098 248.339C307.989 245.338 308.707 241.188 311.708 239.079C314.702 236.962 318.844 237.673 320.96 240.659C322.011 242.133 346.488 277.388 335.776 325.653C335.088 328.753 332.337 330.869 329.291 330.869H329.276Z" fill="#1065B9"/>
<path d="M353.518 427.868H148.303L131.983 313.007C130.206 300.489 139.92 289.302 152.559 289.302H349.27C361.908 289.302 371.622 300.489 369.845 313.007L353.525 427.868H353.518Z" fill="#192F48"/>
<path d="M272.424 363.842C272.424 376.178 262.045 386.088 249.542 385.31C238.831 384.645 230.108 375.929 229.442 365.21C228.664 352.707 238.574 342.329 250.91 342.329C253.306 342.329 255.604 342.722 257.751 343.44C259.014 343.863 259.543 345.345 258.893 346.509C257.872 348.338 257.396 350.515 257.668 352.821C258.212 357.371 261.795 361.09 266.331 361.801C267.54 361.99 268.727 361.967 269.846 361.763C271.161 361.521 272.424 362.474 272.424 363.812C272.424 363.819 272.424 363.834 272.424 363.842Z" fill="white"/>
<path d="M251.19 326.114C253.42 328.828 253.745 332.608 253.631 335.246C253.556 337.083 251.968 338.391 250.154 338.111C247.546 337.71 243.895 336.675 241.665 333.961C239.435 331.247 239.11 327.415 239.224 324.777C239.307 322.97 240.856 321.692 242.64 321.957C245.256 322.35 248.937 323.386 251.19 326.114Z" fill="white"/>
</g>
</g>
</g>
<defs>
<filter id="filter0_d_195_532" x="0" y="0" width="1326" height="439" filterUnits="userSpaceOnUse" color-interpolation-filters="sRGB">
<feFlood flood-opacity="0" result="BackgroundImageFix"/>
<feColorMatrix in="SourceAlpha" type="matrix" values="0 0 0 0 0 0 0 0 0 0 0 0 0 0 0 0 0 0 127 0" result="hardAlpha"/>
<feOffset dy="8"/>
<feGaussianBlur stdDeviation="17.5"/>
<feColorMatrix type="matrix" values="0 0 0 0 0.0980392 0 0 0 0 0.184314 0 0 0 0 0.282353 0 0 0 0.12 0"/>
<feBlend mode="normal" in2="BackgroundImageFix" result="effect1_dropShadow_195_532"/>
<feBlend mode="normal" in="SourceGraphic" in2="effect1_dropShadow_195_532" result="shape"/>
</filter>
<clipPath id="clip0_195_532">
<rect width="590" height="369" fill="white" transform="matrix(-1 0 0 1 625 27)"/>
</clipPath>
</defs>
</svg>
