<svg width="311" height="177" viewBox="0 0 311 177" fill="none" xmlns="http://www.w3.org/2000/svg">
<path d="M184.555 36.0705C184.555 41.5373 180.21 45.9896 174.783 46.1625C176.968 43.0156 178.247 39.1944 178.247 35.0763C178.247 33.9496 178.152 32.8401 177.965 31.7652C177.659 29.9871 177.115 28.2898 176.362 26.7134C176.264 26.5059 176.161 26.3013 176.054 26.0996C176.308 26.1371 176.561 26.1889 176.809 26.2495C181.25 27.3071 184.552 31.3041 184.552 36.0705H184.555Z" fill="#192F48"/>
<path d="M74.5977 30.9327C74.5977 41.8056 83.413 50.6181 94.2859 50.6181C105.159 50.6181 113.971 41.8056 113.971 30.9327C113.971 29.7915 113.873 28.6734 113.686 27.5841C112.098 18.3077 104.018 11.2473 94.2859 11.2473C92.9488 11.2473 91.6462 11.3799 90.384 11.6306C81.3785 13.4432 74.5977 21.394 74.5977 30.9298V30.9327Z" fill="#458EED"/>
<path d="M90.3833 11.6335C91.9712 20.9128 100.049 27.9732 109.783 27.9732C111.121 27.9732 112.423 27.8406 113.685 27.587C112.097 18.3106 104.017 11.2502 94.2852 11.2502C92.9481 11.2502 91.6455 11.3828 90.3833 11.6335Z" fill="#192F48"/>
<path d="M113.451 38.6527C116.476 38.6527 118.929 36.2 118.929 33.1744C118.929 30.1489 116.476 27.6962 113.451 27.6962C110.425 27.6962 107.973 30.1489 107.973 33.1744C107.973 36.2 110.425 38.6527 113.451 38.6527Z" fill="#458EED"/>
<path d="M105.785 35.03C104.684 35.9331 104.522 37.5577 105.425 38.6586C106.328 39.7595 107.953 39.9198 109.054 39.0166L113.816 35.1119C114.918 34.2087 115.079 32.5841 114.176 31.4832C113.274 30.3823 111.649 30.2221 110.547 31.1252L105.785 35.03Z" fill="white"/>
<path d="M86.5191 33.3704C85.643 33.0764 84.9918 32.6471 84.6517 32.3906C84.2511 32.0909 84.1733 31.5232 84.473 31.1226C84.7728 30.722 85.3405 30.6442 85.741 30.9439C86.1935 31.284 87.4096 32.0505 88.9744 31.8459C90.6026 31.6298 91.9974 30.4512 92.6141 28.7711C92.787 28.3014 93.3143 28.0622 93.7754 28.2322C94.2451 28.4051 94.4843 28.9238 94.3143 29.3935C93.4642 31.7105 91.5075 33.3358 89.2107 33.6413C88.1848 33.7767 87.2684 33.624 86.5191 33.3704Z" fill="#192F48"/>
<path d="M114.945 17.5269C119.785 17.5269 123.708 13.6034 123.708 8.76347C123.708 3.92354 119.785 0 114.945 0C110.105 0 106.181 3.92354 106.181 8.76347C106.181 13.6034 110.105 17.5269 114.945 17.5269Z" fill="#192F48"/>
<path d="M119.817 176.635H68.958C67.6843 176.635 66.6728 175.554 66.7679 174.286C66.9351 172.044 67.4336 168.981 68.6065 167.416C72.831 161.776 78.4388 160.555 78.4388 160.555C74.7503 149.861 69.0906 110.909 69.056 105.952C76.8827 105.756 84.7123 105.563 92.5391 105.37V105.281C93.1471 105.295 93.758 105.309 94.3661 105.324C94.9741 105.309 95.585 105.295 96.1931 105.281V105.37C104.02 105.563 111.849 105.756 119.676 105.952C119.644 110.909 113.985 149.861 110.296 160.555C110.296 160.555 116.08 161.555 120.304 167.194C121.495 168.782 121.904 172.021 122.013 174.338C122.071 175.589 121.071 176.635 119.82 176.635H119.817Z" fill="white"/>
<path d="M95.401 123.058V176.635H93.3262V123.058C93.3262 122.484 93.793 122.02 94.3636 122.02C94.9342 122.02 95.401 122.487 95.401 123.058Z" fill="#192F48"/>
<path d="M119.958 176.632H68.8108C67.6149 176.632 66.6726 175.62 66.7561 174.427C66.9117 172.174 67.4074 169.01 68.6062 167.413C69.586 166.105 70.6407 165.033 71.6839 164.16C75.2226 161.197 76.8709 160.875 77.4588 160.843C78.1763 160.805 78.77 160.915 79.1561 161.013C80.7267 161.578 83.1156 162.232 86.0866 162.287C89.2335 162.347 91.7723 161.707 93.3975 161.163L95.3398 161.157C96.9161 161.641 99.0774 162.122 101.671 162.186C105.045 162.266 107.789 161.601 109.596 161.007C109.967 160.886 110.538 160.753 111.221 160.797C112.163 160.857 112.783 161.304 113.719 161.756C115.693 162.71 118.195 164.37 120.307 167.188C121.523 168.811 121.924 172.151 122.022 174.473C122.071 175.646 121.14 176.629 119.964 176.629L119.958 176.632Z" fill="#192F48"/>
<path d="M114.342 113.104H73.7848C68.7246 113.104 67.0705 113.104 67.5748 106.672C67.7131 104.889 67.716 103.116 67.8255 101.379C68.3816 92.5203 69.6064 84.3708 71.5832 77.4201C74.1624 68.337 78.021 61.2883 83.3377 57.3432C83.9256 56.9081 84.5279 56.5104 85.1503 56.1531H85.1561C85.5077 55.9514 85.8679 55.7612 86.231 55.5854C88.594 54.4327 91.199 53.8218 94.0634 53.8218C97.3486 53.8218 100.291 54.6287 102.916 56.13C103.737 56.5998 104.533 57.1386 105.293 57.7467C114.339 64.9308 119.036 81.3248 120.299 101.382C120.411 103.119 121.154 107.667 121.215 109.456C121.327 112.972 119.561 113.107 114.342 113.107V113.104Z" fill="#192F48"/>
<path d="M88.2171 54.8246L86.4362 59.8792L71.01 103.699C70.0418 103.071 68.964 102.302 67.8257 101.382C65.9439 99.8609 63.9036 97.9215 61.9526 95.4835C59.7365 92.7112 58.1314 89.913 56.97 87.3339C54.8202 82.576 55.9355 76.971 59.7221 73.3486C62.2696 70.9106 65.2119 68.3833 68.5778 65.8935C69.5922 65.1471 70.5951 64.4353 71.595 63.7581C75.667 60.9973 79.5862 58.8187 83.1423 57.0983C83.8253 56.7669 84.4938 56.4528 85.1509 56.1531H85.1566C85.4535 56.0177 85.7474 55.888 86.0356 55.7583C86.782 55.4269 87.5139 55.1156 88.2171 54.8275V54.8246Z" fill="#192F48"/>
<path d="M131.155 87.3339C129.991 89.9102 128.388 92.7084 126.169 95.4835C124.221 97.9215 122.181 99.8609 120.296 101.382C119.158 102.302 118.08 103.065 117.112 103.699L101.815 60.251L99.9077 54.8246C100.867 55.2194 101.867 55.6517 102.911 56.1272C103.778 56.5191 104.671 56.9456 105.591 57.398C109.864 59.5075 114.628 62.2682 119.538 65.8964C122.907 68.3862 125.847 70.9135 128.394 73.3515C132.181 76.9739 133.299 82.5789 131.149 87.3367L131.155 87.3339Z" fill="#192F48"/>
<path d="M105.597 57.3981C105.502 57.5134 105.401 57.6316 105.294 57.7439C104.392 58.7295 103.211 59.5825 101.819 60.2511C99.7469 61.2482 97.2167 61.8361 94.4877 61.8361C91.433 61.8361 88.6319 61.1012 86.436 59.8765C85.1824 59.1762 84.1248 58.3174 83.3381 57.3405C83.2718 57.2598 83.2084 57.1762 83.145 57.0955C83.828 56.7641 84.4966 56.45 85.1536 56.1503H85.1594C85.511 55.9486 85.8712 55.7584 86.2343 55.5826C88.5973 54.4299 91.2024 53.819 94.0669 53.819C97.3521 53.819 100.294 54.6259 102.92 56.1273C103.787 56.5192 104.68 56.9457 105.6 57.3981H105.597Z" fill="#458EED"/>
<path d="M78.0142 58.1818C77.4552 58.3662 77.092 58.9137 77.1526 59.4987C78.5185 73.135 82.2503 83.6849 85.2358 90.4829C88.9273 98.8888 93.9097 109.903 105.246 119.407C109.07 122.611 112.791 124.951 115.932 126.643C118.015 127.764 120.577 127.513 122.39 125.994C124.511 124.213 126.934 121.732 129.055 118.384C130.603 115.94 131.646 113.58 132.358 111.525C133.026 109.591 132.643 107.445 131.323 105.883C129.104 103.252 126.467 100.451 123.358 97.641C121.28 95.765 119.234 94.1052 117.278 92.6441C115.935 91.6413 114.056 91.8142 112.915 93.0418L110.664 95.4625C109.238 96.9955 106.886 97.1886 105.223 95.9207C100.866 92.6038 95.365 87.5868 90.4084 80.4055C84.6911 72.1293 81.916 64.1988 80.5069 58.7725C80.3253 58.0694 79.5876 57.6659 78.8989 57.8907L78.0142 58.1789V58.1818Z" fill="#56EE80"/>
<path d="M142.444 39.2954C146.243 39.2954 149.323 36.2157 149.323 32.4166C149.323 28.6176 146.243 25.5378 142.444 25.5378C138.645 25.5378 135.565 28.6176 135.565 32.4166C135.565 36.2157 138.645 39.2954 142.444 39.2954Z" fill="white"/>
<path d="M178.246 35.0738C178.246 45.8314 169.526 54.5488 158.774 54.5488C148.022 54.5488 139.296 45.8314 139.296 35.0738C139.296 25.6389 146.005 17.7745 154.912 15.982C156.163 15.7313 157.451 15.5988 158.774 15.5988C160.48 15.5988 162.14 15.8178 163.716 16.2356C170.31 17.9589 175.543 23.0568 177.453 29.5725C177.667 30.2871 177.837 31.0191 177.964 31.7626C178.151 32.8375 178.246 33.947 178.246 35.0738Z" fill="#88BEFF"/>
<path d="M154.479 30.3936C152.298 30.3936 150.776 29.166 150.217 28.6329C149.857 28.2871 149.842 27.7136 150.188 27.3534C150.534 26.9931 151.107 26.9787 151.468 27.3245C151.871 27.7107 152.981 28.6069 154.531 28.5839C156.15 28.5608 157.655 27.5666 158.456 25.9903C158.681 25.5436 159.228 25.3649 159.672 25.5926C160.119 25.8203 160.294 26.3649 160.07 26.8087C158.963 28.9873 156.848 30.3619 154.554 30.3936C154.528 30.3936 154.502 30.3936 154.476 30.3936H154.479Z" fill="#192F48"/>
<path d="M178.682 21.3191C178.682 23.2095 177.976 24.9386 176.809 26.2498C176.671 26.4112 176.518 26.5668 176.362 26.7138C176.264 26.5063 176.161 26.3017 176.054 26.0999C174.143 22.4228 171.089 19.4315 167.366 17.5958C166.723 17.2788 166.063 16.9964 165.386 16.7486C165.804 16.2097 166.296 15.7284 166.847 15.325C168.077 14.4172 169.599 13.8812 171.247 13.8812C175.354 13.8812 178.682 17.2097 178.682 21.3162V21.3191Z" fill="#192F48"/>
<path d="M167.366 17.5958C166.723 17.2788 166.063 16.9964 165.386 16.7486C163.322 16.0022 161.095 15.5987 158.772 15.5987C157.447 15.5987 156.158 15.7313 154.911 15.982C154.671 16.031 154.429 16.0829 154.193 16.1434C153.677 16.2644 153.17 16.4085 152.674 16.5728C152.755 16.1866 152.865 15.812 153.006 15.4518C154.075 12.6564 156.781 10.6709 159.951 10.6709C163.121 10.6709 165.749 12.5959 166.847 15.3278C167.135 16.0368 167.314 16.8004 167.366 17.5958Z" fill="#192F48"/>
<path d="M154.193 16.1434C153.678 16.2644 153.17 16.4085 152.675 16.5727C147.735 18.2009 143.666 21.7513 141.361 26.3391C138.77 22.7599 139.493 17.7168 142.949 15.0281C146.352 12.3798 151.335 12.8552 154.196 16.1405L154.193 16.1434Z" fill="#192F48"/>
<path d="M177.454 29.5723C176.31 29.993 175.074 30.2236 173.783 30.2236C167.919 30.2236 163.167 25.4715 163.167 19.61C163.167 18.4314 163.357 17.296 163.714 16.2355C170.308 17.9588 175.541 23.0566 177.451 29.5723H177.454Z" fill="#192F48"/>
<path d="M173.489 40.7421C177.556 40.7421 180.852 37.0146 180.852 32.4166C180.852 27.8186 177.556 24.0912 173.489 24.0912C169.423 24.0912 166.126 27.8186 166.126 32.4166C166.126 37.0146 169.423 40.7421 173.489 40.7421Z" fill="white"/>
<path d="M176.29 25.1806L173.748 24.7138C173.826 24.2959 174.417 20.5612 171.651 17.6592C170.097 16.031 168.238 15.446 166.818 15.2558C166.397 14.2415 165.76 13.3423 164.962 12.6104C166.587 12.5239 170.495 12.6997 173.521 15.8754C177.175 19.7053 176.391 24.6331 176.29 25.1835V25.1806Z" fill="white"/>
<path d="M178.869 176.632H136.56C134.845 176.632 133.514 175.133 133.724 173.433C133.934 171.733 134.381 169.704 135.214 168.592C138.897 163.675 143.79 162.609 143.79 162.609C140.571 153.284 135.638 119.314 135.609 114.992C142.435 114.822 149.262 114.652 156.089 114.485V114.407C156.619 114.418 157.152 114.433 157.683 114.444C158.213 114.433 158.746 114.418 159.276 114.407V114.485C166.103 114.652 172.93 114.822 179.757 114.992C179.728 119.314 174.791 153.284 171.578 162.609C171.578 162.609 176.621 163.482 180.307 168.399C181.169 169.548 181.56 171.69 181.725 173.54C181.872 175.205 180.549 176.635 178.878 176.635L178.869 176.632Z" fill="#88BEFF"/>
<path d="M158.585 129.91V176.636H156.775V129.91C156.775 129.412 157.181 129.006 157.68 129.006C158.178 129.006 158.585 129.412 158.585 129.91Z" fill="#192F48"/>
<path d="M135.467 111.347C133.911 115.894 130.49 126.133 128.43 132.308C127.629 134.714 129.133 137.314 131.329 137.314H183.16C185.353 137.314 186.857 134.717 186.059 132.314L179.114 111.387C178.647 109.981 177.497 109.056 176.215 109.056H138.355C137.084 109.056 135.943 109.96 135.467 111.349V111.347Z" fill="#192F48"/>
<path d="M177.916 94.8063H136.572C133.384 94.8063 130.897 92.0513 131.217 88.8813L133.707 64.3315C133.987 61.5852 136.298 59.493 139.061 59.493H175.426C178.187 59.493 180.501 61.5852 180.781 64.3315L183.271 88.8813C183.593 92.0513 181.104 94.8063 177.916 94.8063Z" fill="#308AFF"/>
<path d="M176.379 113.773H138.107C134.787 113.773 132.136 111.021 132.245 107.704C132.3 106.015 132.381 104.347 132.485 102.707C133.009 94.3473 134.165 86.6589 136.032 80.1001C138.735 70.5847 142.925 63.4351 148.835 60.0289H148.841C149.173 59.8388 149.51 59.663 149.853 59.4958C152.083 58.4066 154.541 57.8302 157.244 57.8302C160.342 57.8302 163.12 58.591 165.598 60.0088C175.609 65.7319 180.71 82.1922 182.001 102.71C182.108 104.35 182.188 106.018 182.24 107.707C182.35 111.024 179.699 113.776 176.379 113.776V113.773Z" fill="#1264C7"/>
<path d="M151.727 58.7754L135.491 104.898C134.577 104.304 133.557 103.578 132.485 102.711C130.707 101.276 128.782 99.4458 126.944 97.1462C124.851 94.5295 123.339 91.8869 122.241 89.4547C120.212 84.9678 121.267 79.6769 124.837 76.2591C127.243 73.9594 130.018 71.5705 133.197 69.2218C134.151 68.5158 135.102 67.8443 136.041 67.2075C140.621 64.1009 144.998 61.7753 148.834 60.029H148.839C149.119 59.9022 149.395 59.7782 149.666 59.6572C150.372 59.3431 151.061 59.052 151.727 58.7783V58.7754Z" fill="#1264C7"/>
<path d="M162.76 58.7755C167.939 60.9109 174.469 64.1846 181.287 69.2219C184.466 71.5705 187.241 73.9595 189.647 76.2563C193.221 79.6741 194.275 84.9621 192.247 89.4519C191.149 91.8841 189.636 94.5238 187.543 97.1405C184.593 100.832 181.423 103.307 178.996 104.895L162.76 58.7726V58.7755Z" fill="#1264C7"/>
<path d="M136.471 87.7429C135.581 87.7429 134.779 87.1262 134.578 86.2214C131.454 72.1526 139.272 60.735 139.606 60.2566C140.22 59.3777 141.431 59.1615 142.307 59.7753C143.186 60.3892 143.399 61.5966 142.788 62.4756C142.704 62.5937 135.621 73.0257 138.361 85.3828C138.595 86.4289 137.935 87.4663 136.889 87.6968C136.748 87.7285 136.606 87.7429 136.468 87.7429H136.471Z" fill="#308AFF"/>
<path d="M177.025 87.743C176.886 87.743 176.745 87.7286 176.604 87.6969C175.558 87.4634 174.898 86.4289 175.131 85.3828C177.889 72.9595 170.78 62.5822 170.708 62.4785C170.094 61.5995 170.31 60.3892 171.189 59.7783C172.068 59.1645 173.278 59.3806 173.889 60.2595C174.224 60.7379 182.042 72.1555 178.918 86.2243C178.716 87.1292 177.915 87.7459 177.025 87.7459V87.743Z" fill="#308AFF"/>
<path d="M58.2691 176.634H14.7005C13.3606 176.634 12.303 175.485 12.4269 174.15C12.6027 172.249 13.0464 169.86 13.9945 168.595C17.6774 163.678 22.5705 162.612 22.5705 162.612C19.3516 153.287 14.4181 119.317 14.3893 114.995C21.2161 114.825 28.0429 114.655 34.8696 114.487V114.41C35.3999 114.421 35.933 114.436 36.4632 114.447C36.9935 114.436 37.5266 114.421 38.0568 114.41V114.487C44.8836 114.655 51.7104 114.825 58.5371 114.995C58.5083 119.317 53.572 153.287 50.3588 162.612C50.3588 162.612 55.4018 163.485 59.0875 168.401C60.0558 169.695 60.4333 172.243 60.5543 174.22C60.635 175.531 59.589 176.634 58.2749 176.634H58.2691Z" fill="#6BAFFF"/>
<path d="M58.5326 114.992C58.5153 117.565 56.7574 130.654 54.6595 142.789C52.8555 143.599 49.4579 144.835 45.0574 144.738C41.1958 144.648 38.1959 143.568 36.4582 142.789C34.5908 143.582 31.2422 144.717 26.9455 144.64C23.0839 144.573 20.0609 143.553 18.2598 142.789C16.1619 130.654 14.4069 117.565 14.3867 114.992C21.2136 114.822 28.0405 114.652 34.8675 114.485V114.407C35.3977 114.418 35.9308 114.433 36.4611 114.444C36.9913 114.433 37.5245 114.418 38.0547 114.407V114.485C44.8816 114.652 51.7085 114.822 58.5354 114.992H58.5326Z" fill="#192F48"/>
<path d="M58.7837 176.632H14.1767C13.1335 176.632 12.3122 175.75 12.3843 174.71C12.5197 172.744 12.952 169.987 13.9981 168.592C16.7415 164.929 20.1535 163.405 21.7183 162.863C22.2111 162.693 22.7529 162.742 23.1996 163.01C24.4042 163.73 26.6779 164.808 29.6778 164.771C32.3463 164.736 34.4068 163.837 35.62 163.142C36.1445 162.843 36.7871 162.837 37.3116 163.137C38.6084 163.877 40.9311 164.892 43.9195 164.771C46.5765 164.661 48.5966 163.699 49.7436 163.007C50.1701 162.75 50.683 162.681 51.1614 162.822C51.7954 163.01 52.5418 163.272 53.34 163.658C55.0604 164.491 57.2448 165.938 59.0863 168.396C60.1468 169.811 60.4955 172.724 60.5819 174.75C60.6251 175.773 59.8125 176.629 58.7866 176.629L58.7837 176.632Z" fill="white"/>
<path d="M37.3664 129.91V176.636H35.5566V129.91C35.5566 129.412 35.963 129.006 36.4615 129.006C36.9601 129.006 37.3664 129.412 37.3664 129.91Z" fill="#192F48"/>
<path d="M54.8703 42.0157C54.8703 52.1826 46.6284 60.4215 36.4615 60.4215C26.2947 60.4215 18.0557 52.1826 18.0557 42.0157C18.0557 40.9494 18.145 39.9033 18.3208 38.8861C19.8049 30.2119 27.3609 23.6127 36.4587 23.6127C37.7094 23.6127 38.9255 23.7366 40.107 23.9729C48.5275 25.6674 54.8674 33.1023 54.8674 42.0185L54.8703 42.0157Z" fill="#6BAFFF"/>
<path d="M40.1129 23.9701C38.6287 32.6471 31.0756 39.2464 21.975 39.2464C20.7243 39.2464 19.5082 39.1224 18.3267 38.8833C19.8108 30.2091 27.3668 23.6099 36.4645 23.6099C37.7152 23.6099 38.9313 23.7338 40.1129 23.9701Z" fill="#192F48"/>
<path d="M18.5422 49.2343C21.372 49.2343 23.666 46.9403 23.666 44.1105C23.666 41.2807 21.372 38.9867 18.5422 38.9867C15.7125 38.9867 13.4185 41.2807 13.4185 44.1105C13.4185 46.9403 15.7125 49.2343 18.5422 49.2343Z" fill="#6BAFFF"/>
<path d="M17.8804 42.5208L17.8786 42.523C17.035 43.5519 17.1852 45.0699 18.2141 45.9135L22.6687 49.5661C23.6976 50.4098 25.2156 50.2596 26.0592 49.2307L26.061 49.2285C26.9047 48.1996 26.7545 46.6816 25.7256 45.8379L21.271 42.1854C20.2421 41.3417 18.7241 41.4919 17.8804 42.5208Z" fill="white"/>
<path d="M46.3254 41.1769C45.5588 41.4103 44.4868 41.5573 43.3111 41.1971C41.4465 40.6265 40.0489 39.0041 39.6656 36.9666C39.5734 36.4767 39.8962 36.0041 40.389 35.909C40.8817 35.8168 41.3543 36.1396 41.4466 36.6324C41.7059 38.007 42.6252 39.0934 43.8442 39.4651C45.0142 39.8225 46.0459 39.3902 46.4378 39.1885C46.8816 38.9579 47.4291 39.1309 47.6597 39.5746C47.8902 40.0184 47.7173 40.566 47.2735 40.7965C47.0689 40.9031 46.7433 41.053 46.3283 41.1769H46.3254Z" fill="#192F48"/>
<path d="M39.0595 23.8405C39.0595 23.8405 45.3187 23.6791 48.7394 21.2095C52.16 18.7398 54.1629 14.7082 58.9898 17.8868C63.8168 21.0654 61.4653 30.0046 54.6903 31.6444C47.9152 33.2841 40.3736 30.434 39.0566 23.8405H39.0595Z" fill="#192F48"/>
<path d="M56.7005 102.022H15.3557C12.1685 102.022 9.6815 99.2669 10.0014 96.0969L12.4912 71.5471C12.7708 68.8008 15.0819 66.7086 17.8456 66.7086H54.2106C56.9714 66.7086 59.2854 68.8008 59.565 71.5471L62.0548 96.0969C62.3776 99.2669 59.8877 102.022 56.7005 102.022Z" fill="#FFEC3E"/>
<path d="M30.5105 65.9912L14.2746 112.114C13.3611 111.52 12.341 110.794 11.269 109.927C9.4909 108.492 7.56588 106.662 5.72731 104.362C3.63514 101.745 2.12221 99.1028 1.02425 96.6706C-1.00451 92.1836 0.0502172 86.8927 3.62073 83.4749C6.02701 81.1753 8.80216 78.7863 11.9808 76.4376C12.9346 75.7316 13.8856 75.0601 14.8251 74.4233C19.4042 71.3167 23.7816 68.9911 27.6172 67.2448H27.623C27.9025 67.118 28.1792 66.9941 28.4501 66.873C29.1561 66.5589 29.8449 66.2679 30.5105 65.9941V65.9912Z" fill="#147AFF"/>
<path d="M41.5449 65.9912C46.7235 68.1266 53.2536 71.4002 60.0718 76.4376C63.2504 78.7862 66.0256 81.1752 68.4319 83.472C72.0053 86.8898 73.06 92.1778 71.0312 96.6676C69.9333 99.0998 68.4203 101.74 66.3282 104.356C63.3772 108.048 60.2073 110.523 57.7808 112.111L41.5449 65.9883V65.9912Z" fill="#147AFF"/>
<path d="M1.02146 96.6701C2.11941 99.1023 3.63235 101.742 5.72451 104.362C7.56308 106.661 9.4881 108.491 11.2662 109.926C12.3411 110.797 13.3583 111.52 14.2718 112.114L20.897 93.2956L2.2318 85.0681C-0.191772 88.4052 -0.713367 92.8316 1.02146 96.6701Z" fill="#6BAFFF"/>
<path d="M51.1606 93.3101L57.7801 112.117C60.2065 110.529 63.3765 108.053 66.3274 104.362C68.4196 101.745 69.9325 99.1053 71.0304 96.6731C72.7595 92.8432 72.2465 88.4313 69.8403 85.097L51.1606 93.3101Z" fill="#6BAFFF"/>
<path d="M55.1631 120.992H16.8911C13.5713 120.992 10.9201 118.239 11.0296 114.923C11.0844 113.234 11.1651 111.565 11.2688 109.926C11.7933 101.566 12.9489 93.8775 14.8162 87.3187C17.5193 77.8033 21.7093 70.6538 27.6197 67.2476H27.6254C27.9568 67.0574 28.294 66.8816 28.6369 66.7144C30.8673 65.6252 33.3255 65.0488 36.0285 65.0488C39.1263 65.0488 41.9043 65.8096 44.3826 67.2274C54.3936 72.9505 59.4943 89.4108 60.7853 109.929C60.8919 111.568 60.9726 113.237 61.0245 114.925C61.134 118.242 58.4828 120.994 55.1631 120.994V120.992Z" fill="#147AFF"/>
<path d="M13.4184 94.5235C12.528 94.5235 11.7268 93.9068 11.5251 93.002C8.40416 78.9389 14.9688 69.2216 15.2484 68.8153C15.8564 67.9334 17.0639 67.7115 17.9486 68.3225C18.8275 68.9305 19.0494 70.1351 18.4443 71.0169C18.3664 71.1293 12.577 79.8351 15.3118 92.1605C15.5452 93.2066 14.8853 94.244 13.8392 94.4745C13.698 94.5062 13.5568 94.5206 13.4184 94.5206V94.5235Z" fill="#FFEC3E"/>
<path d="M58.8796 94.5236C58.7413 94.5236 58.6001 94.5092 58.4589 94.4775C57.4128 94.2441 56.7528 93.2095 56.9863 92.1634C59.7268 79.8208 53.3495 70.5473 53.2861 70.455C52.6723 69.579 52.8797 68.3687 53.7558 67.752C54.629 67.1353 55.8364 67.3399 56.456 68.213C56.7615 68.6453 63.8996 78.9275 60.7758 93.002C60.5741 93.9069 59.773 94.5236 58.8825 94.5236H58.8796Z" fill="#FFEC3E"/>
<path d="M179.011 176.632H136.413C134.776 176.632 133.517 175.203 133.704 173.58C133.912 171.794 134.355 169.736 135.211 168.592C138.894 163.676 143.787 162.609 143.787 162.609C143.122 160.682 142.384 157.705 141.629 154.154H173.726C172.974 157.705 172.236 160.684 171.571 162.609C171.571 162.609 176.614 163.483 180.299 168.399C181.184 169.578 181.573 171.799 181.729 173.681C181.858 175.272 180.605 176.635 179.011 176.635V176.632Z" fill="#192F48"/>
<path d="M293.297 53.554C298.461 53.554 302.648 49.3673 302.648 44.2027C302.648 39.0381 298.461 34.8513 293.297 34.8513C288.132 34.8513 283.945 39.0381 283.945 44.2027C283.945 49.3673 288.132 53.554 293.297 53.554Z" fill="#192F48"/>
<path d="M251.053 41.2089C251.053 51.0242 259.009 58.9779 268.825 58.9779C278.64 58.9779 286.594 51.0242 286.594 41.2089C286.594 40.1801 286.507 39.1686 286.337 38.1859C284.905 29.8115 277.608 23.437 268.825 23.437C267.617 23.437 266.441 23.558 265.303 23.7828C257.174 25.4197 251.053 32.5953 251.053 41.206V41.2089Z" fill="#A382FF"/>
<path d="M265.304 23.7857C266.736 32.163 274.03 38.5346 282.816 38.5346C284.024 38.5346 285.199 38.4136 286.338 38.1859C284.906 29.8115 277.609 23.437 268.825 23.437C267.618 23.437 266.442 23.558 265.304 23.7828V23.7857Z" fill="#192F48"/>
<path d="M286.127 48.1766C288.858 48.1766 291.072 45.9626 291.072 43.2315C291.072 40.5004 288.858 38.2864 286.127 38.2864C283.396 38.2864 281.182 40.5004 281.182 43.2315C281.182 45.9626 283.396 48.1766 286.127 48.1766Z" fill="#A382FF"/>
<path d="M259.496 40.9522C258.695 40.6726 258.105 40.275 257.796 40.0387C257.401 39.7332 257.326 39.1655 257.632 38.7678C257.937 38.3701 258.505 38.2981 258.903 38.6035C259.298 38.909 260.367 39.5977 261.747 39.4306C263.185 39.2548 264.43 38.226 264.992 36.7448C265.171 36.2779 265.698 36.0474 266.159 36.2203C266.626 36.399 266.862 36.9206 266.684 37.3874C265.882 39.4998 264.073 40.9723 261.966 41.2288C261.024 41.3441 260.185 41.1942 259.499 40.9551L259.496 40.9522Z" fill="#192F48"/>
<path d="M285.13 51.1275C287.311 51.1275 289.078 49.3599 289.078 47.1795C289.078 44.999 287.311 43.2314 285.13 43.2314C282.95 43.2314 281.182 44.999 281.182 47.1795C281.182 49.3599 282.95 51.1275 285.13 51.1275Z" fill="white"/>
<path d="M256.731 33.2552C262.058 33.2552 266.376 29.1523 266.376 24.0912C266.376 19.03 262.058 14.9271 256.731 14.9271C251.404 14.9271 247.085 19.03 247.085 24.0912C247.085 29.1523 251.404 33.2552 256.731 33.2552Z" fill="#192F48"/>
<path d="M290.907 176.634H247.713C246.258 176.634 245.123 175.375 245.27 173.926C245.46 172.064 245.904 169.811 246.814 168.595C250.497 163.678 255.39 162.612 255.39 162.612C252.171 153.287 247.238 119.317 247.209 114.995C254.036 114.825 260.863 114.655 267.689 114.487V114.41C268.22 114.421 268.753 114.436 269.283 114.447C269.813 114.436 270.346 114.421 270.877 114.41V114.487C277.703 114.655 284.53 114.825 291.357 114.995C291.328 119.317 286.392 153.287 283.179 162.612C283.179 162.612 288.222 163.485 291.907 168.401C292.841 169.649 293.224 172.064 293.36 174.009C293.458 175.43 292.334 176.634 290.91 176.634H290.907Z" fill="#A382FF"/>
<path d="M270.188 129.91V176.636H268.378V129.91C268.378 129.412 268.784 129.006 269.283 129.006C269.781 129.006 270.188 129.412 270.188 129.91Z" fill="#192F48"/>
<path d="M263.331 65.9912L261.898 70.0602L253.717 93.2931L253.184 94.8031L247.092 112.111C246.178 111.517 245.158 110.791 244.086 109.924C243.53 109.477 242.962 108.987 242.383 108.46C242.323 108.402 242.265 108.35 242.204 108.293C241.916 108.03 241.631 107.754 241.34 107.466C241.106 107.235 240.873 106.999 240.64 106.754C240.291 106.388 239.939 106.005 239.588 105.604C239.239 105.206 238.89 104.791 238.544 104.362C236.449 101.745 234.937 99.1027 233.841 96.6705C233.669 96.2901 233.522 95.9039 233.392 95.512C233.305 95.2411 233.225 94.9731 233.161 94.6994C233.104 94.4775 233.058 94.2527 233.014 94.0279C232.98 93.8406 232.951 93.6591 232.925 93.4717C232.856 92.9559 232.821 92.4372 232.821 91.9214C232.821 91.7801 232.821 91.6389 232.83 91.4977C232.83 91.4776 232.83 91.4574 232.83 91.4401C232.836 91.3075 232.841 91.175 232.853 91.0424C232.853 91.028 232.853 91.0107 232.853 90.9963C232.865 90.858 232.879 90.7196 232.896 90.5784C232.934 90.2499 232.986 89.9214 233.052 89.5986C233.081 89.469 233.109 89.3393 233.138 89.2096C233.199 88.9618 233.265 88.7139 233.34 88.469C233.346 88.4546 233.349 88.4373 233.357 88.42C233.375 88.3566 233.398 88.2932 233.421 88.2298C233.458 88.1203 233.493 88.0108 233.533 87.9013C233.579 87.7802 233.625 87.6592 233.674 87.5382C233.7 87.4805 233.723 87.4258 233.743 87.371C233.79 87.2644 233.833 87.1607 233.882 87.054C233.948 86.91 234.017 86.7687 234.086 86.6304C234.141 86.5238 234.196 86.4172 234.256 86.3105C234.274 86.2788 234.291 86.2471 234.308 86.2212C234.38 86.0915 234.455 85.9619 234.533 85.8351C234.539 85.8235 234.547 85.812 234.553 85.8005C234.628 85.6794 234.706 85.5613 234.784 85.4431C234.867 85.3163 234.96 85.1895 235.049 85.0627C235.458 84.4979 235.922 83.9648 236.438 83.472C238.841 81.1695 241.616 78.7833 244.795 76.4347C245.749 75.7287 246.7 75.0572 247.642 74.4203C251.896 71.5357 255.973 69.3225 259.604 67.6223C259.884 67.4897 260.161 67.3629 260.432 67.239H260.437C260.717 67.1122 260.996 66.9883 261.264 66.8672C261.97 66.5531 262.659 66.262 263.325 65.9883L263.331 65.9912Z" fill="#805FD9"/>
<path d="M304.872 91.9243C304.872 92.4257 304.837 92.93 304.774 93.4286C304.748 93.6274 304.716 93.8291 304.679 94.028C304.641 94.2268 304.601 94.4257 304.552 94.6216C304.483 94.9213 304.396 95.2153 304.301 95.5092C304.171 95.9011 304.022 96.2873 303.852 96.6677C302.756 99.0999 301.241 101.74 299.148 104.359C297.592 106.304 295.978 107.909 294.443 109.229C293.062 110.414 291.751 111.359 290.601 112.111L284.509 94.8032L283.982 93.3075L275.967 70.5415L274.365 65.9912C275.27 66.363 276.215 66.7722 277.201 67.2188C277.201 67.2188 277.201 67.2188 277.207 67.2188C277.714 67.4465 278.23 67.6886 278.757 67.9393C283.031 69.9853 287.884 72.7346 292.898 76.4347C296.074 78.7834 298.849 81.1724 301.255 83.472C301.78 83.9735 302.252 84.5181 302.664 85.0916C302.754 85.2184 302.843 85.3452 302.929 85.472C303.013 85.6017 303.096 85.7313 303.174 85.861C303.255 85.9936 303.333 86.1262 303.405 86.2587C303.558 86.5267 303.693 86.8005 303.82 87.0771C303.883 87.2155 303.944 87.3567 304.001 87.4979C304.062 87.6362 304.114 87.7774 304.168 87.9186C304.22 88.0627 304.269 88.2068 304.315 88.3509C304.364 88.495 304.405 88.6419 304.448 88.786C304.488 88.933 304.526 89.08 304.56 89.2269C304.598 89.3739 304.627 89.5238 304.656 89.6707C304.679 89.7802 304.699 89.8897 304.716 89.9993C304.728 90.0598 304.739 90.1174 304.748 90.1808C304.762 90.2759 304.777 90.371 304.788 90.469C304.8 90.541 304.808 90.6131 304.814 90.6822C304.828 90.7946 304.837 90.9041 304.846 91.0165C304.846 91.0281 304.846 91.0367 304.846 91.0482C304.857 91.1808 304.866 91.3133 304.869 91.4459C304.869 91.4661 304.869 91.4863 304.869 91.5035C304.875 91.6448 304.877 91.7859 304.877 91.9272L304.872 91.9243Z" fill="#805FD9"/>
<path d="M233.844 96.6701C234.942 99.1023 236.455 101.742 238.547 104.362C240.385 106.661 242.31 108.491 244.088 109.926C245.163 110.797 246.181 111.52 247.094 112.114L253.719 93.2956L235.054 85.0681C232.63 88.4052 232.109 92.8316 233.844 96.6701Z" fill="#A382FF"/>
<path d="M283.98 93.3101L290.599 112.117C293.026 110.529 296.196 108.053 299.147 104.362C301.239 101.745 302.752 99.1053 303.85 96.6731C305.579 92.8432 305.066 88.4313 302.66 85.097L283.98 93.3101Z" fill="#A382FF"/>
<path d="M290.102 94.806H245.656C246.109 93.0539 246.506 91.5179 246.838 90.2643C247.186 88.9387 247.46 87.933 247.636 87.3192C250.221 78.2214 254.163 71.285 259.667 67.7202C259.921 67.5531 260.178 67.3975 260.437 67.2476H260.443C260.774 67.0574 261.114 66.8816 261.454 66.7145C263.685 65.6281 266.143 65.0488 268.849 65.0488C271.944 65.0488 274.722 65.8096 277.197 67.2246C277.197 67.2246 277.197 67.2246 277.203 67.2246C277.624 67.4666 278.056 67.824 278.5 68.2937C281.67 71.6394 285.347 80.5326 288.9 91.1462C289.304 92.3479 289.704 93.5668 290.102 94.806Z" fill="#805FD9"/>
<path d="M302.226 138.994C299.898 129.349 295.209 110.718 290.103 94.8054H245.658C242.615 106.589 237.195 128.124 234.474 138.945C233.636 142.285 236.16 145.521 239.604 145.521H297.088C300.512 145.521 303.033 142.322 302.229 138.994H302.226Z" fill="#613CC4"/>
<path d="M278.753 67.9452C278.675 68.0634 278.589 68.1786 278.499 68.291C277.834 69.1556 276.975 69.9163 275.966 70.5417C274.131 71.6829 271.814 72.363 269.283 72.363C266.422 72.363 263.822 71.4898 261.897 70.0604C260.99 69.3918 260.232 68.5994 259.667 67.7175C259.647 67.6858 259.627 67.657 259.606 67.6282C259.886 67.4956 260.163 67.3689 260.434 67.2449H260.439C260.771 67.0547 261.111 66.8789 261.451 66.7118C263.681 65.6254 266.139 65.0461 268.845 65.0461C271.94 65.0461 274.718 65.8069 277.194 67.2219C277.194 67.2219 277.194 67.2219 277.2 67.2219C277.707 67.4495 278.223 67.6916 278.75 67.9423L278.753 67.9452Z" fill="#A382FF"/>
<path d="M288.902 91.1456C288.902 91.1456 288.732 80.0798 283.98 70.6653C283.98 70.6653 289.179 71.5125 291.847 75.6823C291.847 75.6823 293.521 87.4512 293.418 95.7246C293.418 95.7246 312.336 102.543 310.486 113.254C308.636 123.965 299.092 126.449 299.092 126.449L288.899 91.1427L288.902 91.1456Z" fill="#192F48"/>
<path d="M291.003 176.635H247.612C246.223 176.635 245.122 175.442 245.254 174.061C245.436 172.177 245.88 169.842 246.814 168.595C248.093 166.886 249.52 165.641 250.836 164.745C254.384 167.2 260.392 170.413 268.375 170.952C277.591 171.572 284.87 168.324 289.242 165.629C290.15 166.367 291.06 167.278 291.902 168.399C292.853 169.667 293.233 172.142 293.363 174.102C293.452 175.471 292.374 176.632 291.003 176.632V176.635Z" fill="#192F48"/>
<path d="M240.497 176.635H189.393C188.185 176.635 187.232 175.612 187.315 174.41C187.474 172.156 187.969 169.01 189.162 167.416C193.387 161.776 198.995 160.555 198.995 160.555C195.306 149.861 189.646 110.909 189.612 105.952C197.439 105.756 205.268 105.563 213.095 105.37V105.281C213.703 105.295 214.314 105.309 214.922 105.324C215.53 105.309 216.141 105.295 216.749 105.281V105.37C224.576 105.563 232.405 105.756 240.232 105.952C240.2 110.909 234.541 149.861 230.852 160.555C230.852 160.555 236.636 161.555 240.86 167.194C242.071 168.811 242.474 172.133 242.575 174.459C242.627 175.646 241.682 176.635 240.494 176.635H240.497Z" fill="#8258F5"/>
<path d="M215.965 123.058V176.635H213.89V123.058C213.89 122.484 214.357 122.02 214.928 122.02C215.498 122.02 215.965 122.487 215.965 123.058Z" fill="#192F48"/>
<path d="M240.52 176.632H189.373C188.177 176.632 187.235 175.62 187.318 174.427C187.474 172.174 187.969 169.01 189.168 167.413C190.148 166.105 191.203 165.033 192.246 164.16C195.785 161.197 197.433 160.875 198.021 160.843C198.738 160.805 199.332 160.915 199.718 161.013C201.289 161.578 203.678 162.232 206.649 162.287C209.796 162.347 212.334 161.707 213.96 161.163L215.902 161.157C217.478 161.641 219.639 162.122 222.233 162.186C225.607 162.266 228.351 161.601 230.158 161.007C230.529 160.886 231.1 160.753 231.783 160.797C232.725 160.857 233.345 161.304 234.281 161.756C236.255 162.71 238.757 164.37 240.869 167.188C242.085 168.811 242.486 172.151 242.584 174.473C242.633 175.646 241.702 176.629 240.526 176.629L240.52 176.632Z" fill="#192F48"/>
<path d="M209.073 58.8359L191.788 107.93C190.817 107.296 189.73 106.526 188.589 105.601C186.699 104.074 184.65 102.126 182.69 99.6793C180.463 96.8926 178.852 94.0829 177.685 91.4922C175.526 86.7142 176.647 81.0832 180.448 77.4464C183.01 74.9998 185.964 72.4581 189.347 69.9567C190.364 69.2045 191.373 68.4927 192.376 67.8126C197.249 64.5044 201.909 62.0289 205.992 60.1731H205.998C206.295 60.0376 206.589 59.9051 206.88 59.7754C207.632 59.4411 208.364 59.1299 209.073 58.8388V58.8359Z" fill="#613CC4"/>
<path d="M220.818 58.8359C226.331 61.1097 233.282 64.5937 240.541 69.9567C243.924 72.4552 246.878 74.9998 249.44 77.4464C253.244 81.0832 254.365 86.7142 252.207 91.4922C251.037 94.08 249.429 96.8897 247.201 99.6764C244.06 103.604 240.685 106.241 238.103 107.93L220.821 58.8359H220.818Z" fill="#613CC4"/>
<path d="M177.688 91.4918C178.855 94.0796 180.466 96.8922 182.693 99.6789C184.65 102.126 186.699 104.074 188.592 105.601C189.736 106.526 190.82 107.298 191.791 107.929L198.843 87.8982L178.973 79.1405C176.394 82.6937 175.84 87.4054 177.685 91.4918H177.688Z" fill="#C3ADFF"/>
<path d="M231.057 87.9126L238.103 107.929C240.685 106.241 244.059 103.604 247.2 99.676C249.428 96.8893 251.039 94.0796 252.206 91.4918C254.047 87.414 253.5 82.7197 250.941 79.1693L231.057 87.9097V87.9126Z" fill="#C3ADFF"/>
<path d="M235.316 117.381H194.577C191.044 117.381 188.223 114.45 188.338 110.92C188.396 109.122 188.482 107.347 188.592 105.6C189.151 96.7016 190.381 88.5176 192.367 81.5352C195.243 71.4059 199.704 63.7954 205.998 60.1702H206.003C206.355 59.9684 206.715 59.7782 207.081 59.6025C209.456 58.444 212.072 57.8302 214.951 57.8302C218.251 57.8302 221.207 58.64 223.844 60.15C234.5 66.2419 239.93 83.7627 241.304 105.603C241.417 107.35 241.503 109.125 241.561 110.923C241.676 114.453 238.855 117.384 235.322 117.384L235.316 117.381Z" fill="#613CC4"/>
<path d="M256.116 107.165C253.574 101.719 250.84 97.6586 250.724 97.4886C250.312 96.8805 249.661 96.4771 248.935 96.3762C248.206 96.2754 247.471 96.4886 246.912 96.9641C235.492 106.621 225.89 99.8862 225.46 99.575C225.342 99.4885 225.215 99.4136 225.086 99.3502C223.276 97.3791 216.881 90.2698 212.66 83.7687C207.919 76.4692 205.879 62.1787 205.853 61.9972C205.657 60.5822 204.352 59.5938 202.934 59.7898C201.519 59.9857 200.53 61.294 200.726 62.709C200.816 63.343 202.942 78.3078 208.317 86.587C212.786 93.4715 219.311 100.719 221.25 102.831C220.365 117.525 223.726 129.052 225.852 134.703C227.008 137.775 229.993 139.864 233.278 139.896C233.376 139.896 233.472 139.896 233.57 139.896C244.166 139.896 253.404 133.87 256.906 131.26C258.661 129.951 259.822 128.07 260.174 125.966C260.998 121.038 259.632 114.713 256.11 107.163L256.116 107.165Z" fill="#192F48"/>
<path d="M235.51 32.1575C235.51 43.0304 226.695 51.8429 215.822 51.8429C207.655 51.8429 200.649 46.8689 197.669 39.7855C196.681 37.4398 196.136 34.8635 196.136 32.1575C196.136 31.0595 196.228 29.976 196.401 28.9299C196.407 28.8924 196.416 28.8492 196.422 28.8117C198.009 19.5353 206.09 12.475 215.822 12.475C216.288 12.475 216.752 12.4923 217.211 12.524C218.067 12.5816 218.902 12.6969 219.724 12.8583C225.378 13.9966 230.158 17.5555 232.931 22.4084C234.57 25.2844 235.51 28.61 235.51 32.1575Z" fill="#C3ADFF"/>
<path d="M219.723 12.8581C219.473 14.3249 219.061 15.737 218.504 17.0741C215.542 24.1921 208.519 29.1977 200.323 29.1977C199.456 29.1977 198.597 29.143 197.759 29.0306C197.565 29.0046 197.372 28.9787 197.179 28.9441C196.926 28.9067 196.672 28.8577 196.421 28.8087C198.009 19.5323 206.09 12.4719 215.821 12.4719C216.288 12.4719 216.752 12.4892 217.21 12.5209C218.066 12.5785 218.902 12.6938 219.723 12.8552V12.8581Z" fill="#192F48"/>
<path d="M196.658 39.8773C199.683 39.8773 202.136 37.4246 202.136 34.399C202.136 31.3735 199.683 28.9208 196.658 28.9208C193.632 28.9208 191.18 31.3735 191.18 34.399C191.18 37.4246 193.632 39.8773 196.658 39.8773Z" fill="#C3ADFF"/>
<path d="M225.467 31.5778C224.657 31.8286 223.527 31.9957 222.282 31.624C220.305 31.0361 218.813 29.3329 218.392 27.1774C218.297 26.6875 218.614 26.212 219.107 26.114C219.596 26.0189 220.072 26.3359 220.17 26.8287C220.464 28.3186 221.472 29.4914 222.801 29.8862C224.078 30.2666 225.196 29.7883 225.619 29.5635C226.06 29.3301 226.608 29.4972 226.844 29.941C227.077 30.3819 226.91 30.9294 226.469 31.1658C226.253 31.281 225.91 31.4424 225.472 31.5778H225.467Z" fill="#192F48"/>
<path d="M232.933 22.4084C232.308 22.6303 231.648 22.7801 230.959 22.8435C225.867 23.319 220.812 21.1375 218.507 17.0742C217.752 15.7486 217.291 14.2213 217.216 12.5239C218.072 12.5816 218.907 12.6968 219.729 12.8582C225.383 13.9965 230.164 17.5555 232.936 22.4084H232.933Z" fill="#192F48"/>
</svg>
