<svg width="318" height="93" viewBox="0 0 318 93" fill="none" xmlns="http://www.w3.org/2000/svg">
<path d="M127.903 29.7672C131.847 29.7672 135.759 31.0249 135.759 35.6685C135.759 39.0223 133.948 41.9568 131.039 43.5692L134.53 52.0181H126.383L124.153 44.6334H123.28L122.116 52.0181H115.036L118.56 29.7672H127.903ZM125.963 39.0868C127.353 39.0868 128.517 38.2806 128.517 36.7972C128.517 35.6685 127.45 35.2816 126.48 35.2816H124.735L124.12 39.0868H125.963Z" fill="white"/>
<path d="M145.087 29.7672H150.744L147.027 34.4431H142.145L145.087 29.7672ZM151.908 49.9865C148.643 52.3728 145.766 52.4696 143.632 52.4696C139.235 52.4696 135.905 50.2122 135.905 45.6653C135.905 39.5705 140.302 35.2816 146.186 35.2816C149.645 35.2816 153.007 36.7327 153.007 40.7637C153.007 44.4722 150.647 46.0845 146.671 46.0845C145.151 46.0845 144.182 45.8911 142.436 45.4073V45.4396C142.63 47.1165 143.988 47.6969 145.604 47.6969C147.221 47.6969 148.708 47.2132 149.872 46.536L151.908 49.9865ZM142.888 42.0858C143.47 42.1826 144.214 42.2793 144.957 42.2793C146.542 42.2793 147.608 41.8923 147.608 40.4734C147.608 39.6028 146.897 39.1513 145.927 39.1513C144.699 39.1513 143.147 40.5702 142.888 42.0858Z" fill="white"/>
<path d="M155.209 45.8266C156.405 46.7617 158.571 47.5679 160.123 47.5679C160.414 47.5679 161.028 47.5034 161.028 47.0842C161.028 46.6005 160.187 46.3425 159.12 46.0523C157.181 45.5041 154.497 44.6979 154.497 41.7311C154.497 37.4099 158.183 35.2171 162.192 35.2171C164.649 35.2171 166.524 35.7008 168.593 37.0874L166.039 41.1829C164.94 40.4089 163.129 39.6995 161.739 39.6995C161.448 39.6995 160.802 39.764 160.802 40.1832C160.802 40.6024 161.513 40.8282 162.483 41.1184C164.422 41.7311 167.332 42.6018 167.332 45.8588C167.332 50.4702 163.259 52.4373 159.12 52.4373C156.631 52.4373 154.045 51.8569 152.17 50.1477L155.209 45.8266Z" fill="white"/>
<path d="M176.536 52.4051C172.14 52.4051 168.551 50.18 168.551 45.4718C168.551 39.1835 173.109 35.2493 179.252 35.2493C183.649 35.2493 187.205 37.4744 187.205 42.1826C187.205 48.4709 182.679 52.4051 176.536 52.4051ZM177.474 46.5038C179.284 46.5038 180.125 44.5366 180.125 42.9888C180.125 41.8278 179.575 40.9249 178.347 40.9249C176.504 40.9249 175.696 42.892 175.696 44.4399C175.696 45.6008 176.213 46.5038 177.474 46.5038Z" fill="white"/>
<path d="M188.064 52.0181C187.967 51.7601 187.935 51.4054 187.935 50.8894C187.935 50.5025 187.967 50.051 188.064 49.5028L190.812 32.089C190.877 31.6053 190.909 31.1539 190.909 30.7669C190.909 30.1542 190.845 29.7672 190.845 29.7672H197.86C197.86 29.7672 197.957 30.1219 197.957 30.8314C197.957 31.2184 197.925 31.7021 197.828 32.2825L195.08 49.6963C195.015 50.1477 194.983 50.567 194.983 50.8894C194.983 51.5989 195.08 52.0181 195.08 52.0181H188.064Z" fill="white"/>
<path d="M207.746 52.0181C207.746 52.0181 207.584 51.6956 207.584 50.9539C207.584 50.8572 207.584 50.7604 207.617 50.5992C206.388 51.6956 204.707 52.4051 203.026 52.4051C199.922 52.4051 198.079 50.7927 198.079 47.7614C198.079 47.0197 198.144 46.278 198.273 45.5686L199.47 37.8936C199.534 37.4099 199.567 36.9584 199.567 36.5715C199.567 35.9588 199.502 35.5718 199.502 35.5718H206.517C206.517 35.5718 206.614 35.9265 206.614 36.636C206.614 37.0229 206.582 37.5067 206.485 38.0871L205.709 42.8275C205.58 43.6337 205.451 44.5366 205.451 45.0526C205.451 45.8911 205.741 46.407 206.614 46.407C207.843 46.407 208.231 45.3106 208.392 44.2787L209.783 35.5718H216.83L214.567 49.6963C214.503 50.1477 214.47 50.567 214.47 50.8894C214.47 51.5989 214.567 52.0181 214.567 52.0181H207.746Z" fill="white"/>
<path d="M227.778 51.8569C226.323 52.2116 224.804 52.4051 223.155 52.4051C220.245 52.4051 218.338 51.3409 218.338 48.2129C218.338 46.4393 218.661 44.6334 219.017 42.8598L219.373 40.9249H217.206L218.047 35.5718H220.213L220.472 33.9594C220.569 33.379 220.569 32.9275 220.569 32.5405C220.569 31.9278 220.504 31.5408 220.504 31.5408H227.52C227.52 31.5408 227.617 31.8956 227.617 32.605C227.617 32.992 227.584 33.4757 227.487 34.0562L227.261 35.5718H230.526L229.653 40.9249H226.42L226.129 42.2793C225.418 46.02 225.418 46.5038 226.744 46.5038C227.293 46.5038 227.843 46.407 228.36 46.2458L227.778 51.8569Z" fill="white"/>
<path d="M235.935 35.0558C234.125 35.0558 232.67 34.1206 232.67 32.218C232.67 29.735 234.61 28.0903 237.035 28.0903C238.813 28.0903 240.3 28.9933 240.3 30.9281C240.3 33.4112 238.328 35.0558 235.935 35.0558ZM230.116 52.0181C230.019 51.7601 229.987 51.4054 229.987 50.8894C229.987 50.5025 230.019 50.051 230.116 49.5028L231.959 37.8936C232.024 37.4422 232.056 37.0552 232.056 36.7005C232.056 36.0233 231.959 35.5718 231.959 35.5718H238.974C238.974 35.5718 239.071 35.991 239.071 36.7327C239.071 37.0874 239.071 37.5389 238.974 38.0871L237.132 49.6963C237.067 50.1477 237.035 50.567 237.035 50.8894C237.035 51.5989 237.132 52.0181 237.132 52.0181H230.116Z" fill="white"/>
<path d="M247.635 52.4051C243.239 52.4051 239.65 50.18 239.65 45.4718C239.65 39.1835 244.208 35.2493 250.351 35.2493C254.748 35.2493 258.304 37.4744 258.304 42.1826C258.304 48.4709 253.778 52.4051 247.635 52.4051ZM248.573 46.5038C250.383 46.5038 251.224 44.5366 251.224 42.9888C251.224 41.8278 250.674 40.9249 249.446 40.9249C247.603 40.9249 246.795 42.892 246.795 44.4399C246.795 45.6008 247.312 46.5038 248.573 46.5038Z" fill="white"/>
<path d="M260.942 37.8936C261.006 37.4422 261.039 36.9584 261.039 36.5715C261.039 35.9588 260.974 35.5718 260.974 35.5718H267.925C268.022 35.8298 268.054 36.12 268.054 36.4747C268.054 36.8295 268.022 37.2164 267.957 37.5711C269.218 36.0878 270.737 35.2493 272.709 35.2493C276.039 35.2493 277.721 36.7972 277.721 40.1187C277.721 40.8604 277.656 41.6021 277.527 42.3438L276.33 49.6963C276.266 50.1477 276.233 50.567 276.233 50.8894C276.233 51.5989 276.33 52.0181 276.33 52.0181H269.347C269.25 51.7601 269.218 51.4054 269.218 50.8894C269.218 50.5025 269.25 50.051 269.347 49.5028L270.22 43.9562C270.285 43.5047 270.349 43.0533 270.349 42.634C270.349 41.7311 270.026 41.1829 269.056 41.1829C267.472 41.1829 267.214 42.6985 267.02 43.9562L265.726 52.0181H258.679L260.942 37.8936Z" fill="white"/>
<path d="M124.153 59.6889H131.976L135.92 81.9398H128.226L127.903 78.8118H121.857L120.532 81.9398H113.161L124.153 59.6889ZM127.321 73.2007L126.674 67.3961L124.217 73.2007H127.321Z" fill="white"/>
<path d="M146.939 81.9398C146.939 81.9398 146.777 81.6174 146.777 80.8757C146.777 80.7789 146.778 80.6822 146.81 80.521C145.581 81.6174 143.9 82.3268 142.219 82.3268C139.115 82.3268 137.273 80.7144 137.273 77.6832C137.273 76.9415 137.337 76.1998 137.467 75.4903L138.663 67.8154C138.728 67.3316 138.76 66.8802 138.76 66.4932C138.76 65.8805 138.695 65.4935 138.695 65.4935H145.711C145.711 65.4935 145.808 65.8483 145.808 66.5577C145.808 66.9447 145.775 67.4284 145.678 68.0089L144.902 72.7493C144.773 73.5555 144.644 74.4584 144.644 74.9743C144.644 75.8128 144.935 76.3288 145.808 76.3288C147.036 76.3288 147.424 75.2323 147.586 74.2004L148.976 65.4935H156.024L153.761 79.618C153.696 80.0695 153.664 80.4887 153.664 80.8112C153.664 81.5206 153.761 81.9398 153.761 81.9398H146.939Z" fill="white"/>
<path d="M166.971 81.7786C165.517 82.1333 163.997 82.3268 162.348 82.3268C159.439 82.3268 157.531 81.2626 157.531 78.1346C157.531 76.361 157.855 74.5551 158.21 72.7815L158.566 70.8466H156.4L157.24 65.4935H159.406L159.665 63.8811C159.762 63.3007 159.762 62.8492 159.762 62.4622C159.762 61.8495 159.697 61.4626 159.697 61.4626H166.713C166.713 61.4626 166.81 61.8173 166.81 62.5267C166.81 62.9137 166.777 63.3974 166.68 63.9779L166.454 65.4935H169.719L168.846 70.8466H165.614L165.323 72.201C164.611 75.9418 164.611 76.4255 165.937 76.4255C166.486 76.4255 167.036 76.3288 167.553 76.1675L166.971 81.7786Z" fill="white"/>
<path d="M177.105 82.3268C172.708 82.3268 169.119 80.1017 169.119 75.3936C169.119 69.1053 173.678 65.1711 179.82 65.1711C184.217 65.1711 187.773 67.3961 187.773 72.1043C187.773 78.3926 183.247 82.3268 177.105 82.3268ZM178.042 76.4255C179.853 76.4255 180.693 74.4584 180.693 72.9105C180.693 71.7496 180.144 70.8466 178.915 70.8466C177.072 70.8466 176.264 72.8138 176.264 74.3616C176.264 75.5226 176.781 76.4255 178.042 76.4255Z" fill="white"/>
<path d="M190.443 67.8154C190.508 67.3961 190.54 66.9769 190.54 66.6222C190.54 65.945 190.443 65.4935 190.443 65.4935H197.426C197.523 65.8483 197.588 66.2352 197.588 66.6222C197.588 66.8802 197.556 67.2027 197.491 67.4929C198.655 66.1385 200.271 65.1711 202.082 65.1711C204.118 65.1711 205.897 65.687 206.414 67.8476C207.869 65.945 209.453 65.1711 211.877 65.1711C215.078 65.1711 216.565 66.9447 216.565 70.0727C216.565 70.7499 216.468 71.4271 216.371 72.1043L215.175 79.618C215.11 80.0695 215.078 80.4887 215.078 80.8112C215.078 81.5206 215.175 81.9398 215.175 81.9398H208.224C208.127 81.6819 208.095 81.3271 208.095 80.8112C208.095 80.4242 208.127 79.9727 208.224 79.4245L208.806 76.1675C209.065 74.7486 209.226 73.3942 209.226 72.459C209.226 71.6851 209 71.1046 208.127 71.1046C206.834 71.1046 206.543 72.5235 206.382 73.5555L205.056 81.9398H198.008L199.075 75.7805C199.237 74.7486 199.431 73.1685 199.431 72.459C199.431 71.6851 199.237 71.1046 198.364 71.1046C197.071 71.1046 196.78 72.5235 196.618 73.5555L195.26 81.9398H188.212L190.443 67.8154Z" fill="white"/>
<path d="M229.184 81.9398C229.087 81.6819 229.055 81.3271 229.055 80.8112C229.055 80.5854 229.087 80.3597 229.119 80.1985C227.761 81.6496 225.757 82.3268 223.817 82.3268C219.808 82.3268 217.707 79.36 217.707 75.5871C217.707 70.3952 220.875 65.1711 226.533 65.1711C228.02 65.1711 229.928 65.5903 230.833 66.8479L230.962 65.4935H237.978L235.747 79.618C235.682 80.0695 235.65 80.4887 235.65 80.8112C235.65 81.5206 235.747 81.9398 235.747 81.9398H229.184ZM227.018 76.4255C228.828 76.4255 229.96 74.7164 229.96 73.0072C229.96 71.7496 229.184 70.8466 227.891 70.8466C226.08 70.8466 224.949 72.5558 224.949 74.2327C224.949 75.4903 225.725 76.4255 227.018 76.4255Z" fill="white"/>
<path d="M248.963 81.7786C247.508 82.1333 245.988 82.3268 244.34 82.3268C241.43 82.3268 239.523 81.2626 239.523 78.1346C239.523 76.361 239.846 74.5551 240.201 72.7815L240.557 70.8466H238.391L239.232 65.4935H241.398L241.656 63.8811C241.753 63.3007 241.753 62.8492 241.753 62.4622C241.753 61.8495 241.689 61.4626 241.689 61.4626H248.704C248.704 61.4626 248.801 61.8173 248.801 62.5267C248.801 62.9137 248.769 63.3974 248.672 63.9779L248.445 65.4935H251.711L250.838 70.8466H247.605L247.314 72.201C246.603 75.9418 246.603 76.4255 247.928 76.4255C248.478 76.4255 249.027 76.3288 249.545 76.1675L248.963 81.7786Z" fill="white"/>
<path d="M257.12 64.9776C255.31 64.9776 253.855 64.0424 253.855 62.1398C253.855 59.6567 255.794 58.0121 258.219 58.0121C259.997 58.0121 261.484 58.915 261.484 60.8499C261.484 63.3329 259.512 64.9776 257.12 64.9776ZM251.301 81.9398C251.204 81.6819 251.171 81.3271 251.171 80.8112C251.171 80.4242 251.204 79.9727 251.301 79.4245L253.143 67.8154C253.208 67.3639 253.24 66.9769 253.24 66.6222C253.24 65.945 253.143 65.4935 253.143 65.4935H260.159C260.159 65.4935 260.256 65.9128 260.256 66.6544C260.256 67.0092 260.256 67.4606 260.159 68.0089L258.316 79.618C258.251 80.0695 258.219 80.4887 258.219 80.8112C258.219 81.5206 258.316 81.9398 258.316 81.9398H251.301Z" fill="white"/>
<path d="M270.145 87.5832C270.145 87.5832 270.63 86.6158 270.889 85.2614L271.697 80.4887C270.469 81.8431 268.658 82.3268 266.912 82.3268C262.904 82.3268 260.802 79.3923 260.802 75.5871C260.802 70.4274 263.971 65.1711 269.628 65.1711C271.374 65.1711 273.12 65.687 274.284 67.0414C274.445 66.0417 274.768 65.6548 274.898 65.4935H281.461C281.461 65.4935 280.943 66.461 280.717 67.8154L277.969 85.1324C277.71 86.6803 277.161 87.5832 277.161 87.5832H270.145ZM270.113 76.4255C271.923 76.4255 273.055 74.7164 273.055 73.0395C273.055 71.7818 272.279 70.8466 270.986 70.8466C269.175 70.8466 268.044 72.5558 268.044 74.2649C268.044 75.5226 268.788 76.4255 270.113 76.4255Z" fill="white"/>
<path d="M291.537 81.9398C291.537 81.9398 291.375 81.6174 291.375 80.8757C291.375 80.7789 291.375 80.6822 291.407 80.521C290.179 81.6174 288.498 82.3268 286.817 82.3268C283.713 82.3268 281.87 80.7144 281.87 77.6832C281.87 76.9415 281.935 76.1998 282.064 75.4903L283.26 67.8154C283.325 67.3316 283.357 66.8802 283.357 66.4932C283.357 65.8805 283.293 65.4935 283.293 65.4935H290.308C290.308 65.4935 290.405 65.8483 290.405 66.5577C290.405 66.9447 290.373 67.4284 290.276 68.0089L289.5 72.7493C289.371 73.5555 289.241 74.4584 289.241 74.9743C289.241 75.8128 289.532 76.3288 290.405 76.3288C291.634 76.3288 292.022 75.2323 292.183 74.2004L293.573 65.4935H300.621L298.358 79.618C298.294 80.0695 298.261 80.4887 298.261 80.8112C298.261 81.5206 298.358 81.9398 298.358 81.9398H291.537Z" fill="white"/>
<path d="M316.901 79.9082C313.636 82.2946 310.758 82.3913 308.625 82.3913C304.228 82.3913 300.898 80.134 300.898 75.5871C300.898 69.4922 305.295 65.2033 311.179 65.2033C314.638 65.2033 318 66.6544 318 70.6854C318 74.3939 315.64 76.0063 311.664 76.0063C310.144 76.0063 309.174 75.8128 307.429 75.3291V75.3613C307.623 77.0382 308.98 77.6187 310.597 77.6187C312.213 77.6187 313.7 77.1349 314.864 76.4577L316.901 79.9082ZM307.881 72.0076C308.463 72.1043 309.207 72.201 309.95 72.201C311.534 72.201 312.601 71.8141 312.601 70.3952C312.601 69.5245 311.89 69.073 310.92 69.073C309.692 69.073 308.14 70.4919 307.881 72.0076Z" fill="white"/>
<path d="M104.743 2.38718C94.876 -4.09114 90.7852 4.12622 83.7939 9.16135C76.8026 14.1955 62.3888 14.1926 62.3888 14.1926C62.3908 14.2004 62.3927 14.2081 62.3937 14.2169C62.2025 14.2101 62.0103 14.2072 61.8161 14.2111C59.4659 14.2539 57.1722 15.3438 54.9975 17.4517C53.0707 19.3192 51.2784 21.9516 49.6706 25.2749C49.2023 26.2432 49.6101 27.4061 50.5799 27.8733C51.5506 28.3404 52.7165 27.9336 53.1848 26.9663C55.8843 21.3842 59.0561 18.1543 61.8854 18.1027C62.2093 18.0969 62.5264 18.1144 62.8327 18.1533C62.9166 18.2526 62.9986 18.3538 63.0805 18.454C63.1274 18.5115 63.1752 18.5679 63.222 18.6253C63.3527 18.7859 63.4815 18.9484 63.6083 19.1129C63.6649 19.1849 63.7196 19.2588 63.7752 19.3318C63.8464 19.4253 63.9186 19.5187 63.9888 19.6131C64.0513 19.6968 64.1118 19.7814 64.1742 19.8661C64.2366 19.9517 64.3001 20.0364 64.3615 20.123C64.4249 20.2116 64.4864 20.3011 64.5488 20.3897C64.6074 20.4734 64.6669 20.557 64.7254 20.6417C64.7879 20.7332 64.8493 20.8247 64.9108 20.9171C64.9674 21.0018 65.0249 21.0855 65.0805 21.1701C65.142 21.2636 65.2025 21.357 65.263 21.4514C65.3176 21.537 65.3732 21.6217 65.4279 21.7073C65.4884 21.8017 65.5469 21.8981 65.6064 21.9934C65.6601 22.08 65.7137 22.1657 65.7664 22.2533C65.825 22.3496 65.8825 22.4469 65.9401 22.5442C65.9928 22.6318 66.0445 22.7194 66.0962 22.808C66.1528 22.9062 66.2093 23.0045 66.2659 23.1038C66.3167 23.1933 66.3684 23.2819 66.4181 23.3724C66.4737 23.4717 66.5284 23.5719 66.583 23.6731C66.6328 23.7636 66.6825 23.8551 66.7313 23.9456C66.785 24.0468 66.8386 24.148 66.8913 24.2502C66.9401 24.3426 66.9879 24.4351 67.0357 24.5285C67.0884 24.6307 67.1391 24.7329 67.1908 24.836C67.2376 24.9304 67.2855 25.0248 67.3313 25.1202C67.382 25.2233 67.4318 25.3275 67.4816 25.4316C67.5274 25.5279 67.5733 25.6233 67.6191 25.7206C67.6679 25.8248 67.7167 25.9299 67.7645 26.035C67.8094 26.1332 67.8542 26.2315 67.8981 26.3298C67.945 26.4349 67.9918 26.541 68.0377 26.6471C68.0816 26.7473 68.1245 26.8475 68.1684 26.9488C68.2133 27.0548 68.2591 27.1619 68.303 27.2689C68.346 27.3711 68.3879 27.4733 68.4299 27.5764C68.4738 27.6835 68.5167 27.7905 68.5596 27.8986C68.6016 28.0037 68.6425 28.1088 68.6835 28.2139C68.7255 28.3209 68.7664 28.4289 68.8074 28.5369C68.8484 28.644 68.8874 28.751 68.9274 28.8591C68.9674 28.9671 69.0074 29.0761 69.0464 29.1851C69.0855 29.2941 69.1245 29.4031 69.1625 29.513C69.2006 29.622 69.2386 29.731 69.2767 29.841C69.3147 29.9519 69.3518 30.0638 69.3899 30.1767C69.426 30.2857 69.463 30.3957 69.4982 30.5057C69.5352 30.6195 69.5713 30.7353 69.6084 30.8501C69.6426 30.9591 69.6777 31.0681 69.7118 31.1781C69.7479 31.2959 69.783 31.4136 69.8191 31.5314C69.8513 31.6404 69.8845 31.7493 69.9167 31.8593C69.9518 31.98 69.986 32.1007 70.0201 32.2223C70.0513 32.3313 70.0816 32.4403 70.1118 32.5493C70.146 32.6729 70.1791 32.7984 70.2123 32.923C70.2416 33.031 70.2708 33.139 70.2991 33.248C70.3323 33.3755 70.3645 33.504 70.3967 33.6324C70.424 33.7404 70.4513 33.8475 70.4777 33.9555C70.5099 34.0878 70.5411 34.2202 70.5723 34.3535C70.5977 34.4596 70.623 34.5647 70.6474 34.6717C70.6796 34.8109 70.7099 34.9501 70.7401 35.0902C70.7626 35.1924 70.786 35.2936 70.8074 35.3958C70.8387 35.5437 70.8689 35.6926 70.9001 35.8415C70.9196 35.9378 70.9401 36.0332 70.9596 36.1295C70.9928 36.295 71.024 36.4624 71.0562 36.6288C71.0718 36.7095 71.0874 36.7893 71.1031 36.8701C71.1489 37.1183 71.1938 37.3684 71.2367 37.6194C71.305 38.0184 71.3694 38.4223 71.4299 38.8291C71.8055 41.3282 72.0397 43.9781 72.1275 46.7263C72.1733 48.1549 72.1792 49.6487 72.145 51.1658C72.1411 51.34 72.1362 51.5132 72.1314 51.6855C71.8475 61.6711 69.8747 70.1561 66.2679 76.9049C66.182 77.0655 66.0952 77.2251 66.0084 77.3827C65.9791 77.4353 65.9498 77.4869 65.9206 77.5394C65.862 77.6445 65.8025 77.7506 65.743 77.8557C65.7079 77.918 65.6718 77.9783 65.6357 78.0406C65.581 78.135 65.5264 78.2294 65.4718 78.3228C65.4337 78.388 65.3947 78.4522 65.3557 78.5165C65.302 78.606 65.2493 78.6946 65.1947 78.7831C65.1547 78.8493 65.1137 78.9145 65.0727 78.9807C65.0201 79.0663 64.9664 79.152 64.9127 79.2376C64.8708 79.3047 64.8279 79.3699 64.7859 79.4361C64.7323 79.5198 64.6796 79.6025 64.6259 79.6852C64.583 79.7514 64.5391 79.8176 64.4952 79.8838C64.4415 79.9655 64.3879 80.0463 64.3332 80.1271C64.2883 80.1932 64.2435 80.2594 64.1986 80.3246C64.144 80.4044 64.0903 80.4842 64.0347 80.563C63.9888 80.6282 63.943 80.6934 63.8971 80.7586C63.8415 80.8375 63.7869 80.9153 63.7313 80.9932C63.6844 81.0584 63.6386 81.1226 63.5918 81.1868C63.5352 81.2637 63.4796 81.3406 63.423 81.4175C63.3761 81.4817 63.3283 81.545 63.2805 81.6082C63.223 81.6841 63.1664 81.76 63.1088 81.8359C63.061 81.8982 63.0132 81.9615 62.9644 82.0237C62.9059 82.0987 62.8474 82.1736 62.7888 82.2485C62.74 82.3098 62.6922 82.3712 62.6435 82.4325C62.5839 82.5074 62.5244 82.5814 62.4639 82.6544C62.4152 82.7147 62.3664 82.775 62.3166 82.8344C62.2561 82.9083 62.1947 82.9813 62.1332 83.0553C62.0834 83.1137 62.0347 83.173 61.9849 83.2314C61.9225 83.3044 61.86 83.3774 61.7966 83.4504C61.7469 83.5078 61.6971 83.5652 61.6473 83.6217C61.5829 83.6947 61.5186 83.7676 61.4532 83.8397C61.4034 83.8951 61.3547 83.9506 61.3049 84.0051C61.2386 84.0781 61.1712 84.1511 61.1049 84.2231C61.0561 84.2766 61.0073 84.3292 60.9576 84.3817C60.8883 84.4557 60.8181 84.5287 60.7488 84.6016C60.701 84.6522 60.6532 84.7019 60.6054 84.7525C60.5312 84.8294 60.4571 84.9043 60.382 84.9802C60.3371 85.0259 60.2922 85.0717 60.2473 85.1164C60.1664 85.1982 60.0844 85.278 60.0024 85.3588C59.9634 85.3977 59.9244 85.4366 59.8844 85.4755C59.7829 85.5748 59.6795 85.6721 59.5771 85.7694C59.5566 85.7889 59.5371 85.8084 59.5166 85.8269C59.3917 85.9436 59.2668 86.0594 59.141 86.1743C59.1224 86.1918 59.1029 86.2083 59.0834 86.2258C58.9771 86.3222 58.8697 86.4185 58.7624 86.5129C58.7224 86.548 58.6815 86.583 58.6415 86.618C58.5546 86.6939 58.4668 86.7698 58.379 86.8448C58.3302 86.8856 58.2814 86.9265 58.2327 86.9674C58.1517 87.0355 58.0717 87.1036 57.9907 87.1708C57.938 87.2146 57.8844 87.2574 57.8307 87.3012C57.7527 87.3644 57.6756 87.4277 57.5975 87.49C57.541 87.5347 57.4844 87.5785 57.4288 87.6233C57.3527 87.6836 57.2766 87.743 57.1995 87.8024C57.141 87.8471 57.0824 87.8919 57.0239 87.9367C56.9478 87.9941 56.8727 88.0525 56.7956 88.1089C56.7361 88.1537 56.6756 88.1975 56.6151 88.2422C56.539 88.2977 56.4639 88.3541 56.3868 88.4086C56.3253 88.4534 56.2639 88.4972 56.2024 88.541C56.1263 88.5955 56.0502 88.649 55.9741 88.7025C55.9117 88.7463 55.8492 88.7891 55.7858 88.832C55.7409 88.8631 55.6961 88.8933 55.6502 88.9244C52.7389 88.1566 49.9867 83.4076 48.3613 76.248C48.1233 75.1999 47.0774 74.5421 46.0277 74.7795C44.9769 75.017 44.3174 76.0592 44.5554 77.1073C46.7789 86.9041 50.8238 92.5144 55.9429 92.9056C55.9517 92.9056 55.9614 92.9056 55.9702 92.9076C56.0209 92.9115 56.0707 92.9144 56.1253 92.9173C56.9712 92.9718 57.8346 93 58.6932 93C64.0347 93 69.2172 91.9568 74.0972 89.8976C78.8095 87.9094 83.0417 85.0649 86.6759 81.4408C90.3101 77.8168 93.1628 73.5962 95.156 68.8958C97.2204 64.0291 98.2663 58.8596 98.2663 53.5316C98.2663 48.8565 97.4546 44.2797 95.8536 39.9297C94.7131 36.8322 93.194 33.9068 91.3238 31.1956C92.8896 31.0535 94.4399 30.8025 95.9531 30.4366C109.798 27.0918 114.605 8.86745 104.739 2.38913L104.743 2.38718ZM94.3697 53.5296C94.3697 63.0335 90.6594 71.9671 83.9217 78.6868C77.9363 84.6552 70.1987 88.2422 61.8659 88.9682C61.8971 88.939 61.9283 88.9088 61.9595 88.8796C62.0912 88.758 62.222 88.6354 62.3527 88.5118C62.4035 88.4641 62.4532 88.4155 62.5039 88.3678C62.6649 88.2121 62.8259 88.0564 62.9839 87.8977C62.9927 87.889 63.0015 87.8802 63.0103 87.8715C63.1781 87.7041 63.343 87.5338 63.5078 87.3615C63.5537 87.3138 63.5986 87.2662 63.6444 87.2175C63.7703 87.0851 63.8942 86.9518 64.0181 86.8185C64.062 86.7708 64.1059 86.7241 64.1488 86.6764C64.3098 86.5003 64.4688 86.3222 64.6269 86.1422C64.6405 86.1266 64.6542 86.11 64.6688 86.0935C64.8123 85.929 64.9547 85.7626 65.0962 85.5943C65.1401 85.5417 65.1849 85.4882 65.2288 85.4356C65.3488 85.2916 65.4669 85.1466 65.5849 85.0006C65.622 84.9549 65.6591 84.9101 65.6952 84.8644C65.8454 84.6766 65.9937 84.4868 66.141 84.2961C66.1674 84.262 66.1937 84.227 66.2191 84.1929C66.341 84.0333 66.462 83.8727 66.5811 83.7102C66.623 83.6528 66.665 83.5954 66.7069 83.538C66.823 83.3793 66.9381 83.2188 67.0523 83.0572C67.0806 83.0173 67.1098 82.9774 67.1381 82.9366C67.2777 82.7371 67.4152 82.5366 67.5518 82.3342C67.584 82.2865 67.6162 82.2378 67.6474 82.1902C67.7537 82.0306 67.8591 81.87 67.9645 81.7075C68.0035 81.6462 68.0435 81.5858 68.0825 81.5245C68.1977 81.3435 68.3128 81.1615 68.426 80.9776C68.4435 80.9494 68.4611 80.9212 68.4786 80.8929C68.6074 80.6827 68.7352 80.4696 68.8611 80.2555C68.8952 80.1971 68.9284 80.1387 68.9625 80.0813C69.0582 79.9178 69.1528 79.7524 69.2455 79.587C69.2816 79.5237 69.3167 79.4604 69.3518 79.3972C69.4738 79.1782 69.5947 78.9583 69.7138 78.7364C73.6065 71.4523 75.7334 62.3883 76.0338 51.7955C76.0377 51.6485 76.0416 51.5016 76.0456 51.3556C76.1256 51.3342 76.2085 42.2468 75.0836 36.9626C75.0309 36.7134 74.9958 36.4624 74.9499 36.2132C74.9363 36.1383 74.9216 36.0634 74.908 35.9875C74.8738 35.8084 74.8397 35.6293 74.8046 35.4512C74.7889 35.3734 74.7733 35.2955 74.7577 35.2177C74.7158 35.0124 74.6738 34.807 74.6299 34.6036C74.6211 34.5628 74.6133 34.5219 74.6046 34.482C74.5519 34.2406 74.4982 33.9993 74.4436 33.7599C74.428 33.6927 74.4124 33.6266 74.3967 33.5594C74.3558 33.3833 74.3138 33.2081 74.2709 33.0329C74.2514 32.9541 74.2319 32.8753 74.2124 32.7974C74.1675 32.6184 74.1226 32.4403 74.0758 32.2622C74.0602 32.2028 74.0455 32.1425 74.0299 32.0831C73.9685 31.8506 73.906 31.6199 73.8426 31.3903C73.827 31.3338 73.8104 31.2783 73.7948 31.2219C73.745 31.0448 73.6943 30.8686 73.6436 30.6935C73.6211 30.6166 73.5977 30.5387 73.5753 30.4619C73.5265 30.2984 73.4767 30.1358 73.427 29.9733C73.4055 29.9052 73.385 29.8361 73.3636 29.769C73.2933 29.5461 73.2221 29.3233 73.1489 29.1024C73.1372 29.0654 73.1245 29.0294 73.1119 28.9924C73.0494 28.8055 72.987 28.6197 72.9226 28.4348C72.8972 28.3608 72.8709 28.2878 72.8455 28.2148C72.7919 28.0611 72.7362 27.9073 72.6816 27.7545C72.6553 27.6835 72.6299 27.6115 72.6036 27.5404C72.5831 27.4859 72.5636 27.4314 72.5431 27.3769C76.6417 29.6999 81.548 31.0341 86.5354 31.2871C88.9598 34.3 90.8633 37.6555 92.194 41.2707C93.637 45.1897 94.3677 49.3149 94.3677 53.5306L94.3697 53.5296Z" fill="#43EC72"/>
<path d="M55.6862 33.3774C52.3389 20.1716 46.6959 10.2065 38.9143 3.75636C36.5787 1.81977 33.4167 1.08309 30.4586 1.78377C29.9786 1.89762 29.4947 2.02121 29.0186 2.15259C24.4098 3.42451 20.1297 5.4808 16.2965 8.26208C12.5931 10.949 9.40767 14.2383 6.82715 18.0365C1.62709 25.6923 -0.728055 34.949 0.196833 44.0967C0.417324 46.3126 0.835866 48.5411 1.43977 50.7181C3.96956 59.8347 9.6984 67.7465 17.5726 72.9957C24.1191 77.3603 31.7943 79.6657 39.5739 79.6657C41.0519 79.6657 42.5358 79.582 44.0139 79.4137C46.7183 79.1061 49.1769 77.6775 50.7574 75.4957C54.2989 70.6075 56.5799 64.8104 57.537 58.2659C58.619 50.866 57.9965 42.492 55.6862 33.3764V33.3774ZM10.0584 20.2203C12.3843 16.7957 15.2555 13.8315 18.5922 11.4103C19.8888 10.4692 21.2419 9.62062 22.6459 8.86739C25.5571 11.2088 28.2401 14.4806 30.5182 18.4696C28.6469 19.4018 27.1581 21.0591 26.242 23.2663C25.1649 25.8617 25.0137 28.9407 25.8157 31.9381C26.6166 34.9354 28.2859 37.5308 30.5152 39.2455C32.2704 40.5963 34.2167 41.295 36.1533 41.295C36.648 41.295 37.1426 41.2483 37.6334 41.1568C37.8734 43.1197 38.0373 45.1147 38.1212 47.1106C38.3075 51.5258 38.1026 55.8817 37.5319 60.0478C31.1113 61.2428 20.8693 61.1124 7.00081 54.6789C6.2808 53.0683 5.6769 51.3993 5.19982 49.6817C4.65444 47.7179 4.27785 45.7093 4.07883 43.7114C3.24565 35.4668 5.3686 27.1248 10.0565 20.2222L10.0584 20.2203ZM40.409 34.1656C39.7329 35.7947 38.5992 36.8944 37.2158 37.2632C35.8324 37.6311 34.2997 37.2408 32.9006 36.1635C31.3465 34.9675 30.1699 33.1107 29.5874 30.9348C29.0059 28.7588 29.0986 26.5643 29.8498 24.7552C30.526 23.1261 31.6596 22.0265 33.0431 21.6576C33.3826 21.5671 33.7309 21.5224 34.085 21.5224C35.1709 21.5224 36.3026 21.9437 37.3592 22.7563C38.9134 23.9523 40.09 25.8091 40.6724 27.9851C41.2539 30.1611 41.1612 32.3556 40.4109 34.1647L40.409 34.1656ZM8.76864 58.1141C15.119 60.7708 22.9327 63.0714 30.9552 63.0714C33.0079 63.0714 35.0753 62.9196 37.1348 62.5858C36.3338 67.1285 35.086 71.4055 33.4226 75.2369C28.5728 74.3863 23.9054 72.5344 19.7424 69.7589C15.2155 66.7412 11.476 62.7444 8.76864 58.1141ZM53.6765 57.7054C52.8111 63.6232 50.7652 68.8422 47.5954 73.2166C46.6559 74.5138 45.1895 75.3634 43.572 75.5473C41.0178 75.8383 38.4538 75.8461 35.9221 75.5843C39.3524 67.3796 40.9934 57.3395 40.5583 47.0084C40.4636 44.7653 40.2705 42.5241 39.9856 40.3228C41.7407 39.3711 43.1388 37.7644 44.0139 35.6555C45.091 33.0601 45.2422 29.9811 44.4403 26.9837C43.6383 23.9864 41.97 21.391 39.7407 19.6763C37.6187 18.0433 35.2177 17.365 32.8928 17.7202C30.6313 13.6612 27.9611 10.2571 25.04 7.70057C26.6566 6.98335 28.3318 6.38292 30.0586 5.90607C30.4879 5.78734 30.926 5.67543 31.3591 5.57227C31.8001 5.46815 32.2489 5.41657 32.6957 5.41657C34.0421 5.41657 35.3699 5.88174 36.4197 6.75077C43.5524 12.6627 48.7623 21.9418 51.9018 34.3321C54.0862 42.9503 54.6823 50.8145 53.6745 57.7064L53.6765 57.7054Z" fill="#43EC72"/>
<path d="M79.4965 50.4699C79.6624 49.5883 79.758 48.6618 79.7814 47.7188C79.8087 46.6172 79.7365 45.5097 79.5687 44.4276C79.279 42.5689 80.5551 40.8279 82.4185 40.5388C84.282 40.2498 86.0273 41.5227 86.3171 43.3814C86.5483 44.8636 86.6459 46.3788 86.6088 47.8852C86.5766 49.1922 86.442 50.4845 86.2098 51.7243C85.92 53.2658 84.6322 54.3684 83.1376 54.492C82.839 54.5163 82.5327 54.5027 82.2244 54.4443C80.3707 54.0979 79.1502 52.318 79.4975 50.469L79.4965 50.4699Z" fill="#43EC72"/>
<path d="M74.1822 68.6233C73.1071 68.6233 72.2339 67.7553 72.231 66.6828C72.228 65.6075 73.0993 64.7336 74.1764 64.7307C77.4203 64.7209 79.8369 63.4276 80.9891 62.6578C81.8838 62.0593 83.0964 62.2978 83.6965 63.1911C84.2965 64.0845 84.0574 65.2932 83.1618 65.8917C81.6438 66.9067 78.4584 68.6116 74.1871 68.6243H74.1812L74.1822 68.6233Z" fill="#43EC72"/>
<path d="M54.9323 49.4482H54.9265C50.6562 49.4356 47.4708 47.7316 45.9527 46.7156C45.0571 46.1171 44.8181 44.9085 45.4181 44.0151C46.0181 43.1227 47.2298 42.8833 48.1254 43.4818C49.2776 44.2516 51.6952 45.5459 54.9382 45.5546C56.0162 45.5576 56.8865 46.4315 56.8836 47.5068C56.8806 48.5802 56.0075 49.4473 54.9323 49.4473V49.4482Z" fill="#43EC72"/>
</svg>
