<svg width="18" height="18" viewBox="0 0 18 18" fill="none" xmlns="http://www.w3.org/2000/svg">
<path d="M15.3705 5.97578L8.2155 0.725777C7.65667 0.316566 6.99542 0.0701226 6.30507 0.0137743C5.61473 -0.042574 4.92227 0.0933744 4.30447 0.406545C3.68667 0.719715 3.16768 1.19787 2.80504 1.78799C2.4424 2.37811 2.25029 3.05714 2.25 3.74978V14.2498C2.25012 14.9427 2.44225 15.6221 2.80506 16.2125C3.16786 16.8029 3.68716 17.2812 4.30531 17.5943C4.92347 17.9075 5.61631 18.0432 6.30693 17.9865C6.99756 17.9298 7.65897 17.6828 8.21775 17.273L15.3727 12.023C15.8477 11.6747 16.2339 11.2194 16.5002 10.6941C16.7664 10.1687 16.9051 9.588 16.9051 8.99903C16.9051 8.41005 16.7664 7.82936 16.5002 7.30398C16.2339 6.77861 15.8477 6.32333 15.3727 5.97503L15.3705 5.97578ZM14.4825 10.8133L7.3275 16.0633C6.99226 16.3082 6.59578 16.4557 6.18193 16.4893C5.76808 16.5228 5.35302 16.4412 4.98268 16.2535C4.61233 16.0658 4.30116 15.7792 4.0836 15.4256C3.86604 15.0719 3.75058 14.665 3.75 14.2498V3.74978C3.74584 3.33379 3.85912 2.92506 4.07683 2.57057C4.29454 2.21608 4.60785 1.93019 4.98075 1.74578C5.29792 1.58445 5.64866 1.50017 6.0045 1.49978C6.48142 1.5016 6.94516 1.65644 7.3275 1.94153L14.4825 7.19153C14.7671 7.40055 14.9985 7.67363 15.1581 7.98868C15.3176 8.30373 15.4007 8.6519 15.4007 9.00503C15.4007 9.35816 15.3176 9.70633 15.1581 10.0214C14.9985 10.3364 14.7671 10.6095 14.4825 10.8185V10.8133Z" fill="#192F48"/>
</svg>
